<svg xmlns="http://www.w3.org/2000/svg" width="51.548" height="51.548" viewBox="0 0 51.548 51.548"><defs><style>.a{fill:#fe6100;}</style></defs><path class="a" d="M52.111,26.337A25.774,25.774,0,1,1,26.337.563,25.774,25.774,0,0,1,52.111,26.337ZM23.355,39.984,42.478,20.861a1.663,1.663,0,0,0,0-2.352l-2.352-2.352a1.663,1.663,0,0,0-2.352,0l-15.6,15.6L14.9,24.472a1.663,1.663,0,0,0-2.352,0L10.2,26.824a1.663,1.663,0,0,0,0,2.352L21,39.984A1.663,1.663,0,0,0,23.355,39.984Z" transform="translate(-0.563 -0.563)"/></svg>