<svg xmlns="http://www.w3.org/2000/svg" width="33.526" height="35.15" viewBox="0 0 33.526 35.15"><defs><style>.a{fill:#1b2749;stroke:#1b2749;stroke-width:0.3px;}</style></defs><g transform="translate(0.15 0.15)"><path class="a" d="M155.549,108.239h-1.682l-7.581-12.978a2.233,2.233,0,0,0-3.9.086L135.6,108.24H128v2.769h2.965l2.589,16.824a1.384,1.384,0,0,0,1.368,1.174H154.3a1.384,1.384,0,0,0,1.368-1.174l2.589-16.824h2.965v-2.769ZM144.342,96.365a.036.036,0,0,1,.017,0,.034.034,0,0,1,.014,0l6.692,11.454-12.79.072Zm8.774,29.872H136.11l-2.343-15.229h21.691Z" transform="translate(-128 -94.156)"/><rect class="a" width="2.769" height="9.691" transform="translate(9.691 19.622)"/><rect class="a" width="2.769" height="9.691" transform="translate(15.229 19.622)"/><rect class="a" width="2.769" height="9.691" transform="translate(20.767 19.622)"/></g></svg>