<svg xmlns="http://www.w3.org/2000/svg" xmlns:xlink="http://www.w3.org/1999/xlink" width="130.734" height="130.733" viewBox="0 0 130.734 130.733"><defs><style>.a{fill:url(#a);}.b{fill:#fff;}</style><linearGradient id="a" y1="0.5" x2="1" y2="0.5" gradientUnits="objectBoundingBox"><stop offset="0" stop-color="#fd5"/><stop offset="0.5" stop-color="#ff543e"/><stop offset="1" stop-color="#c837ab"/></linearGradient></defs><g transform="translate(0.001)"><ellipse class="a" cx="65.367" cy="65.367" rx="65.367" ry="65.367" transform="translate(-0.001 0)"/><g transform="translate(31.201 32.887)"><path class="b" d="M67.578,19.79a24.6,24.6,0,0,0-1.565-8.166,17.243,17.243,0,0,0-9.849-9.849A24.66,24.66,0,0,0,48,.211C44.395.04,43.251,0,34.112,0S23.829.04,20.239.2a24.6,24.6,0,0,0-8.166,1.565A16.424,16.424,0,0,0,6.1,5.654a16.573,16.573,0,0,0-3.879,5.957A24.662,24.662,0,0,0,.659,19.777C.488,23.38.449,24.524.449,33.663s.04,10.283.2,13.873A24.6,24.6,0,0,0,2.211,55.7a17.24,17.24,0,0,0,9.849,9.849,24.663,24.663,0,0,0,8.166,1.565c3.589.158,4.734.2,13.873.2s10.283-.039,13.873-.2a24.59,24.59,0,0,0,8.166-1.565A17.217,17.217,0,0,0,65.987,55.7a24.679,24.679,0,0,0,1.565-8.166c.158-3.59.2-4.734.2-13.873s-.013-10.283-.171-13.873ZM61.516,47.273a18.45,18.45,0,0,1-1.157,6.246,11.166,11.166,0,0,1-6.391,6.391,18.515,18.515,0,0,1-6.246,1.157c-3.55.158-4.615.2-13.6.2s-10.059-.039-13.6-.2a18.44,18.44,0,0,1-6.246-1.157A10.358,10.358,0,0,1,10.416,57.4,10.465,10.465,0,0,1,7.9,53.532a18.518,18.518,0,0,1-1.157-6.246c-.158-3.55-.2-4.616-.2-13.6s.039-10.059.2-13.6A18.44,18.44,0,0,1,7.9,13.847,10.231,10.231,0,0,1,10.43,9.981,10.449,10.449,0,0,1,14.3,7.469a18.528,18.528,0,0,1,6.246-1.157c3.55-.158,4.616-.2,13.6-.2s10.059.04,13.6.2a18.45,18.45,0,0,1,6.246,1.157,10.35,10.35,0,0,1,3.866,2.511,10.463,10.463,0,0,1,2.512,3.866,18.525,18.525,0,0,1,1.157,6.246c.158,3.55.2,4.615.2,13.6s-.04,10.033-.2,13.584Zm0,0" transform="translate(-0.449 0)"/><path class="b" d="M142.241,124.5a17.292,17.292,0,1,0,17.292,17.292A17.3,17.3,0,0,0,142.241,124.5Zm0,28.509a11.217,11.217,0,1,1,11.217-11.217A11.219,11.219,0,0,1,142.241,153.009Zm0,0" transform="translate(-108.578 -108.129)"/><path class="b" d="M370.524,92.639a4.037,4.037,0,1,1-4.037-4.037A4.037,4.037,0,0,1,370.524,92.639Zm0,0" transform="translate(-314.848 -76.951)"/></g></g></svg>