<svg xmlns="http://www.w3.org/2000/svg" width="52.293" height="52.293" viewBox="0 0 52.293 52.293"><defs><style>.a{fill:#1b2749;}</style></defs><path class="a" d="M52.291,47.022a6.254,6.254,0,0,1-6.844,6.245,50.842,50.842,0,0,1-22.14-7.859A50.009,50.009,0,0,1,7.907,30.04,50.657,50.657,0,0,1,.025,7.809,6.251,6.251,0,0,1,6.254,1h7.5a6.258,6.258,0,0,1,6.26,5.384,30.781,30.781,0,0,0,1.683,6.745,6.241,6.241,0,0,1-1.413,6.6l-2.5,2.492a38.767,38.767,0,0,0,13.25,13.226l2.5-2.5a6.266,6.266,0,0,1,6.6-1.407,30.967,30.967,0,0,0,6.772,1.683,6.25,6.25,0,0,1,5.383,6.324Z" transform="translate(0 -1)"/></svg>