<svg xmlns="http://www.w3.org/2000/svg" width="52.293" height="52.293" viewBox="0 0 52.293 52.293"><defs><style>.a{fill:#fff;}</style></defs><path class="a" d="M26.146,53.293A26.146,26.146,0,1,1,52.293,27.146,26.146,26.146,0,0,1,26.146,53.293Zm9.659-42.529a19.048,19.048,0,0,0-17.5-.947c2.183.881,3.763,3.443,3.763,6.465,0,2.331-2.717,11.143-2.717,14.943,0,4.238,6.445,11.783,8.121,14.9A19.018,19.018,0,0,0,45.162,27.149q0-.769-.06-1.523c-2.458,1.042-7.439-1.17-9.448-1.1-.315.011,5.433,1.315,5.433,3.985,0,5.434-5.433,10.868-8.15,10.868s0-2.717,0-5.434.2-3.248-2.716-5.434-4.707-.826-5.433-2.717c-.8-2.094,2.717-1.358,5.433-4.075s0-6.792,2.716-9.509A9.205,9.205,0,0,1,35.805,10.764ZM11.317,39.055c.788-3.792,2.893-9.944,2.605-13.264-.306-3.537-2.518-6.514-4.024-8.527a19.031,19.031,0,0,0,1.419,21.791Z" transform="translate(0 -1)"/></svg>