<svg xmlns="http://www.w3.org/2000/svg" width="131.286" height="130.38" viewBox="0 0 131.286 130.38"><defs><style>.a{fill:#55acee;}.b{fill:#fff;}</style></defs><g transform="translate(0 0)"><path class="a" d="M131.286,65.19c0,36-29.391,65.19-65.643,65.19S0,101.192,0,65.19,29.391,0,65.643,0,131.286,29.188,131.286,65.19Z" transform="translate(0.001 0)"/><path class="b" d="M66.6,6.147a28.217,28.217,0,0,1-7.847,2.062A13.292,13.292,0,0,0,64.767.959a28.184,28.184,0,0,1-8.679,3.179A13.922,13.922,0,0,0,46.111,0C38.563,0,32.448,5.871,32.448,13.105a12.588,12.588,0,0,0,.353,2.989A39.361,39.361,0,0,1,4.638,2.4,12.623,12.623,0,0,0,2.787,8.987,12.974,12.974,0,0,0,8.862,19.9a14.035,14.035,0,0,1-6.19-1.642v.167A13.266,13.266,0,0,0,13.634,31.271a14.215,14.215,0,0,1-6.17.228,13.625,13.625,0,0,0,12.769,9.1A28.154,28.154,0,0,1,3.26,46.21,28.337,28.337,0,0,1,0,46.029a39.872,39.872,0,0,0,20.943,5.889c25.134,0,38.882-19.974,38.882-37.294,0-.568-.015-1.131-.039-1.695A27.139,27.139,0,0,0,66.6,6.147Z" transform="translate(32.91 39.219)"/></g></svg>