<svg xmlns="http://www.w3.org/2000/svg" width="2145.072" height="1298.352" viewBox="0 0 2145.072 1298.352"><defs><style>.a{fill:#1b2749;stroke:#707070;opacity:0.89;}.b,.f{fill:none;}.b{stroke:#f5f6fa;stroke-linecap:square;stroke-miterlimit:10;opacity:0.07;}.c,.d{fill:#fff;opacity:0.05;}.d{mix-blend-mode:screen;isolation:isolate;}.e{stroke:none;}</style></defs><g transform="translate(225.072)"><g class="a"><rect class="e" width="1920" height="1080"/><rect class="f" x="0.5" y="0.5" width="1919" height="1079"/></g><g transform="translate(-320 494)"><path class="b" d="M1.5.5V428.116" transform="translate(93.928 340.915)"/><path class="b" d="M1.5.5V353.679" transform="translate(539.278 415.352)"/><path class="b" d="M1.5.5V473.031" transform="translate(869.24 330.821)"/><path class="b" d="M1.5.5V376.569" transform="translate(1823.552 427.284)"/><path class="b" d="M1.5.5V376.569" transform="translate(2067.606 334.773)"/><path class="b" d="M1.5.5V400.514" transform="translate(1182.414 368.517)"/><path class="c" d="M19.186,0A19.186,19.186,0,1,1,0,19.186,19.186,19.186,0,0,1,19.186,0Z" transform="translate(415.37 292.95)"/><path class="c" d="M41.86,0A41.86,41.86,0,1,1,0,41.86,41.86,41.86,0,0,1,41.86,0Z" transform="translate(969.776 439.586)"/><path class="c" d="M41.86,0A41.86,41.86,0,1,1,0,41.86,41.86,41.86,0,0,1,41.86,0Z" transform="translate(1665.65 473.586)"/><path class="d" d="M21.8,0C33.843,0,43.6,9.371,43.6,20.93S33.843,41.86,21.8,41.86,0,32.489,0,20.93,9.761,0,21.8,0Z" transform="translate(714 353.577)"/><path class="d" d="M13.081,0A13.081,13.081,0,1,1,0,13.081,13.081,13.081,0,0,1,13.081,0Z" transform="translate(1309.526 523.307)"/><path class="d" d="M13.081,0A13.081,13.081,0,1,1,0,13.081,13.081,13.081,0,0,1,13.081,0Z" transform="translate(1912.526 342.854)"/><path class="d" d="M39.244,0A39.244,39.244,0,1,1,0,39.244,39.244,39.244,0,0,1,39.244,0Z" transform="translate(333.465 484.063)"/><path class="d" d="M39.244,0A39.244,39.244,0,1,1,0,39.244,39.244,39.244,0,0,1,39.244,0Z" transform="translate(2101.465 450.063)"/><path class="c" d="M21.8,0C33.843,0,43.6,9.371,43.6,20.93S33.843,41.86,21.8,41.86,0,32.489,0,20.93,9.761,0,21.8,0Z" transform="translate(1388.805 275.09)"/></g></g></svg>