<svg xmlns="http://www.w3.org/2000/svg" width="98" height="98" viewBox="0 0 98 98"><defs><style>.a{fill:#fff;}.b{fill:#253052;}</style></defs><g transform="translate(-1272.46 -1556.46)"><g transform="translate(1272 1556)"><circle class="a" cx="49" cy="49" r="49" transform="translate(0.46 0.46)"/><path class="b" d="M15.943,31.885a8.7,8.7,0,0,0,8.7-8.7V8.7a8.7,8.7,0,0,0-17.392,0V23.189A8.7,8.7,0,0,0,15.943,31.885ZM30.436,17.392H28.987a1.449,1.449,0,0,0-1.449,1.449v4.348A11.608,11.608,0,0,1,14.784,34.728c-6.024-.588-10.436-6-10.436-12.055V18.841A1.449,1.449,0,0,0,2.9,17.392H1.449A1.449,1.449,0,0,0,0,18.841v3.638C0,30.6,5.795,37.838,13.769,38.937v3.093H8.7A1.449,1.449,0,0,0,7.247,43.48v1.449A1.449,1.449,0,0,0,8.7,46.379H23.189a1.449,1.449,0,0,0,1.449-1.449V43.48a1.449,1.449,0,0,0-1.449-1.449H18.117V38.972A15.958,15.958,0,0,0,31.885,23.189V18.841A1.449,1.449,0,0,0,30.436,17.392Z" transform="translate(33.998 27.814)"/></g></g></svg>