<svg xmlns="http://www.w3.org/2000/svg" width="17.872" height="17.157" viewBox="0 0 17.872 17.157"><defs><style>.a{fill:#feb713;stroke:#feb713;stroke-width:0.5px;}</style></defs><path class="a" d="M17.2,7.542a1.244,1.244,0,0,0-.69-2.122l-4.2-.61a.549.549,0,0,1-.413-.3L10.021.7A1.244,1.244,0,0,0,7.79.7L5.912,4.51a.549.549,0,0,1-.414.3l-4.2.61a1.244,1.244,0,0,0-.69,2.122l3.039,2.962a.55.55,0,0,1,.158.486l-.717,4.183a1.218,1.218,0,0,0,.271,1.009,1.257,1.257,0,0,0,1.534.3L8.649,14.51a.562.562,0,0,1,.511,0l3.757,1.975a1.231,1.231,0,0,0,.579.145,1.247,1.247,0,0,0,.955-.447,1.217,1.217,0,0,0,.271-1.009L14,10.991a.55.55,0,0,1,.158-.486Z" transform="translate(0.031 0.239)"/></svg>