<svg xmlns="http://www.w3.org/2000/svg" width="23.341" height="23.061" viewBox="0 0 23.341 23.061"><defs><style>.a{fill:#fff;}</style></defs><path class="a" d="M184.232,112.324a15.459,15.459,0,0,1-2.514.295,1.019,1.019,0,0,1-1.17-1.012,1.056,1.056,0,0,1,1.12-1.077c.093,0,.188,0,.282-.006a9.512,9.512,0,0,0,5.621-2.091,9.109,9.109,0,0,0,2.944-4.159,9,9,0,0,0-1.664-9.225s0,0,0,0l-.009-.011c-.044-.052-.088-.1-.135-.157a10.36,10.36,0,0,0-1.92-1.707c-.026-.018-.052-.034-.078-.051a8.83,8.83,0,0,0-5.665-1.436h0a11.733,11.733,0,0,0-1.564.216,7.955,7.955,0,0,0-1.821.607.2.2,0,0,0-.015-.022,6.849,6.849,0,0,0-1.422-1.6l0,0c.036-.019.07-.037.107-.054.218-.114.438-.221.658-.315a10.964,10.964,0,0,1,2.971-.845c.121-.019.245-.033.369-.045l.045,0c.059-.006.119-.012.178-.017l.081-.007c.068-.006.135-.011.2-.014h.021c.074,0,.146-.009.219-.011l.069,0,.113,0h.021l.262,0h.006c.11,0,.219,0,.329,0,.084,0,.168.006.252.011q.586.027,1.185.11a11.524,11.524,0,0,1,.934,22.638Z" transform="translate(-169.842 -89.56)"/><path class="a" d="M128.1,107.943a15.6,15.6,0,0,1-1.718,1.858,1.038,1.038,0,0,1-1.561-1.37,9.11,9.11,0,0,0,2.944-4.159,9,9,0,0,0-1.664-9.225s0,0,0,0l-.009-.011a8.392,8.392,0,0,0-2.055-1.863c-.026-.018-.052-.034-.078-.051a9.483,9.483,0,0,0-3.8-1.337,10.718,10.718,0,0,0-1.863-.1h0a8.713,8.713,0,0,0-3.4.8,10.029,10.029,0,0,0-3.682,3.038,8.063,8.063,0,0,0-.635.947,1.052,1.052,0,0,1-1.111.515l-.021,0a1.037,1.037,0,0,1-.7-1.532,11.589,11.589,0,0,1,3.935-4.1c.26-.167.523-.322.793-.463l.1-.058q.324-.169.658-.315a11.25,11.25,0,0,1,2.971-.845c.121-.017.245-.032.369-.045l.045,0c.059-.006.119-.012.178-.017l.081-.007c.068-.006.135-.011.2-.014h.021c.074,0,.146-.009.219-.011l.069,0,.113,0h.021l.262,0h.006c.11,0,.219,0,.329,0,.084,0,.168.006.252.011a11.781,11.781,0,0,1,7.992,3.751A11.529,11.529,0,0,1,128.1,107.943Z" transform="translate(-107.095 -89.56)"/><path class="a" d="M197.827,152.108c0-.991.006-1.982,0-2.973-.006-.774-.424-1.241-1.074-1.228-.626.012-1.025.462-1.031,1.216-.012,1.682-.026,3.366,0,5.048a1.383,1.383,0,0,1-.481,1.123c-.762.721-1.5,1.469-2.235,2.216a1.077,1.077,0,0,0-.126,1.628c.461.448,1.069.4,1.634-.16.961-.946,1.938-1.879,2.854-2.867a1.874,1.874,0,0,0,.438-1.087C197.867,154.055,197.827,153.08,197.827,152.108Z" transform="translate(-185.021 -143.713)"/><path class="a" d="M170.008,374.583a1.039,1.039,0,0,0,1.058,1.064,1.061,1.061,0,0,0,1.054-1.02,1.08,1.08,0,0,0-1.069-1.066A1.044,1.044,0,0,0,170.008,374.583Z" transform="translate(-164.085 -353.15)"/><path class="a" d="M91.705,294.519a1.046,1.046,0,0,0-1.026,1.056,1.031,1.031,0,0,0,1.033,1.042,1.043,1.043,0,0,0,1.058-1.076A1.073,1.073,0,0,0,91.705,294.519Z" transform="translate(-90.458 -279.789)"/><path class="a" d="M122.7,342.819a1.039,1.039,0,1,0,1.031-1.031A1.017,1.017,0,0,0,122.7,342.819Z" transform="translate(-120.177 -323.662)"/><path class="a" d="M88.649,230.225a1.043,1.043,0,0,0,.017-2.086,1.043,1.043,0,1,0-.017,2.086Z" transform="translate(-87.597 -218.18)"/></svg>