<svg xmlns="http://www.w3.org/2000/svg" width="17.96" height="14" viewBox="0 0 17.96 14"><defs><style>.a{fill:#1b2749;}</style></defs><path class="a" d="M17.96,1.658a7.609,7.609,0,0,1-2.116.556A3.584,3.584,0,0,0,17.465.259a7.6,7.6,0,0,1-2.34.857A3.754,3.754,0,0,0,12.434,0,3.612,3.612,0,0,0,8.75,3.534a3.394,3.394,0,0,0,.1.806A10.614,10.614,0,0,1,1.251.646a3.4,3.4,0,0,0-.5,1.777A3.5,3.5,0,0,0,2.39,5.365,3.785,3.785,0,0,1,.721,4.923v.045A3.577,3.577,0,0,0,3.676,8.433a3.833,3.833,0,0,1-1.664.062,3.674,3.674,0,0,0,3.443,2.454A7.592,7.592,0,0,1,.879,12.461,7.641,7.641,0,0,1,0,12.412,10.752,10.752,0,0,0,5.647,14,10.193,10.193,0,0,0,16.132,3.943c0-.153,0-.305-.011-.457A7.318,7.318,0,0,0,17.96,1.658Z"/></svg>