<svg xmlns="http://www.w3.org/2000/svg" width="19.013" height="20" viewBox="0 0 19.013 20"><defs><style>.a{fill:#1b2749;}.b{fill:#fff;}</style></defs><g transform="translate(0.174 0.449)"><rect class="a" width="19" height="11" transform="translate(-0.174 7.551)"/><g transform="translate(0 0)"><path class="a" d="M-518.227,197.884h-1v-2c0-.526-.474,0-1,0h0c-.526,0-1-.526-1,0v2h-10v-2c0-.526-.474,0-1,0h-1c-.526,0-1-.526-1,0v2h0a2.382,2.382,0,0,0-2,2v13a2.382,2.382,0,0,0,2,2h16c.878,0,1-1.122,1-2v-13C-517.227,199.006-517.349,197.884-518.227,197.884Zm-2,0v-2c0-.176-.176,0,0,0h0c.176,0,1-.176,1,0v4c0,.176-.824,0-1,0h0c-.176,0,0,.176,0,0Zm-13,0v-2c0-.176-.176,0,0,0h1c.176,0,0-.176,0,0v4c0,.176.176,0,0,0h-1c-.176,0,0,.176,0,0Zm16,15a1.035,1.035,0,0,1-1,1h-16a1.035,1.035,0,0,1-1-1v-9h18Zm0-10h-18v-3a1.035,1.035,0,0,1,1-1h0v1a1.035,1.035,0,0,0,1,1h1a1.035,1.035,0,0,0,1-1v-1h10v1a1.035,1.035,0,0,0,1,1h0a1.035,1.035,0,0,0,1-1v-1h1a1.035,1.035,0,0,1,1,1Z" transform="translate(536.054 -195.332)"/><path class="a" d="M-519.084,214.026h-16a2.291,2.291,0,0,1-2-2v-13a2.291,2.291,0,0,1,2-2h0v-2a.978.978,0,0,1,1-1h1a.978.978,0,0,1,1,1v2h10v-2a.978.978,0,0,1,1-1h0c.57,0,2,.43,2,1v2h0c.921,0,1,1.079,1,2v13C-518.084,212.948-518.163,214.026-519.084,214.026Zm-16-17a2.483,2.483,0,0,0-2,2v13a2.483,2.483,0,0,0,2,2h16c.834,0,1-1.166,1-2v-13c0-.834-.166-2-1-2h-1v-2c0-.483-.518,0-1,0h0c-.483,0-1-.483-1,0v2h-10v-2c0-.483-.517,0-1,0h-1c-.483,0-1-.483-1,0v2Zm16,16h-16a.978.978,0,0,1-1-1v-9h18v9A.978.978,0,0,1-519.084,213.026Zm-17-10v9a1.1,1.1,0,0,0,1,1h16a1.1,1.1,0,0,0,1-1v-9Zm18-1h-18v-3a.978.978,0,0,1,1-1h0v1a1.1,1.1,0,0,0,1,1h1a1.1,1.1,0,0,0,1-1v-1h10v1a1.1,1.1,0,0,0,1,1h0a1.1,1.1,0,0,0,1-1v-1h1a.978.978,0,0,1,1,1Zm-18,0h18v-3a1.1,1.1,0,0,0-1-1h0v1c0,.57-1.43,1-2,1h0a.978.978,0,0,1-1-1v-1h-10v1a.978.978,0,0,1-1,1h-1a.978.978,0,0,1-1-1v-1h0a1.1,1.1,0,0,0-1,1Zm15-3h0c-.219,0-1,.219-1,0v-4c0-.219.781,0,1,0h0c.219,0,1-.219,1,0v4C-520.084,199.246-520.865,199.026-521.084,199.026Zm0-4c-.132,0,0-.132,0,0v4c0,.132-.132,0,0,0h0c.132,0,1,.132,1,0v-4c0-.132-.868,0-1,0Zm-12,4h-1c-.219,0,0,.219,0,0v-4c0-.219-.219,0,0,0h1c.219,0,0-.219,0,0v4C-533.084,199.246-532.865,199.026-533.084,199.026Zm-1-4c-.132,0,0-.132,0,0v4c0,.132-.132,0,0,0h1c.132,0,0,.132,0,0v-4c0-.132.132,0,0,0Z" transform="translate(536.911 -194.475)"/></g><g transform="translate(5.809 4.218)"><g transform="translate(0 0)"><path class="a" d="M-461.492,244.47h-7c-.176,0,0-.176,0,0v2c0,.176-.176,0,0,0h7c.176,0,1,.176,1,0v-2C-460.492,244.294-461.316,244.47-461.492,244.47Zm0,2h-6v-2h6Z" transform="translate(468.51 -244.136)"/></g></g><g transform="translate(1.989 9.31)"><g transform="translate(0 0)"><path class="b" d="M-511.648,304.345h-2c-.176,0,0-.176,0,0v2c0,.176-.176,0,0,0h2c.176,0,1,.176,1,0v-2C-510.648,304.169-511.472,304.345-511.648,304.345Zm0,1h-1v-1h1Z" transform="translate(513.486 -304.104)"/></g></g><g transform="translate(6.127 9.31)"><g transform="translate(0 0)"><path class="b" d="M-462.062,304.345h-2c-.176,0-1-.176-1,0v2c0,.176.824,0,1,0h2c.176,0,0,.176,0,0v-2C-462.062,304.169-461.886,304.345-462.062,304.345Zm-1,1h-1v-1h1Z" transform="translate(464.762 -304.104)"/></g></g><g transform="translate(10.584 9.31)"><g transform="translate(0 0)"><path class="b" d="M-410.047,304.345h-2c-.176,0,0-.176,0,0v2c0,.176-.176,0,0,0h2c.176,0,0,.176,0,0v-2C-410.047,304.169-409.871,304.345-410.047,304.345Zm0,1h-2v-1h2Z" transform="translate(412.291 -304.104)"/></g></g><g transform="translate(14.722 9.31)"><g transform="translate(0 0)"><path class="b" d="M-361.461,304.345h-2c-.176,0,0-.176,0,0v2c0,.176-.176,0,0,0h2c.176,0,0,.176,0,0v-2C-361.461,304.169-361.285,304.345-361.461,304.345Zm0,1h-1v-1h1Z" transform="translate(363.567 -304.104)"/></g></g><g transform="translate(1.989 12.493)"><g transform="translate(0)"><path class="b" d="M-511.648,341.641h-2c-.176,0,0-.176,0,0v2c0,.176-.176,0,0,0h2c.176,0,1,.176,1,0v-2C-510.648,341.465-511.472,341.641-511.648,341.641Zm0,2h-1v-1h1Z" transform="translate(513.486 -341.583)"/></g></g><g transform="translate(6.127 12.493)"><g transform="translate(0)"><path class="b" d="M-462.062,341.641h-2c-.176,0-1-.176-1,0v2c0,.176.824,0,1,0h2c.176,0,0,.176,0,0v-2C-462.062,341.465-461.886,341.641-462.062,341.641Zm-1,2h-1v-1h1Z" transform="translate(464.762 -341.583)"/></g></g><g transform="translate(10.584 12.493)"><g transform="translate(0)"><path class="b" d="M-410.047,341.641h-2c-.176,0,0-.176,0,0v2c0,.176-.176,0,0,0h2c.176,0,0,.176,0,0v-2C-410.047,341.465-409.871,341.641-410.047,341.641Zm0,2h-2v-1h2Z" transform="translate(412.291 -341.583)"/></g></g><g transform="translate(14.722 12.493)"><g transform="translate(0)"><path class="b" d="M-361.461,341.641h-2c-.176,0,0-.176,0,0v2c0,.176-.176,0,0,0h2c.176,0,0,.176,0,0v-2C-361.461,341.465-361.285,341.641-361.461,341.641Zm0,2h-1v-1h1Z" transform="translate(363.567 -341.583)"/></g></g><g transform="translate(1.989 15.676)"><g transform="translate(0 0)"><path class="b" d="M-511.648,378.938h-2c-.176,0,0-.176,0,0v2c0,.176-.176,0,0,0h2c.176,0,1,.176,1,0v-2C-510.648,378.761-511.472,378.938-511.648,378.938Zm0,2h-1v-1h1Z" transform="translate(513.486 -379.063)"/></g></g><g transform="translate(6.127 15.676)"><g transform="translate(0 0)"><path class="b" d="M-462.062,378.938h-2c-.176,0-1-.176-1,0v2c0,.176.824,0,1,0h2c.176,0,0,.176,0,0v-2C-462.062,378.761-461.886,378.938-462.062,378.938Zm-1,2h-1v-1h1Z" transform="translate(464.762 -379.063)"/></g></g><g transform="translate(10.359 15.473)"><g transform="translate(0 0)"><path class="b" d="M-412.473,376.742l-1,2-1-1h0v1a5.562,5.562,0,0,0,1,0h0c.089,0-.058.068,0,0l2-2Z" transform="translate(414.941 -376.664)"/></g></g><g transform="translate(14.178 15.473)"><g transform="translate(0 0)"><path class="b" d="M-367.316,376.742l-1,2-1-1h-1l1,1a5.562,5.562,0,0,0,1,0h0c.089,0-.058.068,0,0l1-2Z" transform="translate(369.965 -376.664)"/></g></g><rect class="b" width="2" height="2" transform="translate(1.826 9.551)"/><rect class="b" width="3" height="2" transform="translate(5.826 9.551)"/><path class="a" d="M-514.727,228.3h-2c.075.068-.052.913,0,1,.126.169-.01-.224,0,0a1.007,1.007,0,0,1-1,1c-.37,0-.826.291-1,0-.125-.169.01-.777,0-1-.013-.295-.217-.814,0-1h-11a7.027,7.027,0,0,1,0,1c0,.082.019-.077,0,0,.013.06,0-.063,0,0a1.007,1.007,0,0,1-1,1,1.013,1.013,0,0,1-1-1c0-.083-.019.078,0,0-.013-.06,0,.063,0,0a5.439,5.439,0,0,1,0-1h-1c-.147.326-.642.965-1,1v4h19v-4C-514.938,229.167-514.65,228.539-514.727,228.3Zm-6,3c-.142.242.252.9,0,1a6.117,6.117,0,0,1-2,0,6.613,6.613,0,0,0-1,0c-.448,0-1.553.03-2,0-.211-.014.212,0,0,0-.1,0,.1-.006,0,0-.035,0-.965,0-1,0-.55.093-.821-.448-1-1-.157-.484.481-.907,1-1a2.778,2.778,0,0,1,1,0c.432.028,1.568,0,2,0a6.733,6.733,0,0,1,1,0c.217.023.783-.023,1,0,.074.008-.075,0,0,0,.023-.005-.02.008,0,0,.524-.207.847.527,1,1C-520.648,231.538-520.6,231.08-520.727,231.3Z" transform="translate(533.553 -225.745)"/><rect class="b" width="2" height="2" transform="translate(10.826 9.551)"/><rect class="b" width="2" height="2" transform="translate(14.826 9.551)"/><rect class="b" width="2" height="2" transform="translate(1.826 12.551)"/><rect class="b" width="3" height="2" transform="translate(5.826 12.551)"/><rect class="b" width="2" height="2" transform="translate(1.826 15.551)"/><rect class="b" width="3" height="2" transform="translate(5.826 15.551)"/><rect class="b" width="2" height="2" transform="translate(10.826 12.551)"/><rect class="b" width="2" height="2" transform="translate(14.826 12.551)"/></g></svg>