<svg xmlns="http://www.w3.org/2000/svg" xmlns:xlink="http://www.w3.org/1999/xlink" width="295" height="268" viewBox="0 0 295 268"><defs><style>.a{fill:#1b2749;}.b{fill:#fff;}.c,.d,.e{fill:#fba266;}.c{opacity:0.18;}.c,.d{isolation:isolate;}.d{opacity:0.26;}.e{fill-rule:evenodd;}.f{fill:#192545;}.g{filter:url(#a);}</style><filter id="a" x="0" y="17" width="295" height="219" filterUnits="userSpaceOnUse"><feOffset dy="3" input="SourceAlpha"/><feGaussianBlur stdDeviation="15" result="b"/><feFlood flood-opacity="0.161"/><feComposite operator="in" in2="b"/><feComposite in="SourceGraphic"/></filter></defs><g transform="translate(-1381 -4713)"><g transform="translate(1451.66 4713.229)"><g transform="translate(0 0)"><path class="a" d="M1431.633-475.479h-115c-10.8,0-19,9.2-19,20v228c0,10.8,8.2,20,19,20h115a20.319,20.319,0,0,0,20-20v-228A20.319,20.319,0,0,0,1431.633-475.479Zm12,213h-111a4.059,4.059,0,0,0-4,4,4.059,4.059,0,0,0,4,4h111v27a12.191,12.191,0,0,1-12,12h-115a12.191,12.191,0,0,1-12-12v-27h12a4.059,4.059,0,0,0,4-4,4.059,4.059,0,0,0-4-4h-12v-174h139Zm0-181h-139v-12a12.191,12.191,0,0,1,12-12h115a12.191,12.191,0,0,1,12,12Z" transform="translate(-1297.292 475.25)"/></g></g><g transform="translate(1523.717 4730.654)"><g transform="translate(0 0)"><path class="a" d="M1454.494-441.549h-15a4.059,4.059,0,0,0-4,4c0,2.164,1.836,3,4,3h15c2.164,0,4-.836,4-3A4.059,4.059,0,0,0,1454.494-441.549Z" transform="translate(-1435.211 441.895)"/></g></g><g transform="translate(1515.879 4943.296)"><g transform="translate(0 0)"><path class="a" d="M1432.332-35.191a12.191,12.191,0,0,0-12,12,12.191,12.191,0,0,0,12,12c6.482,0,11-5.518,11-12S1438.814-35.191,1432.332-35.191Zm0,16a4.063,4.063,0,0,1-4-4,4.063,4.063,0,0,1,4-4,4.063,4.063,0,0,1,4,4A4.063,4.063,0,0,1,1432.332-19.191Z" transform="translate(-1420.211 34.895)"/></g></g><g transform="translate(1508.043 4730.654)"><g transform="translate(0 0)"><ellipse class="a" cx="4" cy="3.5" rx="4" ry="3.5" transform="translate(-0.043 0.346)"/></g></g><g class="g" transform="matrix(1, 0, 0, 1, 1381, 4713)"><path class="b" d="M13,0H193c6.969,0,12,6.149,12,14V115c0,7.851-5.031,14-12,14H13c-6.969,0-13-6.149-13-14V14C0,6.149,6.031,0,13,0Z" transform="translate(45 59)"/></g><g transform="translate(1.311 -1449.679)"><g transform="translate(1444.689 6237.679)"><ellipse class="c" cx="34.5" cy="34" rx="34.5" ry="34" transform="translate(0 23)"/><ellipse class="d" cx="23" cy="23.5" rx="23" ry="23.5" transform="translate(121 32)"/><g transform="translate(25.953 77.368)"><path class="e" d="M1531.5,761.833a5.345,5.345,0,0,1-1-4h-8c-3.5,0-6,3.5-6,7a5.78,5.78,0,0,0,6,6h10C1531.577,767.838,1530.319,764.638,1531.5,761.833Z" transform="translate(-1516.455 -758.201)"/></g><g transform="translate(110.345 68.583)"><path class="e" d="M1611.738,771.017c.093-.018-.091.022,0,0,.211-.2.813.2,1,0,.021-.023-.044.052,0,0,.149-.2.924-.89,1-1,.269-.391-.262-.606,0-1,.486-.729,1.474-1.3,2-2a20.036,20.036,0,0,1,2-3c.132-.126.867-.871,1-1,.007-.269,0,.268,0,0,0-.082.006-1.537,0-2-.018-.078.032.149,0,0-.172-.529-.164-.382,0,0-.663-1.485-1.353-3.413-1-5,.388-1.455,1.776-2.122,3-3-5.584-4.6-14.4-4.584-19,1s-3.584,14.4,2,19a13.936,13.936,0,0,0,4,2C1608.57,773.3,1609.892,771.5,1611.738,771.017Z" transform="translate(-1599.082 -749.599)"/></g><g transform="translate(126.842 77.368)"><path class="e" d="M1623.393,757.833h-8a13.817,13.817,0,0,1,3,13h8a5.78,5.78,0,0,0,6-6c0-3.5-2.5-7-6-7Z" transform="translate(-1615.235 -758.201)"/></g><g transform="translate(62.574 77.368)"><path class="e" d="M1594.736,762.833c-1.669-.722-2.138-3.3-2-5h-40c3.1,3.431,2.367,8.58,1,13h42C1594.866,768.017,1594.157,765.509,1594.736,762.833Z" transform="translate(-1552.31 -758.201)"/></g><g transform="translate(46.91 68.577)"><path class="e" d="M1555.063,758.017a6.938,6.938,0,0,1,0-7c-6.63-2.888-14.113-.631-17,6s.37,15.112,7,18c.364.158.625-.125,1,0a3.35,3.35,0,0,1,3-2h0c.012-.054-.013.053,0,0a7.043,7.043,0,0,1,3-4c-1.649,1.2.656.385,1,0,.4-.449.611-1.536,1-2,.033-.04-.034.04,0,0h0c.168-.377.808-.635,1-1,.658-1.32.894-3.026,2-4,.242-.2.74.2,1,0C1557.169,760.542,1555.927,759.511,1555.063,758.017Z" transform="translate(-1536.973 -749.594)"/></g><g transform="translate(42.943 26.255)"><path class="e" d="M1624.146,747.9c-.376-2.16-.474-3.872-1-6-.32-1.3-.586-3.146,0-4l-3-3c-5.566-7.081-10.736-13.435-12-22-26.566-11.881-58.57-.393-71,25a40.051,40.051,0,0,0-2,6,54.748,54.748,0,0,0-2,8,26.161,26.161,0,0,1,7-1,35.306,35.306,0,0,1,9,1c4.062.46,8.366,1.2,12,3,.442.071.563.912,1,1,.488-.183,1.5-.847,2-1a26.022,26.022,0,0,1,13-3c6.622,1,13.374,2.019,20,3a4.123,4.123,0,0,1,4-4c.655-.618.835-1,2-1a7.617,7.617,0,0,1,3,1,2.839,2.839,0,0,1,2-1c.64-.431,1.008-1,2-1a4.184,4.184,0,0,1,4,3,38.263,38.263,0,0,1,9,1,5.7,5.7,0,0,1,2-3C1624.954,749.341,1624.182,748.11,1624.146,747.9Z" transform="translate(-1533.089 -708.156)"/></g><g transform="translate(105.985 2.467)"><path class="e" d="M1614.828,712.4a8.287,8.287,0,0,1-8-8c0-4.207,3.793-7,8-7a6.606,6.606,0,0,1,7,7c0,4.206-2.794,8-7,8Zm0-28a20.162,20.162,0,0,0-20,20h0a25.035,25.035,0,0,0,0,4c1.208,8.565,6.68,14.92,12,22l4,5c.007.008-.008-.007,0,0a6.34,6.34,0,0,0,3,2,1.952,1.952,0,0,0,1,0h0a6.874,6.874,0,0,0,3-2c.041-.039-.033.046,0,0h0l2-2,2-3c6.118-8.146,13.118-15.2,13-26a20.164,20.164,0,0,0-20-20Z" transform="translate(-1594.813 -684.865)"/></g><g transform="translate(17.287 27.679)"><path class="a" d="M1517.684,711.871a1.989,1.989,0,0,1-2,2h-6a2,2,0,0,1,0-4h6A1.989,1.989,0,0,1,1517.684,711.871Z" transform="translate(-1507.97 -709.55)"/></g><g transform="translate(5.991 41.252)"><path class="a" d="M1505.918,724.588a1.989,1.989,0,0,1-2,2h-5a2,2,0,0,1,0-4h5A1.989,1.989,0,0,1,1505.918,724.588Z" transform="translate(-1496.91 -722.84)"/></g><g transform="translate(115.592 12.195)"><path class="f" d="M1613.627,694.2c-5.311,0-9,4.689-9,10a8.6,8.6,0,0,0,9,9c5.3-.01,10-3.7,10-9A10.284,10.284,0,0,0,1613.627,694.2Zm4,14c-1.052,1.052-2.509,1-4,1a4.634,4.634,0,0,1-5-5c.01-2.829,1.273-5.622,4-6h1a6.328,6.328,0,0,1,6,6A6.03,6.03,0,0,1,1617.627,708.2Z" transform="translate(-1604.22 -694.39)"/></g><g transform="translate(53.736 30.763)"><path class="a" d="M1575.92,714.807a1.989,1.989,0,0,1-2,2h0c-10.132,0-20.085,3.585-27,11-.368.388-.459.98-1,1s-1.612.368-2,0a2.2,2.2,0,0,1,0-3,41.714,41.714,0,0,1,30-13A2,2,0,0,1,1575.92,714.807Z" transform="translate(-1543.656 -712.57)"/></g><g transform="translate(50.839 78.562)"><path class="a" d="M1544.98,761.808a2,2,0,0,1-2,2h0a1.989,1.989,0,0,1-2-2c0-.541-.388-1.622,0-2s1.469,0,2,0h0A2,2,0,0,1,1544.98,761.808Z" transform="translate(-1540.82 -759.37)"/></g><g transform="translate(115.112 78.562)"><path class="a" d="M1607.639,761.808a1.989,1.989,0,0,1-2,2h0a1.989,1.989,0,0,1-2-2,4.088,4.088,0,0,1,1-2c.388-.378.459,0,1,0h0A2,2,0,0,1,1607.639,761.808Z" transform="translate(-1603.75 -759.37)"/></g><g transform="translate(8.218 0)"><path class="a" d="M1628.873,752.45h-1v-1a53.957,53.957,0,0,0-4-18h0c.031-.041,2.448-3.285,3-4,5.587-7.344,11.112-14.531,11-25a22.161,22.161,0,0,0-22-22h0c-11.9,0-21.888,10.091-22,22v1l-1-1a50.223,50.223,0,0,0-7-2h-1l1-1c1.685-5.8-2.2-11.325-8-13a10.1,10.1,0,0,0-13,7,10.523,10.523,0,0,0,0,6v1h-1c-6.271,1.358-11.618,4.5-17,8h-16a2,2,0,0,0,0,4h10l-2,1a54.352,54.352,0,0,0-7,8h-15a2,2,0,0,0,0,4h13l-1,1a56.759,56.759,0,0,0-4,8v1h-24a2,2,0,0,0,0,4h23v1a48.485,48.485,0,0,0-1,9l-1,1h0a8.856,8.856,0,0,0-7,10c.695,4.024,3.925,6,8,6h7v1a14.911,14.911,0,0,0,20,7c3.258-1.5,6.5-3.742,8-7v-1h6a2,2,0,0,0,0-4h-5c.02-.347,0-.653,0-1a16.4,16.4,0,0,0-1-6l-1-1h38l-1,1a16.392,16.392,0,0,0-1,6c0,.347-.02.663,0,1h-4c-1.113,0-3,.887-3,2s1.887,2,3,2h5v1a16.2,16.2,0,0,0,9,8c3.789,1.4,7.333.7,11-1,3.258-1.5,6.488-3.742,8-7v-1h7a7.771,7.771,0,0,0,8-8A7.9,7.9,0,0,0,1628.873,752.45Zm-30-53a18.656,18.656,0,0,1,13-12c7.1-1.808,15.18.749,19,7,3.6,5.893,3.666,13.627,1,20s-7.455,11.8-12,17a30.787,30.787,0,0,1-3,3c-.276.235-.642-.01-1,0-.49.02-.673.358-1,0a109.125,109.125,0,0,1-12-15c-2.839-4.555-5.1-9.526-5-15A17.06,17.06,0,0,1,1598.873,699.45Zm-27-7a9.283,9.283,0,0,1,3-1h0a6.835,6.835,0,0,1,7,7c0,.929.358,2.142,0,3h-1a52.109,52.109,0,0,0-11,0h-1C1567.392,697.927,1568.36,693.941,1571.873,692.45Zm-42,65a16.218,16.218,0,0,0-1,6c0,.358-.02.663,0,1h-6a4,4,0,0,1,0-8h7Zm15,17h-1a11,11,0,1,1,11-11A10.789,10.789,0,0,1,1544.873,774.45Zm9-22c-.05-.017.05-.981,0-1a7.534,7.534,0,0,1-2-1c-3.827-2.891-8.54-2.762-13-1-2,.789-4.008,1.2-6,2s-4.029,1.85-6,1c.383-4.238.7-8.93,2-13,1.17-3.663,2.016-6.707,4-10a48.44,48.44,0,0,1,16-16c.457-.286,1.534-.73,2-1,12.568-7.269,28.451-9.216,42-4a5.294,5.294,0,0,1,2,1c.4.466-.171,1.414,0,2,2.42,8.362,8.481,15.269,14,22,1.53,1.867,2.787,4.036,5,5s5.714.043,7-2a51.727,51.727,0,0,1,3,16h-6c-4.834-4.844-12.435-5.982-18-2a7.63,7.63,0,0,1-2,1,11.309,11.309,0,0,1-3,1h-38A12.49,12.49,0,0,1,1553.873,752.45Zm55,22h-1a11,11,0,1,1,11-11A10.8,10.8,0,0,1,1608.873,774.45Zm20-10h-6c.021-.347,0-.653,0-1a16.356,16.356,0,0,0-1-6v-1h7a4,4,0,0,1,0,8Z" transform="translate(-1499.09 -682.45)"/></g><g transform="translate(82.981 82.443)"><path class="a" d="M1576.309,764.727a4.045,4.045,0,0,1-1,2c-.378.378-.459,0-1,0a2,2,0,0,1,0-4h0c.531,0,.622.612,1,1S1576.309,764.185,1576.309,764.727Z" transform="translate(-1572.29 -763.17)"/></g></g></g></g></svg>