<svg xmlns="http://www.w3.org/2000/svg" width="105" height="73" viewBox="0 0 105 73"><defs><style>.a,.b,.c{fill:#fff;}.a{opacity:0.35;}.b,.c{fill-rule:evenodd;}.b{opacity:0.3;}</style></defs><g transform="translate(-641 -1031)"><circle class="a" cx="23" cy="23" r="23" transform="translate(641 1058)"/><ellipse class="a" cx="15.5" cy="16" rx="15.5" ry="16" transform="translate(715 1045)"/><path class="b" d="M43.5,20.835a7.75,7.75,0,0,1-8-8c0-4.625,3.375-9,8-9a9.483,9.483,0,0,1,9,9C52.5,17.46,48.125,20.835,43.5,20.835Zm-37,42h75a4,4,0,0,1,0,8H6.5a4,4,0,0,1,0-8Z" transform="translate(653.5 1027.165)"/><path class="c" d="M78.313,44.273c0-20.811-17.189-37-38-37a36.528,36.528,0,0,0-37,37Z" transform="translate(656.688 1036.727)"/></g></svg>