<svg xmlns="http://www.w3.org/2000/svg" width="114" height="85" viewBox="0 0 114 85"><defs><style>.a,.c,.d{fill:#fff;}.a,.d{opacity:0.35;}.b{fill:none;}.c,.d{fill-rule:evenodd;}</style></defs><g transform="translate(-1318 -1019)"><ellipse class="a" cx="16" cy="15.5" rx="16" ry="15.5" transform="translate(1400 1054)"/><circle class="a" cx="22.5" cy="22.5" r="22.5" transform="translate(1318 1059)"/><rect class="b" width="75" height="75" transform="translate(1341 1019)"/><path class="c" d="M2.752,31.924h76a17.185,17.185,0,0,1-17,17h-42A17.185,17.185,0,0,1,2.752,31.924Zm0-21h76v4a9.484,9.484,0,0,1-9,9h-58a9.484,9.484,0,0,1-9-9Z" transform="translate(1335.248 1051.076)"/><path class="d" d="M2.752,5.039h76v8a9.484,9.484,0,0,1-9,9h-58a9.484,9.484,0,0,1-9-9Z" transform="translate(1335.248 1031.961)"/></g></svg>