<svg xmlns="http://www.w3.org/2000/svg" width="501" height="166" viewBox="0 0 501 166"><defs><style>.a{opacity:0.4;}.b{fill:#1b2749;}</style></defs><g transform="translate(-143 -5082)"><g class="a" transform="translate(143 5061.779)"><path class="b" d="M43,0H458a43,43,0,0,1,43,43V161a0,0,0,0,1,0,0H0a0,0,0,0,1,0,0V43A43,43,0,0,1,43,0Z" transform="translate(0 20.221)"/></g><g transform="translate(143 5066.779)"><path class="b" d="M43,0H458a43,43,0,0,1,43,43V161a0,0,0,0,1,0,0H0a0,0,0,0,1,0,0V43A43,43,0,0,1,43,0Z" transform="translate(0 20.221)"/></g></g></svg>