<svg xmlns="http://www.w3.org/2000/svg" width="107" height="101" viewBox="0 0 107 101"><defs><style>.a{fill:none;}.b,.c,.d{fill:#fff;}.b{opacity:0.35;}.c,.d{fill-rule:evenodd;}.c{opacity:0.3;}</style></defs><g transform="translate(-1050 -1014)"><rect class="a" width="101" height="101" transform="translate(1056 1014)"/><g transform="translate(409)"><circle class="b" cx="23" cy="23" r="23" transform="translate(641 1058)"/><ellipse class="b" cx="15.5" cy="16" rx="15.5" ry="16" transform="translate(715 1045)"/><path class="c" d="M43.5,20.835a7.75,7.75,0,0,1-8-8c0-4.625,3.375-9,8-9a9.483,9.483,0,0,1,9,9C52.5,17.46,48.125,20.835,43.5,20.835Zm-37,42h75a4,4,0,0,1,0,8H6.5a4,4,0,0,1,0-8Z" transform="translate(653.5 1027.165)"/><path class="d" d="M78.313,44.273c0-20.811-17.189-37-38-37a36.528,36.528,0,0,0-37,37Z" transform="translate(656.688 1036.727)"/></g></g></svg>