<svg xmlns="http://www.w3.org/2000/svg" width="50.152" height="60.55" viewBox="0 0 50.152 60.55"><defs><style>.a{fill:#fff;}</style></defs><g transform="translate(0 0)"><path class="a" d="M8.1,45.475A8.113,8.113,0,1,0,0,37.355,8.116,8.116,0,0,0,8.1,45.475Zm0-12.457a4.337,4.337,0,1,1-4.337,4.337A4.342,4.342,0,0,1,8.1,33.018Z" transform="translate(4.368 -29.25)"/><path class="a" d="M8.1,208.36A8.105,8.105,0,1,0,0,200.255,8.116,8.116,0,0,0,8.1,208.36Zm0-12.442a4.337,4.337,0,1,1-4.337,4.337A4.342,4.342,0,0,1,8.1,195.918Z" transform="translate(17.902 -169.98)"/><path class="a" d="M8.1,371.26a8.1,8.1,0,1,0-8.1-8.1A8.116,8.116,0,0,0,8.1,371.26Zm0-12.457a4.337,4.337,0,1,1-4.337,4.337A4.342,4.342,0,0,1,8.1,358.8Z" transform="translate(30.205 -310.71)"/><path class="a" d="M165.492,73.433h46.369a1.892,1.892,0,0,0,0-3.783H165.492a1.892,1.892,0,1,0,0,3.783Z" transform="translate(-163.6 -63.437)"/><path class="a" d="M165.492,236.333h46.369a1.892,1.892,0,0,0,0-3.783H165.492a1.892,1.892,0,1,0,0,3.783Z" transform="translate(-163.6 -204.166)"/><path class="a" d="M165.492,399.133h46.369a1.892,1.892,0,0,0,0-3.783H165.492a1.892,1.892,0,0,0,0,3.783Z" transform="translate(-163.6 -344.812)"/></g></svg>