<svg xmlns="http://www.w3.org/2000/svg" width="272" height="78" viewBox="0 0 272 78"><defs><style>.a,.f{fill:none;}.a{stroke:#fff;stroke-width:2px;}.b,.c,.d{fill:#fff;}.c{font-size:16px;font-family:Montserrat-Medium, Montserrat;font-weight:500;}.c,.d{letter-spacing:-0.016em;}.d{font-size:23px;font-family:Montserrat-SemiBold, Montserrat;font-weight:600;}.e{stroke:none;}</style></defs><g transform="translate(-1259 -6018)"><g class="a" transform="translate(1259 6018)"><rect class="e" width="272" height="78" rx="14"/><rect class="f" x="1" y="1" width="270" height="76" rx="13"/></g><g transform="translate(1288 6026.953)"><path class="b" d="M62.021,161.783c-8.541-.049-16-17.121-16-26,0-14.5,10.807-18,15-18,1.89,0,4.22,1.343,6,2a12.225,12.225,0,0,0,3,1c.429,0,1.108-.647,2-1,1.9-.757,4.245-2,7-2h0c2.057,0,8.25.368,12,6l1,2-1,1c-1.806,1.363-5,3.076-5,8,0,5.832,3.207,7.921,5,9,.791.476,2,.926,2,2,0,.7-5.874,16-14,16a8.215,8.215,0,0,1-4-1,8.835,8.835,0,0,0-4-1,15.433,15.433,0,0,0-4,1,12.494,12.494,0,0,1-5,1Z" transform="translate(-46.022 -104.736)"/><path class="b" d="M265.713.047c.212,7.63-4.549,13.332-10,13C254.815,6.958,260.467.047,265.713.047Z" transform="translate(-231.713)"/></g><text class="c" transform="translate(1364 6048)"><tspan x="0" y="0">Download on the</tspan></text><text class="d" transform="translate(1364 6078)"><tspan x="0" y="0">App Store</tspan></text></g></svg>