<svg xmlns="http://www.w3.org/2000/svg" xmlns:xlink="http://www.w3.org/1999/xlink" width="295" height="268" viewBox="0 0 295 268"><defs><style>.a{fill:#1b2749;}.b{fill:#fff;}.c,.d,.e{fill:#fba266;}.c{opacity:0.18;}.d{opacity:0.26;}.f{filter:url(#a);}</style><filter id="a" x="0" y="17" width="295" height="219" filterUnits="userSpaceOnUse"><feOffset dy="3" input="SourceAlpha"/><feGaussianBlur stdDeviation="15" result="b"/><feFlood flood-opacity="0.161"/><feComposite operator="in" in2="b"/><feComposite in="SourceGraphic"/></filter></defs><g transform="translate(-812 -4713)"><g transform="translate(882.66 4713.229)"><g transform="translate(0 0)"><path class="a" d="M1431.633-475.479h-115c-10.8,0-19,9.2-19,20v228c0,10.8,8.2,20,19,20h115a20.319,20.319,0,0,0,20-20v-228A20.319,20.319,0,0,0,1431.633-475.479Zm12,213h-111a4.059,4.059,0,0,0-4,4,4.059,4.059,0,0,0,4,4h111v27a12.191,12.191,0,0,1-12,12h-115a12.191,12.191,0,0,1-12-12v-27h12a4.059,4.059,0,0,0,4-4,4.059,4.059,0,0,0-4-4h-12v-174h139Zm0-181h-139v-12a12.191,12.191,0,0,1,12-12h115a12.191,12.191,0,0,1,12,12Z" transform="translate(-1297.292 475.25)"/></g></g><g transform="translate(954.717 4730.654)"><g transform="translate(0 0)"><path class="a" d="M1454.494-441.549h-15a4.059,4.059,0,0,0-4,4c0,2.164,1.836,3,4,3h15c2.164,0,4-.836,4-3A4.059,4.059,0,0,0,1454.494-441.549Z" transform="translate(-1435.211 441.895)"/></g></g><g transform="translate(946.879 4943.296)"><g transform="translate(0 0)"><path class="a" d="M1432.332-35.191a12.191,12.191,0,0,0-12,12,12.191,12.191,0,0,0,12,12c6.482,0,11-5.518,11-12S1438.814-35.191,1432.332-35.191Zm0,16a4.063,4.063,0,0,1-4-4,4.063,4.063,0,0,1,4-4,4.063,4.063,0,0,1,4,4A4.063,4.063,0,0,1,1432.332-19.191Z" transform="translate(-1420.211 34.895)"/></g></g><g transform="translate(939.043 4730.654)"><g transform="translate(0 0)"><ellipse class="a" cx="4" cy="3.5" rx="4" ry="3.5" transform="translate(-0.043 0.346)"/></g></g><g class="f" transform="matrix(1, 0, 0, 1, 812, 4713)"><path class="b" d="M12.934.213h180c6.969,0,12,6.149,12,14v101c0,7.851-5.031,14-12,14h-180c-6.969,0-13-6.149-13-14v-101C-.066,6.362,5.965.213,12.934.213Z" transform="translate(45.07 58.79)"/></g><circle class="c" cx="33.5" cy="33.5" r="33.5" transform="translate(885 4812)"/><circle class="d" cx="23" cy="23" r="23" transform="translate(987 4799)"/><g transform="translate(-2 -1450.528)"><g transform="translate(913.97 6238.528)"><path class="e" d="M449.682,936.46h78l1,3h-42l-4,4-4,2-9,1-11-1-6-4Z" transform="translate(-445.651 -916.46)"/><path class="e" d="M515.105,1065.7l1-9v-2h64l-2,5-45-1-7,2-6,5Z" transform="translate(-499.075 -1011.703)"/><path class="e" d="M785.482,859.071l-10-10-7-4-10-2h-1v7a21.245,21.245,0,0,1,11,3c1.538,1.189,3.461,2.811,5,4a22.842,22.842,0,0,1,6,10l1,6a18,18,0,0,1-2,9,26.163,26.163,0,0,1-12,12,18.518,18.518,0,0,1-9,2v30h0l20-26,9-16,2-12Z" transform="translate(-694.453 -841.071)"/><path class="e" d="M497.988,1181.738l-6-8h-32v-13h-9v13h-12v9h61A2.016,2.016,0,0,1,497.988,1181.738Z" transform="translate(-436.958 -1097.738)"/><path class="e" d="M761.318,1233.4c-.543.8-2.036,1-3,1h13v9h9v-9h9v-9h-23Z" transform="translate(-695.288 -1149.404)"/><path class="a" d="M813.686,1119.5l2-3,2,1-2,3Z" transform="translate(-739.656 -1061.498)"/><path class="a" d="M520.529,882.95a32.272,32.272,0,0,0,6-18c0-17.758-15.242-32-33-32h0a31.137,31.137,0,0,0-27,15h-36v4h0a19.876,19.876,0,0,0,18,12h13c-.02.458,0,.542,0,1a34.927,34.927,0,0,0,1,8,11.709,11.709,0,0,1-5-3c-2.28-2.282-4.776-3-8-3h-19v3h15v3h-15v3h15v3h-15v3h15v3h-15v4h19c3.224,0,5.72-1.72,8-4a10.867,10.867,0,0,1,7-3h2c.2.318-.213.689,0,1l8,12h-44v34h96v-34h-14Zm-87-31h75a17.048,17.048,0,0,1,2,3h-39l-4,3c-1.455,1.455-2.94,3-5,3h-14a16.5,16.5,0,0,1-15-9Zm50-4a17.652,17.652,0,0,1,10-3,21.112,21.112,0,0,1,11,3Zm29,25h-37a21.761,21.761,0,0,1-2-8c0-2.684.978-4.558,2-7h37c.993,2.375,1,4.27,1,7S513.522,870.576,512.529,872.95Zm-47,0a29.781,29.781,0,0,1-1-8c0-.549-.031-.453,0-1a10.128,10.128,0,0,0,5-3l2-2a19.77,19.77,0,0,0-1,6,24.453,24.453,0,0,0,1,8Zm-10,10c-1.7,1.7-3.6,2-6,2h-1v-15h1c2.4,0,4.3,1.3,6,3,2.28,2.28,5.776,3,9,3h46a17.055,17.055,0,0,1-2,3h-44A13.569,13.569,0,0,0,455.529,882.95Zm49-1a21.119,21.119,0,0,1-11,3,17.65,17.65,0,0,1-10-3Zm-27,0c4.286,3.97,10.134,7,16,7,12.752,0,23-11.248,23-24a22.937,22.937,0,0,0-23-23,23.584,23.584,0,0,0-16,6h-8a29.316,29.316,0,0,1,24-12h0a28.948,28.948,0,0,1,29,29,31.081,31.081,0,0,1-5,17l-23,34a1.171,1.171,0,0,1-2,0l-23-34Zm45,16v28h-89v-28h43l13,19a5,5,0,0,0,8,0l13-19Z" transform="translate(-430.5 -832.95)"/><path class="a" d="M753.537,1162.372l10-14,2,1-9,14Z" transform="translate(-691.507 -1087.372)"/><path class="a" d="M686.275,1128.207l3-1,2,2-3,2Z" transform="translate(-637.244 -1070.207)"/><path class="a" d="M668.764,1102.189l2-1,2,2-2,2Z" transform="translate(-622.734 -1049.189)"/><path class="a" d="M704.764,1155.975l2-2,2,2-2,2Z" transform="translate(-651.734 -1091.974)"/><path class="a" d="M702.111,977.2h3v3h-3Z" transform="translate(-650.08 -949.198)"/><path class="a" d="M670.277,977.2h3v3h-3Z" transform="translate(-624.247 -949.198)"/><path class="a" d="M734.943,977.2h3v3h-3Z" transform="translate(-675.913 -949.198)"/><path class="a" d="M830.443,1009.031h3v3h-3Z" transform="translate(-753.412 -975.031)"/><path class="a" d="M798.609,1009.031h3v3h-3Z" transform="translate(-727.579 -975.031)"/><path class="a" d="M766.777,1009.031h3v3h-3Z" transform="translate(-701.746 -975.031)"/></g></g></g></svg>