<svg xmlns="http://www.w3.org/2000/svg" xmlns:xlink="http://www.w3.org/1999/xlink" width="271" height="78" viewBox="0 0 271 78"><defs><style>.a,.l{fill:none;}.a{stroke:#fff;stroke-width:2px;}.b,.c,.j{fill:#fff;}.b{font-size:16px;font-family:Montserrat-Medium, Montserrat;font-weight:500;}.b,.c{letter-spacing:-0.016em;}.c{font-size:24px;font-family:Montserrat-SemiBold, Montserrat;font-weight:600;}.d{fill:url(#a);}.e{fill:url(#b);}.f{fill:url(#c);}.g{fill:url(#d);}.h{opacity:0.2;}.i{opacity:0.12;}.j{opacity:0.25;}.k{stroke:none;}</style><linearGradient id="a" x1="0.914" y1="0.05" x2="-0.384" y2="0.719" gradientUnits="objectBoundingBox"><stop offset="0" stop-color="#00a0ff"/><stop offset="0.007" stop-color="#00a1ff"/><stop offset="0.26" stop-color="#00beff"/><stop offset="0.512" stop-color="#00d2ff"/><stop offset="0.76" stop-color="#00dfff"/><stop offset="1" stop-color="#00e3ff"/></linearGradient><linearGradient id="b" x1="1.074" y1="0.501" x2="-1.304" y2="0.501" gradientUnits="objectBoundingBox"><stop offset="0" stop-color="#ffe000"/><stop offset="0.409" stop-color="#ffbd00"/><stop offset="0.775" stop-color="orange"/><stop offset="1" stop-color="#ff9c00"/></linearGradient><linearGradient id="c" x1="0.862" y1="0.179" x2="-0.501" y2="1.948" gradientUnits="objectBoundingBox"><stop offset="0" stop-color="#ff3a44"/><stop offset="1" stop-color="#c31162"/></linearGradient><linearGradient id="d" x1="-0.188" y1="-0.543" x2="0.421" y2="0.248" gradientUnits="objectBoundingBox"><stop offset="0" stop-color="#32a071"/><stop offset="0.069" stop-color="#2da771"/><stop offset="0.476" stop-color="#15cf74"/><stop offset="0.801" stop-color="#06e775"/><stop offset="1" stop-color="#00f076"/></linearGradient></defs><g transform="translate(-953 -6149)"><g class="a" transform="translate(953 6149)"><rect class="k" width="271" height="78" rx="10"/><rect class="l" x="1" y="1" width="269" height="76" rx="9"/></g><text class="b" transform="translate(1053 6177)"><tspan x="0" y="0">GET IT ON</tspan></text><text class="c" transform="translate(1053 6209)"><tspan x="0" y="0">Google Play</tspan></text><g transform="translate(952.586 6102.879)"><path class="d" d="M25.469,56.716a4.508,4.508,0,0,0-1.054,3.163v49.854a4.508,4.508,0,0,0,1.054,3.163l.165.165L53.575,85.119V84.46L25.634,56.519Z" transform="translate(0 0.323)"/><path class="e" d="M49.795,86.1,40.5,76.774v-.659l9.325-9.325.2.132,11.038,6.261c3.163,1.779,3.163,4.712,0,6.524L50.025,85.967Z" transform="translate(13.072 8.669)"/><path class="f" d="M62.625,81.639,53.1,72.116,25,100.223c1.021,1.087,2.768,1.252,4.679.132l32.95-18.716" transform="translate(0.473 12.996)"/><path class="g" d="M62.625,75.608,29.675,56.892c-1.944-1.087-3.657-.956-4.679.132L53.1,85.131Z" transform="translate(0.473 0.015)"/><path class="h" d="M62.395,77.261,29.675,95.845c-1.845,1.054-3.46.989-4.514.033L25,96.042l.165.165c1.054.956,2.7,1.021,4.514-.033l32.95-18.716Z" transform="translate(0.473 17.177)"/><path class="i" d="M25.469,99.893a4.508,4.508,0,0,1-1.054-3.163v.329a4.508,4.508,0,0,0,1.054,3.163l.165-.165ZM74.1,75.049,62.867,81.441l.2.2L74.1,75.378c1.582-.89,2.372-2.076,2.372-3.262A4.152,4.152,0,0,1,74.1,75.049Z" transform="translate(0 12.996)"/><path class="j" d="M30.148,57.2,74.1,82.18a4.237,4.237,0,0,1,2.372,2.933c0-1.186-.791-2.372-2.372-3.262L30.148,56.874c-3.163-1.779-5.733-.3-5.733,3.3V60.5C24.414,56.907,26.985,55.425,30.148,57.2Z" transform="translate(0 0)"/></g></g></svg>