<svg xmlns="http://www.w3.org/2000/svg" xmlns:xlink="http://www.w3.org/1999/xlink" width="295" height="268" viewBox="0 0 295 268"><defs><style>.a{fill:#1b2749;}.b,.g{fill:#fff;}.c,.d,.e{fill:#fba266;}.c{opacity:0.18;}.d{opacity:0.26;}.e,.f,.g{fill-rule:evenodd;}.f{fill:#f86400;opacity:0.6;}.h{filter:url(#a);}</style><filter id="a" x="0" y="17" width="295" height="219" filterUnits="userSpaceOnUse"><feOffset dy="3" input="SourceAlpha"/><feGaussianBlur stdDeviation="15" result="b"/><feFlood flood-opacity="0.161"/><feComposite operator="in" in2="b"/><feComposite in="SourceGraphic"/></filter></defs><g transform="translate(-244 -4713)"><g transform="translate(314.66 4713.229)"><g transform="translate(0 0)"><path class="a" d="M1431.633-475.479h-115c-10.8,0-19,9.2-19,20v228c0,10.8,8.2,20,19,20h115a20.319,20.319,0,0,0,20-20v-228A20.319,20.319,0,0,0,1431.633-475.479Zm12,213h-111a4.059,4.059,0,0,0-4,4,4.059,4.059,0,0,0,4,4h111v27a12.191,12.191,0,0,1-12,12h-115a12.191,12.191,0,0,1-12-12v-27h12a4.059,4.059,0,0,0,4-4,4.059,4.059,0,0,0-4-4h-12v-174h139Zm0-181h-139v-12a12.191,12.191,0,0,1,12-12h115a12.191,12.191,0,0,1,12,12Z" transform="translate(-1297.292 475.25)"/></g></g><g transform="translate(386.717 4730.654)"><g transform="translate(0 0)"><path class="a" d="M1454.494-441.549h-15a4.059,4.059,0,0,0-4,4c0,2.164,1.836,3,4,3h15c2.164,0,4-.836,4-3A4.059,4.059,0,0,0,1454.494-441.549Z" transform="translate(-1435.211 441.895)"/></g></g><g transform="translate(378.879 4943.296)"><g transform="translate(0 0)"><path class="a" d="M1432.332-35.191a12.191,12.191,0,0,0-12,12,12.191,12.191,0,0,0,12,12c6.482,0,11-5.518,11-12S1438.814-35.191,1432.332-35.191Zm0,16a4.063,4.063,0,0,1-4-4,4.063,4.063,0,0,1,4-4,4.063,4.063,0,0,1,4,4A4.063,4.063,0,0,1,1432.332-19.191Z" transform="translate(-1420.211 34.895)"/></g></g><g transform="translate(371.043 4730.654)"><g transform="translate(0 0)"><ellipse class="a" cx="4" cy="3.5" rx="4" ry="3.5" transform="translate(-0.043 0.346)"/></g></g><g class="h" transform="matrix(1, 0, 0, 1, 244, 4713)"><path class="b" d="M12.934.213h180c6.969,0,12,6.149,12,14v101c0,7.851-5.031,14-12,14h-180c-6.969,0-13-6.149-13-14v-101C-.066,6.362,5.965.213,12.934.213Z" transform="translate(45.07 58.79)"/></g><circle class="c" cx="33.5" cy="33.5" r="33.5" transform="translate(317 4812)"/><circle class="d" cx="23" cy="23" r="23" transform="translate(419 4799)"/><path class="e" d="M1492.551-251.654a4.875,4.875,0,0,0-5,5v5h35v-45h-5a4.875,4.875,0,0,0-5,5v30Z" transform="translate(-1073.551 5098.654)"/><path class="f" d="M1334.516-286.654v45h35v-5a4.875,4.875,0,0,0-5-5h-19v-30c0-2.864-3.137-5-6-5Z" transform="translate(-1000.516 5098.654)"/><path class="e" d="M1430.553-237.684v38c0,2.864-3.137,5-6,5h21a4.875,4.875,0,0,1-5-5v-38c0-2.863,2.137-6,5-6h-21C1427.416-243.684,1430.553-240.547,1430.553-237.684Z" transform="translate(-1043.553 5077.684)"/><path class="e" d="M1374.549-263.2v10h73v-10Z" transform="translate(-1019.549 5087.2)"/><path class="e" d="M1426.773-314.732a20.072,20.072,0,0,0-20,20h40a20.072,20.072,0,0,0-20-20Z" transform="translate(-1034.773 5111.732)"/><path class="g" d="M1334.516-286.654h5v45h-5Z" transform="translate(-1000.516 5098.654)"/><path class="g" d="M1430.553-237.684v38c0,2.864-3.137,5-6,5h6a4.875,4.875,0,0,0,5-5v-38c0-2.863-2.136-6-5-6h-6C1427.416-243.684,1430.553-240.547,1430.553-237.684Z" transform="translate(-1043.553 5077.684)"/><path class="g" d="M1492.551-251.654a4.875,4.875,0,0,0-5,5v5h5v-5c0-2.863,3.137-5,6-5Zm30-35h-5a4.875,4.875,0,0,0-5,5v30h5v-30A4.875,4.875,0,0,1,1522.551-286.654Z" transform="translate(-1073.551 5098.654)"/><path class="g" d="M1374.549-263.2h5v10h-5Z" transform="translate(-1019.549 5087.2)"/><path class="g" d="M1426.773-314.732a20.072,20.072,0,0,0-20,20h5c0-10.108,7.241-18.724,17-20a12.062,12.062,0,0,0-2,0Z" transform="translate(-1034.773 5111.732)"/><g transform="translate(385.551 4802.529)"><path class="b" d="M1448.428-295.855a11.1,11.1,0,0,0-8-5l1-3c4.3.574,7.663,2.322,10,6Zm-14-4-1-3a13.727,13.727,0,0,1,4-1v3A10.588,10.588,0,0,0,1434.428-299.855Z" transform="translate(-1432.978 304.326)"/></g><path class="a" d="M1483.965-173.65h4v-11h31v11h4v-30h-39Zm35-26v12h-31v-12Z" transform="translate(-1071.965 5058.65)"/><path class="a" d="M1483.965-233.613h4c0-1.914,1.086-4,3-4h25v-3h-3v-19h-4v19h-18A7.049,7.049,0,0,0,1483.965-233.613Z" transform="translate(-1071.965 5085.613)"/><path class="a" d="M1538.521-290.24a7.05,7.05,0,0,0-7,7v5h4v-5c0-1.914,1.086-4,3-4h3v39h4v-42Z" transform="translate(-1094.521 5100.24)"/><path class="a" d="M1334.93-287.24h3a4.449,4.449,0,0,1,4,4v5h3v-5a7.05,7.05,0,0,0-7-7h-7v42h4Z" transform="translate(-998.93 5100.24)"/><path class="a" d="M1369.273-240.614h-18v-19h-3v19h-4v3h25a4.449,4.449,0,0,1,4,4h3A7.05,7.05,0,0,0,1369.273-240.614Z" transform="translate(-1005.273 5085.614)"/><path class="a" d="M1330.93-173.65h4v-11h32v11h3v-30h-39Zm36-26v12h-32v-12Z" transform="translate(-998.93 5058.65)"/><path class="a" d="M1416.963-210.787v-38c0-1.914,1.086-4,3-4h28v-14h-37v4h34v7h-70v-7h33v-4h-37v14h28a4.449,4.449,0,0,1,4,4v38c0,1.914-2.086,3-4,3h-7v4h35v-4h-7A2.724,2.724,0,0,1,1416.963-210.787Zm-12-42h9a9.063,9.063,0,0,0-1,4v38a5.338,5.338,0,0,0,1,3h-9a5.338,5.338,0,0,0,1-3v-38a9.061,9.061,0,0,0-1-4Z" transform="translate(-1017.963 5088.787)"/><path class="a" d="M1446.428-304.664h-5c-.841-10.548-9.452-18.159-20-19v-4h4v-3h-11v3h4v4c-5.547.448-11.279,2.8-15,7l3,2a18.918,18.918,0,0,1,14-6,17.745,17.745,0,0,1,18,16h-36a14.4,14.4,0,0,1,2-7l-3-2a19.189,19.189,0,0,0-3,9h-5v4h53Z" transform="translate(-1028.428 5119.664)"/></g></svg>