<svg xmlns="http://www.w3.org/2000/svg" width="99" height="71" viewBox="0 0 99 71"><defs><style>.a,.b{fill:#1b2749;}.a{opacity:0.35;}.b,.c{fill-rule:evenodd;}.c{fill:#d1d2d6;}</style></defs><g transform="translate(-1176 -1033)"><circle class="a" cx="22.5" cy="22.5" r="22.5" transform="translate(1176 1059)"/><ellipse class="a" cx="15.5" cy="16" rx="15.5" ry="16" transform="translate(1244 1040)"/><path class="b" d="M10.932,3.539h47c2.029,0,2.881,1.974,3,4l4,53c.249,4.226-3.774,8.751-8,9-.15.009.15,0,0,0h-45a8.249,8.249,0,0,1-8-8c0-.15-.009-.85,0-1l3-53A4.354,4.354,0,0,1,10.932,3.539Z" transform="translate(1192.068 1029.461)"/><path class="c" d="M6.777,7.042h8a10.666,10.666,0,0,0,11,11c6.35,0,12-4.65,12-11h8c0,10.583-9.417,19-20,19A18.886,18.886,0,0,1,6.777,7.042Z" transform="translate(1200.223 1037.958)"/></g></svg>