<svg xmlns="http://www.w3.org/2000/svg" width="21.104" height="14.246" viewBox="0 0 21.104 14.246"><defs><style>.a{fill:#1b2749;}</style></defs><path class="a" d="M.072,17.052V5.33q0-.02.061-.387l6.9,5.9L.153,17.459a1.725,1.725,0,0,1-.081-.407ZM.988,4.129a.877.877,0,0,1,.346-.061h18.58a1.152,1.152,0,0,1,.366.061l-6.919,5.922-.916.733-1.811,1.486L8.823,10.784l-.916-.733Zm.02,14.123L7.948,11.6l2.686,2.178L13.32,11.6l6.94,6.655a.977.977,0,0,1-.346.061H1.334a.922.922,0,0,1-.326-.061Zm13.228-7.408,6.879-5.9a1.215,1.215,0,0,1,.061.387V17.052a1.56,1.56,0,0,1-.061.407Z" transform="translate(-0.072 -4.068)"/></svg>