<svg xmlns="http://www.w3.org/2000/svg" width="24" height="36" viewBox="0 0 24 36"><defs><style>.a{fill:#1b2749;}</style></defs><path class="a" d="M12.139,24.9a7.218,7.218,0,0,0,7-7V6.9a7.218,7.218,0,0,0-7-7,7.218,7.218,0,0,0-7,7v11A7.218,7.218,0,0,0,12.139,24.9Zm11-11h-1a.927.927,0,0,0-1,1v3a9.168,9.168,0,0,1-10,9,8.882,8.882,0,0,1-8-9v-3a.927.927,0,0,0-1-1h-1a.927.927,0,0,0-1,1v2c0,6.263,3.85,12.152,10,13v3h-3c-.618,0-2,.382-2,1v1c0,.618,1.382,1,2,1h11a.927.927,0,0,0,1-1v-1a.927.927,0,0,0-1-1h-4v-3c5.988-.822,10-5.789,10-12v-3A.927.927,0,0,0,23.139,13.9Z" transform="translate(-0.139 0.097)"/></svg>