<svg xmlns="http://www.w3.org/2000/svg" width="26.338" height="27" viewBox="0 0 26.338 27"><defs><style>.a{fill:#aeb0b1;}</style></defs><path class="a" d="M30.7,29.8l-7-8a11.306,11.306,0,0,0,2-7c0-5.941-4.052-10-10-10s-11,4.059-11,10a11.171,11.171,0,0,0,11,11,8.366,8.366,0,0,0,6-2l8,7c.225.239.7,1,1,1s-.218-.789,0-1C31.167,30.362,31.139,30.269,30.7,29.8Zm-15-6c-2.257,0-4.4-1.4-6-3s-3-3.75-3-6,1.4-4.411,3-6,3.743-2,6-2,4.4.4,6,2,2,3.75,2,6-.4,4.411-2,6S17.96,23.8,15.7,23.8Z" transform="translate(-4.703 -4.805)"/></svg>