<svg xmlns="http://www.w3.org/2000/svg" width="23" height="22" viewBox="0 0 23 22"><defs><style>.a{fill:none;}.b{fill:#1b2749;fill-rule:evenodd;}</style></defs><g transform="translate(0.385 -0.268)"><rect class="a" width="23" height="22" transform="translate(-0.385 0.268)"/><path class="b" d="M9.977,15.484c-2.6-.848-5-3.116-5-6,0-3.587,3.413-6,7-6a5.682,5.682,0,0,1,6,6c0,2.884-1.4,5.152-4,6l-2,4Zm2-4c1.025,0,1-.975,1-2s.025-2-1-2a2.112,2.112,0,0,0-2,2A2.112,2.112,0,0,0,11.977,11.484Z" transform="translate(-0.361 -0.217)"/></g></svg>