<svg xmlns="http://www.w3.org/2000/svg" width="30.444" height="30.444" viewBox="0 0 30.444 30.444"><defs><style>.a{fill:none;}.b,.c{fill:#1b2749;fill-rule:evenodd;}.c{opacity:0.3;}</style></defs><g transform="translate(0 0)"><rect class="a" width="30.444" height="30.444" transform="translate(0 0)"/><path class="b" d="M14.036,2a6.158,6.158,0,0,1,5.507,3.4l3.372,6.744A7.012,7.012,0,0,1,16.644,22.3H11.429A7.012,7.012,0,0,1,5.157,12.148L8.529,5.4A6.158,6.158,0,0,1,14.036,2ZM8.391,16.715a9.369,9.369,0,0,0,5.645,2.093,9.369,9.369,0,0,0,5.645-2.093L18.54,15.193a7.5,7.5,0,0,1-4.5,1.713,7.5,7.5,0,0,1-4.5-1.713Z" transform="translate(1.186 0.537)"/><path class="c" d="M6.2,22.133l2.537-4.394a1.269,1.269,0,1,1,2.2,1.269L8.393,23.4a1.269,1.269,0,0,1-2.2-1.269ZM21,22.095a1.269,1.269,0,1,1-2.2,1.269l-2.537-4.394a1.269,1.269,0,0,1,2.2-1.269Z" transform="translate(1.618 4.582)"/></g></svg>