<svg xmlns="http://www.w3.org/2000/svg" xmlns:xlink="http://www.w3.org/1999/xlink" width="295.771" height="246.511" viewBox="0 0 295.771 246.511"><defs><style>.a{fill:url(#a);}</style><linearGradient id="a" x1="0.5" x2="0.5" y2="1" gradientUnits="objectBoundingBox"><stop offset="0" stop-color="#ffd24a"/><stop offset="1" stop-color="#fb7992"/></linearGradient></defs><g transform="translate(-0.001)"><path class="a" d="M279.2,168.35c0-34.031-38.624-61.62-86.267-61.62s-86.266,27.589-86.266,61.62,38.624,61.62,86.266,61.62S279.2,202.381,279.2,168.35Zm0,0" transform="translate(-45.051 -45.079)"/><path class="a" d="M192.934,229.971c-47.571,0-86.266-27.643-86.266-61.62s38.7-61.62,86.266-61.62S279.2,134.373,279.2,168.35,240.505,229.971,192.934,229.971Zm0-110.915c-40.781,0-73.943,22.108-73.943,49.295s33.163,49.295,73.943,49.295,73.943-22.108,73.943-49.295S233.715,119.056,192.934,119.056Zm0,0" transform="translate(-45.051 -45.079)"/><path class="a" d="M55.457,223.343a6.331,6.331,0,0,1-1.5-.185l-49.3-12.323A6.16,6.16,0,0,1,0,204.857V167.886a6.158,6.158,0,0,1,4.671-5.978l49.295-12.322a6.16,6.16,0,1,1,2.983,11.953L12.323,172.7v27.347L56.949,211.2a6.161,6.161,0,0,1-1.492,12.138Zm0,0" transform="translate(0.001 -63.106)"/><path class="a" d="M64.466,161.721H27.495a6.162,6.162,0,1,1,0-12.323H64.466a6.162,6.162,0,1,1,0,12.323Zm0,0" transform="translate(-9.007 -63.097)"/><path class="a" d="M64.466,268.388H27.495a6.161,6.161,0,1,1,0-12.322H64.466a6.161,6.161,0,1,1,0,12.322Zm0,0" transform="translate(-9.007 -108.146)"/><path class="a" d="M411.494,223.341a6.161,6.161,0,0,1-1.478-12.138l44.614-11.166V172.69L410,161.535a6.16,6.16,0,1,1,2.985-11.953l49.293,12.323a6.147,6.147,0,0,1,4.672,5.978v36.972a6.157,6.157,0,0,1-4.672,5.978l-49.293,12.322A6.2,6.2,0,0,1,411.494,223.341Zm0,0" transform="translate(-171.181 -63.094)"/><path class="a" d="M448.466,268.388H411.495a6.161,6.161,0,1,1,0-12.322h36.971a6.161,6.161,0,1,1,0,12.322Zm0,0" transform="translate(-171.178 -108.146)"/><path class="a" d="M448.466,161.721H411.495a6.162,6.162,0,1,1,0-12.323h36.971a6.162,6.162,0,1,1,0,12.323Zm0,0" transform="translate(-171.178 -63.097)"/><path class="a" d="M151.6,370.85a6.305,6.305,0,0,1-2.3-.442L115,356.619a6.174,6.174,0,0,1-3.809-6.558l6.939-50.33a6.158,6.158,0,0,1,12.2,1.677l-6.284,45.559,25.373,10.2,26.991-37.242a6.154,6.154,0,1,1,9.969,7.22L156.567,368.3a6.072,6.072,0,0,1-4.967,2.549Zm0,0" transform="translate(-46.928 -124.341)"/><path class="a" d="M105.467,341.024a6.383,6.383,0,0,1-2.3-.445,6.162,6.162,0,0,1-3.414-8.01l13.79-34.3a6.158,6.158,0,0,1,11.425,4.6l-13.79,34.3A6.128,6.128,0,0,1,105.467,341.024Zm0,0" transform="translate(-41.942 -124.344)"/><path class="a" d="M204.432,380.8a6.4,6.4,0,0,1-2.3-.444,6.164,6.164,0,0,1-3.414-8.012l13.79-34.3a6.158,6.158,0,0,1,11.425,4.6l-13.79,34.3A6.126,6.126,0,0,1,204.432,380.8Zm0,0" transform="translate(-83.727 -141.144)"/><path class="a" d="M305.446,370.84a6.139,6.139,0,0,1-4.993-2.539l-29.822-41.148a6.163,6.163,0,1,1,9.969-7.247l27,37.254,25.377-10.215-6.3-45.562a6.158,6.158,0,0,1,12.2-1.674l6.95,50.33a6.145,6.145,0,0,1-3.81,6.556l-34.3,13.8A6.141,6.141,0,0,1,305.446,370.84Zm0,0" transform="translate(-113.794 -124.328)"/><path class="a" d="M289.4,380.806a6.161,6.161,0,0,1-5.717-3.855l-13.8-34.31a6.158,6.158,0,0,1,11.425-4.6l13.8,34.31a6.157,6.157,0,0,1-3.415,8.012A6.06,6.06,0,0,1,289.4,380.806Zm0,0" transform="translate(-113.787 -141.133)"/><path class="a" d="M388.377,341.006a6.167,6.167,0,0,1-5.718-3.856l-13.79-34.3a6.157,6.157,0,1,1,11.423-4.6l13.792,34.3a6.155,6.155,0,0,1-3.415,8.011A6.272,6.272,0,0,1,388.377,341.006Zm0,0" transform="translate(-155.586 -124.334)"/><path class="a" d="M70.162,221.684A6.163,6.163,0,0,1,64,215.523v-49.3a6.162,6.162,0,0,1,12.323,0v49.3A6.162,6.162,0,0,1,70.162,221.684Zm0,0" transform="translate(-27.022 -67.607)"/><path class="a" d="M432.83,221.684a6.163,6.163,0,0,1-6.162-6.16v-49.3a6.162,6.162,0,0,1,12.324,0v49.3A6.162,6.162,0,0,1,432.83,221.684Zm0,0" transform="translate(-180.188 -67.607)"/><path class="a" d="M177,348.868a6.378,6.378,0,0,1-2.3-.444l-45.745-18.375a6.157,6.157,0,1,1,4.6-11.423L179.3,337A6.156,6.156,0,0,1,177,348.868Zm0,0" transform="translate(-52.825 -134.377)"/><path class="a" d="M293.477,348.86a6.156,6.156,0,0,1-2.3-11.868L336.908,318.6a6.157,6.157,0,1,1,4.6,11.424L295.77,348.414A5.981,5.981,0,0,1,293.477,348.86Zm0,0" transform="translate(-121.34 -134.364)"/><path class="a" d="M332.81,76.46a6.5,6.5,0,0,1-.85-.061,6.154,6.154,0,0,1-5.26-6.939l6.283-45.56L307.609,13.7,280.62,50.939a6.156,6.156,0,1,1-9.971-7.221L300.461,2.567A6.133,6.133,0,0,1,307.744.459l34.309,13.792a6.164,6.164,0,0,1,3.808,6.555l-6.95,50.331a6.165,6.165,0,0,1-6.1,5.323Zm0,0" transform="translate(-113.799 -0.007)"/><path class="a" d="M374.588,98.275a6.369,6.369,0,0,1-2.3-.442,6.163,6.163,0,0,1-3.415-8.011l13.791-34.3a6.158,6.158,0,1,1,11.425,4.6l-13.793,34.3A6.119,6.119,0,0,1,374.588,98.275Zm0,0" transform="translate(-155.598 -21.822)"/><path class="a" d="M275.622,58.513a6.388,6.388,0,0,1-2.307-.442A6.159,6.159,0,0,1,269.9,50.06l13.789-34.3a6.157,6.157,0,1,1,11.425,4.6l-13.792,34.3a6.122,6.122,0,0,1-5.7,3.856Zm0,0" transform="translate(-113.799 -5.035)"/><path class="a" d="M124.252,76.47a6.177,6.177,0,0,1-6.1-5.323l-6.964-50.319A6.179,6.179,0,0,1,115,14.259L149.3.456a6.115,6.115,0,0,1,7.282,2.1L186.4,43.7a6.162,6.162,0,1,1-9.969,7.246l-27-37.267L124.056,23.908l6.309,45.562a6.153,6.153,0,0,1-5.262,6.939,6.854,6.854,0,0,1-.851.061Zm0,0" transform="translate(-46.934 0.001)"/><path class="a" d="M218.224,58.5a6.167,6.167,0,0,1-5.721-3.857l-13.79-34.322a6.158,6.158,0,0,1,11.425-4.6l13.8,34.311a6.153,6.153,0,0,1-3.415,8.009,6.077,6.077,0,0,1-2.3.456Zm0,0" transform="translate(-83.727 -5.019)"/><path class="a" d="M119.253,98.29a6.169,6.169,0,0,1-5.718-3.859l-13.8-34.3a6.165,6.165,0,0,1,11.436-4.61l13.8,34.3a6.156,6.156,0,0,1-3.412,8.011A6.082,6.082,0,0,1,119.253,98.29Zm0,0" transform="translate(-41.931 -21.818)"/><path class="a" d="M339.21,86.15a6.356,6.356,0,0,1-2.3-.442L291.172,67.332a6.158,6.158,0,1,1,4.6-11.425L341.5,74.283A6.156,6.156,0,0,1,339.21,86.15Zm0,0" transform="translate(-121.34 -23.429)"/><path class="a" d="M131.278,86.155a6.163,6.163,0,0,1-2.3-11.881l45.747-18.386a6.157,6.157,0,0,1,4.6,11.425l-45.747,18.4A6.264,6.264,0,0,1,131.278,86.155Zm0,0" transform="translate(-52.842 -23.422)"/></g></svg>