<svg xmlns="http://www.w3.org/2000/svg" width="35.44" height="35.44" viewBox="0 0 35.44 35.44"><defs><style>.a{fill:#1b2749;}</style></defs><path class="a" d="M10.462,14.9a1.651,1.651,0,0,0,0,2.326l8.153,8.127a1.642,1.642,0,0,0,2.266.051L28.914,17.4A1.642,1.642,0,1,0,26.6,15.07l-6.9,6.8-6.909-6.977A1.643,1.643,0,0,0,10.462,14.9Z" transform="translate(-1.977 -1.039)"/><path class="a" d="M3.375,21.095a17.72,17.72,0,1,0,17.72-17.72A17.717,17.717,0,0,0,3.375,21.095ZM31.693,10.5a14.988,14.988,0,1,1-21.2,21.2,14.988,14.988,0,1,1,21.2-21.2Z" transform="translate(-3.375 -3.375)"/></svg>