<svg xmlns="http://www.w3.org/2000/svg" width="21.901" height="21.008" viewBox="0 0 21.901 21.008"><defs><style>.a{fill:#adb3bf;}</style></defs><g transform="translate(-0.1 0)"><path class="a" d="M37.943,12.265v.594a2.175,2.175,0,0,1-.751,1.283l-.375.282a2.1,2.1,0,0,1-.907,2.753c.031.063.031.125.063.188A2,2,0,0,1,36,18.647a2.105,2.105,0,0,1-2.065,1.471H25.615a5.978,5.978,0,0,1-2.1-.438c-.188-.063-.219-.156-.219-.344V10.387a1.883,1.883,0,0,1,.156-.813c.845-1.783,1.658-3.567,2.5-5.381a1.65,1.65,0,0,0,.094-.375V1A.678.678,0,0,1,26.21.563,2.19,2.19,0,0,1,28.963.438,4.079,4.079,0,0,1,30.59,3.817a12.774,12.774,0,0,1-.626,3.223c-.031.094-.031.156-.063.282H35.44a2.433,2.433,0,0,1,2.378,1.6,2.024,2.024,0,0,0,.125.407v.594a2.625,2.625,0,0,1-.594,1.22A2.088,2.088,0,0,1,37.943,12.265Z" transform="translate(-15.941 0)"/><path class="a" d="M6.483,29.451V29.2c-.063,0-.063-.031-.094-.031-1.377,0-2.753-.031-4.13,0A2.255,2.255,0,0,0,.1,31.36v7.446a2.266,2.266,0,0,0,2.19,2.221c.97.031,1.971,0,2.941,0a2.2,2.2,0,0,0,1.064-.313.379.379,0,0,0,.219-.375C6.483,36.71,6.483,33.08,6.483,29.451Zm-3.41,9.605a1.064,1.064,0,1,1,1.064-1.064A1.055,1.055,0,0,1,3.072,39.056Z" transform="translate(0 -20.034)"/></g></svg>