<svg xmlns="http://www.w3.org/2000/svg" width="22.866" height="21.92" viewBox="0 0 22.866 21.92"><defs><style>.a{fill:#adb3bf;}</style></defs><path class="a" d="M0,11.155v-.62A2.268,2.268,0,0,1,.783,9.2L1.174,8.9a2.194,2.194,0,0,1,.946-2.87c-.033-.065-.033-.13-.065-.2a2,2,0,0,1-.065-1.3A2.195,2.195,0,0,1,4.143,3h8.677A6.232,6.232,0,0,1,15,3.457c.2.065.228.163.228.359v9.329a1.964,1.964,0,0,1-.163.848c-.881,1.859-1.729,3.719-2.609,5.61a1.173,1.173,0,0,0-.065.359V22.9a.707.707,0,0,1-.163.457,2.283,2.283,0,0,1-2.87.13,4.253,4.253,0,0,1-1.7-3.523,13.317,13.317,0,0,1,.652-3.36c.033-.1.033-.163.065-.294H2.609A2.537,2.537,0,0,1,.13,14.645,2.11,2.11,0,0,0,0,14.221V13.6a2.736,2.736,0,0,1,.62-1.272A2.42,2.42,0,0,1,0,11.155Z" transform="translate(0 -2.021)"/><path class="a" d="M49.7,12.1v.261c.065,0,.065.033.1.033,1.435,0,2.87.033,4.306,0a2.351,2.351,0,0,0,2.251-2.283V2.349A2.362,2.362,0,0,0,54.071.033C53.06,0,52.049,0,51.037,0a2.3,2.3,0,0,0-1.109.326A.4.4,0,0,0,49.7.718ZM53.255,2.088A1.109,1.109,0,1,1,52.146,3.2,1.1,1.1,0,0,1,53.255,2.088Z" transform="translate(-33.489)"/></svg>