<svg xmlns="http://www.w3.org/2000/svg" width="25.32" height="24.258" viewBox="0 0 25.32 24.258"><defs><style>.a{fill:#feb713;}</style></defs><path class="a" d="M25,11A1.816,1.816,0,0,0,24,7.907l-6.131-.891a.8.8,0,0,1-.6-.439L14.52,1.023a1.816,1.816,0,0,0-3.257,0L8.523,6.578a.8.8,0,0,1-.6.439l-6.131.891A1.816,1.816,0,0,0,.781,11l4.436,4.324a.8.8,0,0,1,.231.71L4.4,22.144a1.778,1.778,0,0,0,.4,1.472,1.835,1.835,0,0,0,2.238.442l5.483-2.883a.821.821,0,0,1,.746,0l5.483,2.883a1.8,1.8,0,0,0,.845.211,1.821,1.821,0,0,0,1.393-.653,1.777,1.777,0,0,0,.4-1.472l-1.047-6.105a.8.8,0,0,1,.231-.71Z" transform="translate(-0.232 -0.011)"/></svg>