<svg xmlns="http://www.w3.org/2000/svg" width="70.011" height="70.012" viewBox="0 0 70.011 70.012"><defs><style>.a{fill:#fff;}.b{fill:#1c2540;}</style></defs><g transform="translate(-0.001 0)"><path class="a" d="M842.251,3915.256a35.006,35.006,0,1,0,49.506,0A35.006,35.006,0,0,0,842.251,3915.256Z" transform="translate(-831.997 -3905.003)"/><path class="b" d="M23.546,27.336l-9.484-9.482L4.578,27.336a2.681,2.681,0,0,1-3.794-3.79l9.484-9.484L.785,4.579A2.683,2.683,0,0,1,4.578.785l9.484,9.484L23.546.785a2.683,2.683,0,1,1,3.794,3.794l-9.484,9.483,9.484,9.484a2.681,2.681,0,1,1-3.794,3.79Z" transform="translate(20.8 19.749)"/></g></svg>