<svg xmlns="http://www.w3.org/2000/svg" width="70.929" height="70.396" viewBox="0 0 70.929 70.396"><defs><style>.a{fill:none;}.b{fill:#fa7268;opacity:0.3;}.b,.c{fill-rule:evenodd;}.c{fill:#fff;}</style></defs><g transform="translate(0.001 0)"><rect class="a" width="64.629" height="64.629" transform="translate(-0.001 4.992)"/><g transform="translate(0.532 0)"><rect class="a" width="70.396" height="70.396"/><path class="b" d="M9.465,4H45a2.933,2.933,0,0,1,2.928,2.761l2.405,40.892a5.866,5.866,0,0,1-5.512,6.2q-.172.01-.344.01H9.987A5.866,5.866,0,0,1,4.121,48q0-.172.01-.344L6.537,6.761A2.933,2.933,0,0,1,9.465,4Z" transform="translate(7.967 7.733)"/><path class="c" d="M7,7h5.866a8.8,8.8,0,1,0,17.6,0h5.866A14.666,14.666,0,1,1,7,7Z" transform="translate(13.532 13.532)"/></g></g></svg>