<svg id="Group_6034" data-name="Group 6034" xmlns="http://www.w3.org/2000/svg" width="19.824" height="19.824" viewBox="0 0 19.824 19.824">
  <circle id="Ellipse_399" data-name="Ellipse 399" cx="9.912" cy="9.912" r="9.912" transform="translate(0 0)" fill="#fff" opacity="0.11"/>
  <g id="Group_5158" data-name="Group 5158" transform="translate(3.126 5.915)">
    <g id="Group_5157" data-name="Group 5157" transform="translate(0 0)">
      <path id="Path_3289" data-name="Path 3289" d="M747.737,231.09c-.036.23-.075.459-.109.689-.118.8-.221,1.6-.356,2.4a2.147,2.147,0,0,1-.588,1.132.194.194,0,0,0-.062.2c.156.784.3,1.569.455,2.353a.475.475,0,0,1-.489.6.455.455,0,0,1-.424-.372c-.085-.395-.157-.792-.233-1.189-.064-.33-.129-.661-.188-.992-.013-.072-.038-.1-.112-.1q-.472,0-.945,0c-.071,0-.1.021-.113.1-.131.7-.269,1.4-.4,2.1a.476.476,0,1,1-.932-.157c.131-.674.26-1.348.395-2.042-.07,0-.132,0-.192,0a.469.469,0,0,1-.456-.5.458.458,0,0,1,.485-.439c.635,0,1.269-.009,1.9,0a.792.792,0,0,0,.873-.593,4.978,4.978,0,0,0,.219-.981c.12-.8.221-1.6.333-2.4a.48.48,0,0,1,.4-.422.471.471,0,0,1,.515.3.4.4,0,0,0,.028.044Z" transform="translate(-733.916 -230.467)" fill="#fff"/>
      <path id="Path_3290" data-name="Path 3290" d="M709.7,247.863v-4.214h-.16q-1.147,0-2.294,0a.471.471,0,0,1-.5-.366.466.466,0,0,1,.419-.573c.027,0,.054,0,.081,0h5.871a.472.472,0,1,1,0,.94c-.675,0-1.35,0-2.025,0h-.434v4.214c.149,0,.288,0,.427,0a.463.463,0,0,1,.457.442.47.47,0,0,1-.384.483.686.686,0,0,1-.134.014c-.567,0-1.134,0-1.7,0a.472.472,0,0,1-.475-.647.439.439,0,0,1,.415-.291C709.407,247.859,709.547,247.863,709.7,247.863Z" transform="translate(-703.273 -240.814)" fill="#fff"/>
      <path id="Path_3291" data-name="Path 3291" d="M688.432,235.812l.4,2.046a.483.483,0,0,1-.2.531.455.455,0,0,1-.531-.017.506.506,0,0,1-.2-.353c-.134-.7-.271-1.4-.4-2.1-.014-.078-.039-.106-.119-.105q-.465.006-.931,0c-.077,0-.108.022-.123.1-.131.706-.269,1.41-.4,2.115a.484.484,0,0,1-.443.434.458.458,0,0,1-.482-.348.59.59,0,0,1,0-.239c.15-.8.305-1.6.455-2.393a.181.181,0,0,0-.038-.138,2.727,2.727,0,0,1-.7-1.6c-.1-.748-.205-1.494-.308-2.242-.025-.182-.058-.364-.068-.547a.461.461,0,0,1,.4-.48.448.448,0,0,1,.513.355c.067.357.108.719.16,1.078.1.68.187,1.361.3,2.038a1.835,1.835,0,0,0,.2.522.722.722,0,0,0,.694.4c.67,0,1.34,0,2.01,0a.464.464,0,0,1,.4.7.482.482,0,0,1-.415.236C688.552,235.815,688.5,235.812,688.432,235.812Z" transform="translate(-684.333 -230.47)" fill="#fff"/>
    </g>
  </g>
</svg>
