<svg xmlns="http://www.w3.org/2000/svg" width="29" height="29" viewBox="0 0 29 29">
  <g id="plus_5_" data-name="plus (5)" transform="translate(10.126 9.922)">
    <path id="btn" d="M836.245,3909.25a14.5,14.5,0,1,0,20.506,0A14.5,14.5,0,0,0,836.245,3909.25Z" transform="translate(-842.124 -3914.924)" fill="#ffffff"/>
    <g id="Group_5146" data-name="Group 5146" transform="translate(0 0)">
      <path id="Path_3246" data-name="Path 3246" d="M8.407,4.033H4.716V.342a.342.342,0,0,0-.684,0V4.033H.342a.342.342,0,1,0,0,.683H4.033V8.407a.342.342,0,0,0,.684,0V4.716H8.407a.342.342,0,1,0,0-.683Z" transform="translate(0 0)" fill="#1b2749" stroke="#1b2749" stroke-width="1"/>
    </g>
  </g>
</svg>
