<svg xmlns="http://www.w3.org/2000/svg" width="71.286" height="71.286" viewBox="0 0 71.286 71.286"><defs><style>.a{fill:none;}.b,.c{fill:#fff;fill-rule:evenodd;}.c{opacity:0.3;}</style></defs><g transform="translate(0.001)"><rect class="a" width="71.286" height="71.286" transform="translate(-0.001 0)"/><path class="b" d="M3,25.851H56.465A11.881,11.881,0,0,1,44.584,37.732h-29.7A11.881,11.881,0,0,1,3,25.851ZM3,11H56.465v2.97a5.941,5.941,0,0,1-5.941,5.941H8.941A5.941,5.941,0,0,1,3,13.97Z" transform="translate(5.91 21.673)"/><path class="c" d="M3,5H56.465v5.941a5.941,5.941,0,0,1-5.941,5.941H8.941A5.941,5.941,0,0,1,3,10.941Z" transform="translate(5.91 9.851)"/></g></svg>