<svg xmlns="http://www.w3.org/2000/svg" width="55.598" height="55.598" viewBox="0 0 55.598 55.598"><defs><style>.a{fill:#1b2749;}</style></defs><g transform="translate(0)"><path class="a" d="M55.465,4.5H9.133A4.628,4.628,0,0,0,4.5,9.133V55.465A4.628,4.628,0,0,0,9.133,60.1H55.465A4.628,4.628,0,0,0,60.1,55.465V9.133A4.628,4.628,0,0,0,55.465,4.5Zm.579,50.386a1.162,1.162,0,0,1-1.158,1.158H9.712a1.162,1.162,0,0,1-1.158-1.158V9.712A1.162,1.162,0,0,1,9.712,8.554H54.886a1.162,1.162,0,0,1,1.158,1.158Z" transform="translate(-4.5 -4.5)"/><path class="a" d="M41.518,15,38.97,12.38a.548.548,0,0,0-.405-.174h0a.526.526,0,0,0-.405.174L20.495,30.174l-6.429-6.429a.56.56,0,0,0-.811,0l-2.577,2.577a.577.577,0,0,0,0,.825l8.108,8.108a2.564,2.564,0,0,0,1.694.825,2.687,2.687,0,0,0,1.68-.8h.014L41.533,15.826A.619.619,0,0,0,41.518,15Z" transform="translate(1.86 3.662)"/></g></svg>