<svg xmlns="http://www.w3.org/2000/svg" width="19.472" height="19.475" viewBox="0 0 19.472 19.475"><defs><style>.a,.b{fill:#fff;}.a{fill-rule:evenodd;}</style></defs><g transform="translate(0 0)"><path class="a" d="M4.082,6H21.391a1.082,1.082,0,0,1,1.082,1.082V8.164a1.082,1.082,0,0,1-1.082,1.082H4.082A1.082,1.082,0,0,1,3,8.164V7.082A1.082,1.082,0,0,1,4.082,6Zm1.082,5.409h5.409a1.082,1.082,0,0,1,1.082,1.082v7.573a1.082,1.082,0,0,1-1.082,1.082H5.164a1.082,1.082,0,0,1-1.082-1.082V12.491A1.082,1.082,0,0,1,5.164,11.409Zm9.736,0h5.409a1.082,1.082,0,0,1,1.082,1.082v7.573a1.082,1.082,0,0,1-1.082,1.082H14.9a1.082,1.082,0,0,1-1.082-1.082V12.491A1.082,1.082,0,0,1,14.9,11.409Z" transform="translate(-3 -1.671)"/><path class="b" d="M14.973,2.182a1.082,1.082,0,1,1,1.2,1.8L12.327,6.546,8.482,3.982a1.082,1.082,0,0,1,1.2-1.8l2.645,1.764Z" transform="translate(-2.591 -2)"/></g></svg>