<svg xmlns="http://www.w3.org/2000/svg" width="20.759" height="17.302" viewBox="0 0 20.759 17.302"><defs><style>.a{fill:#fff;}</style></defs><path class="a" d="M118.778,111.055c0-2.389-2.711-4.325-6.055-4.325s-6.055,1.936-6.055,4.325,2.711,4.325,6.055,4.325S118.778,113.443,118.778,111.055Zm0,0" transform="translate(-102.343 -102.403)"/><path class="a" d="M112.723,115.38c-3.339,0-6.055-1.94-6.055-4.325s2.716-4.325,6.055-4.325,6.055,1.94,6.055,4.325S116.062,115.38,112.723,115.38Zm0-7.785c-2.862,0-5.19,1.552-5.19,3.46s2.328,3.46,5.19,3.46,5.19-1.552,5.19-3.46S115.585,107.6,112.723,107.6Zm0,0" transform="translate(-102.343 -102.403)"/><path class="a" d="M3.892,154.593a.443.443,0,0,1-.105-.013l-3.46-.865A.432.432,0,0,1,0,153.3V150.7a.432.432,0,0,1,.328-.42l3.46-.865a.432.432,0,1,1,.209.839l-3.132.784v1.919L4,153.741a.432.432,0,0,1-.1.852Zm0,0" transform="translate(0 -143.347)"/><path class="a" d="M24.359,150.263H21.765a.432.432,0,1,1,0-.865h2.595a.432.432,0,1,1,0,.865Zm0,0" transform="translate(-20.467 -143.341)"/><path class="a" d="M24.359,256.931H21.765a.432.432,0,1,1,0-.865h2.595a.432.432,0,1,1,0,.865Zm0,0" transform="translate(-20.467 -245.684)"/><path class="a" d="M405.764,154.586a.432.432,0,0,1-.1-.852l3.131-.784v-1.919l-3.132-.783a.432.432,0,1,1,.209-.839l3.46.865a.431.431,0,0,1,.328.42v2.595a.432.432,0,0,1-.328.42l-3.46.865A.434.434,0,0,1,405.764,154.586Zm0,0" transform="translate(-388.897 -143.339)"/><path class="a" d="M408.359,256.931h-2.595a.432.432,0,1,1,0-.865h2.595a.432.432,0,1,1,0,.865Zm0,0" transform="translate(-388.897 -245.684)"/><path class="a" d="M408.359,150.263h-2.595a.432.432,0,1,1,0-.865h2.595a.432.432,0,1,1,0,.865Zm0,0" transform="translate(-388.897 -143.341)"/><path class="a" d="M113.973,299.779a.442.442,0,0,1-.162-.031l-2.407-.968a.433.433,0,0,1-.267-.46l.487-3.532a.432.432,0,0,1,.856.118l-.441,3.2,1.781.716,1.894-2.614a.432.432,0,1,1,.7.507l-2.092,2.888a.426.426,0,0,1-.349.179Zm0,0" transform="translate(-106.626 -282.477)"/><path class="a" d="M99.735,297.678a.449.449,0,0,1-.162-.031.433.433,0,0,1-.24-.562l.968-2.407a.432.432,0,1,1,.8.323l-.968,2.407A.43.43,0,0,1,99.735,297.678Zm0,0" transform="translate(-95.276 -282.47)"/><path class="a" d="M198.7,337.461a.448.448,0,0,1-.162-.031.433.433,0,0,1-.24-.562l.968-2.407a.432.432,0,0,1,.8.323l-.968,2.407A.43.43,0,0,1,198.7,337.461Zm0,0" transform="translate(-190.228 -320.64)"/><path class="a" d="M271.984,299.755a.431.431,0,0,1-.35-.178l-2.093-2.888a.433.433,0,1,1,.7-.509l1.9,2.615,1.781-.717-.442-3.2a.432.432,0,0,1,.856-.117l.488,3.533a.431.431,0,0,1-.267.46l-2.407.969A.43.43,0,0,1,271.984,299.755Zm0,0" transform="translate(-258.532 -282.453)"/><path class="a" d="M270.836,337.455a.433.433,0,0,1-.4-.271l-.969-2.408a.432.432,0,0,1,.8-.323l.969,2.408a.432.432,0,0,1-.24.562A.424.424,0,0,1,270.836,337.455Zm0,0" transform="translate(-258.51 -320.633)"/><path class="a" d="M369.822,297.667a.433.433,0,0,1-.4-.271l-.968-2.407a.432.432,0,1,1,.8-.323l.968,2.407a.432.432,0,0,1-.24.562A.441.441,0,0,1,369.822,297.667Zm0,0" transform="translate(-353.483 -282.459)"/><path class="a" d="M64.433,164.391a.433.433,0,0,1-.433-.432V160.5a.432.432,0,0,1,.865,0v3.46A.433.433,0,0,1,64.433,164.391Zm0,0" transform="translate(-61.405 -153.577)"/><path class="a" d="M427.1,164.391a.433.433,0,0,1-.432-.432V160.5a.432.432,0,0,1,.865,0v3.46A.433.433,0,0,1,427.1,164.391Zm0,0" transform="translate(-409.368 -153.577)"/><path class="a" d="M128.737,320.327a.448.448,0,0,1-.162-.031l-3.211-1.29a.432.432,0,1,1,.323-.8l3.211,1.29a.432.432,0,0,1-.161.833Zm0,0" transform="translate(-120.021 -305.272)"/><path class="a" d="M287.744,320.307a.432.432,0,0,1-.162-.833l3.21-1.291a.432.432,0,1,1,.323.8l-3.21,1.291A.42.42,0,0,1,287.744,320.307Zm0,0" transform="translate(-275.663 -305.252)"/><path class="a" d="M273.919,5.373a.454.454,0,0,1-.06,0,.432.432,0,0,1-.369-.487l.441-3.2L272.15.968l-1.894,2.614a.432.432,0,1,1-.7-.507L271.648.187a.43.43,0,0,1,.511-.148l2.408.968a.433.433,0,0,1,.267.46L274.347,5a.433.433,0,0,1-.428.374Zm0,0" transform="translate(-258.547 -0.007)"/><path class="a" d="M368.854,54.934a.447.447,0,0,1-.162-.031.433.433,0,0,1-.24-.562l.968-2.407a.432.432,0,0,1,.8.323l-.968,2.407A.43.43,0,0,1,368.854,54.934Zm0,0" transform="translate(-353.484 -49.568)"/><path class="a" d="M269.889,15.176a.447.447,0,0,1-.162-.031.432.432,0,0,1-.24-.562l.968-2.407a.432.432,0,1,1,.8.323l-.968,2.407a.43.43,0,0,1-.4.271Zm0,0" transform="translate(-258.531 -11.423)"/><path class="a" d="M112.053,5.367a.434.434,0,0,1-.428-.374l-.489-3.532A.434.434,0,0,1,111.4,1l2.407-.969a.429.429,0,0,1,.511.147l2.093,2.888a.433.433,0,1,1-.7.509L113.82.96l-1.781.718.443,3.2a.432.432,0,0,1-.369.487.481.481,0,0,1-.06,0Zm0,0" transform="translate(-106.626 0.001)"/><path class="a" d="M199.668,15.147a.433.433,0,0,1-.4-.271l-.968-2.409a.432.432,0,0,1,.8-.323l.969,2.408a.432.432,0,0,1-.24.562A.427.427,0,0,1,199.668,15.147Zm0,0" transform="translate(-190.228 -11.393)"/><path class="a" d="M100.694,54.938a.433.433,0,0,1-.4-.271l-.969-2.407a.433.433,0,0,1,.8-.324l.969,2.407a.432.432,0,0,1-.239.562A.427.427,0,0,1,100.694,54.938Zm0,0" transform="translate(-95.267 -49.57)"/><path class="a" d="M290.954,57.614a.446.446,0,0,1-.162-.031l-3.21-1.29a.432.432,0,0,1,.323-.8l3.21,1.29a.432.432,0,0,1-.161.833Zm0,0" transform="translate(-275.663 -53.211)"/><path class="a" d="M125.547,57.6a.433.433,0,0,1-.162-.834l3.211-1.29a.432.432,0,0,1,.323.8l-3.211,1.291A.44.44,0,0,1,125.547,57.6Zm0,0" transform="translate(-120.042 -53.193)"/></svg>