<svg xmlns="http://www.w3.org/2000/svg" width="19.466" height="17.303" viewBox="0 0 19.466 17.303"><defs><style>.a{fill:#1b2749;}</style></defs><path class="a" d="M19.212,6l-4.867,4.6A.812.812,0,0,1,12.977,10V7.571C8.091,7.6,6.03,8.758,7.409,13.362a.541.541,0,0,1-.845.586A6.505,6.505,0,0,1,4.055,9.1c0-4.864,3.974-5.83,8.922-5.857V.811a.812.812,0,0,1,1.368-.59l4.867,4.6A.811.811,0,0,1,19.212,6Zm-6.235,6.816V15.14H2.163V4.326H3.884A.405.405,0,0,0,4.176,4.2,6.588,6.588,0,0,1,5.9,2.928a.405.405,0,0,0-.187-.765H1.622A1.622,1.622,0,0,0,0,3.785v11.9A1.622,1.622,0,0,0,1.622,17.3h11.9a1.622,1.622,0,0,0,1.622-1.622v-3A.405.405,0,0,0,14.6,12.3a2.428,2.428,0,0,1-1.155.114A.406.406,0,0,0,12.977,12.813Z" transform="translate(0 0)"/></svg>