<svg xmlns="http://www.w3.org/2000/svg" width="20.884" height="20.884" viewBox="0 0 20.884 20.884"><defs><style>.a{fill:#fff;}</style></defs><g transform="translate(0 0)"><g transform="translate(0)"><path class="a" d="M19.463,17.087H16.14a3.8,3.8,0,0,1,0-7.594h3.322a.474.474,0,0,0,.475-.475V7.594A1.894,1.894,0,0,0,18.19,5.711L15.464.95A1.878,1.878,0,0,0,12.887.256L3.543,5.7H1.9A1.9,1.9,0,0,0,0,7.594V18.986a1.9,1.9,0,0,0,1.9,1.9H18.039a1.9,1.9,0,0,0,1.9-1.9V17.562A.474.474,0,0,0,19.463,17.087Zm-3.41-13.2L17.087,5.7H12.95ZM5.429,5.7l7.936-4.62a.918.918,0,0,1,.705-.1.931.931,0,0,1,.57.441v0L7.3,5.7Z" transform="translate(-0.003 0)"/><path class="a" d="M304.84,234.674h-3.322a2.848,2.848,0,0,0,0,5.7h3.322a1.425,1.425,0,0,0,1.424-1.424V236.1A1.425,1.425,0,0,0,304.84,234.674Zm-3.322,3.8a.949.949,0,1,1,.949-.949A.95.95,0,0,1,301.518,238.471Z" transform="translate(-285.38 -224.232)"/></g></g></svg>