<svg xmlns="http://www.w3.org/2000/svg" width="16.478" height="11.052" viewBox="0 0 16.478 11.052"><defs><style>.a,.b{fill:#fff;}.a{stroke:#fff;stroke-width:0.2px;}</style></defs><g transform="translate(-1496.882 -4275.395)"><g transform="translate(1496.982 4275.495)"><path class="a" d="M14.583,85.333H1.7a1.7,1.7,0,0,0-1.7,1.7V94.49a1.7,1.7,0,0,0,1.7,1.7H14.583a1.7,1.7,0,0,0,1.7-1.7V87.029A1.7,1.7,0,0,0,14.583,85.333ZM15.6,94.49a1.019,1.019,0,0,1-1.017,1.017H1.7A1.019,1.019,0,0,1,.678,94.49V87.029A1.019,1.019,0,0,1,1.7,86.011H14.583A1.019,1.019,0,0,1,15.6,87.029V94.49Z" transform="translate(0 -85.333)"/></g><g transform="translate(1499.496 4277.546)"><g transform="translate(0 0)"><path class="b" d="M53.873,128.123a.281.281,0,0,0-.391-.073l-4.614,3.157a1.007,1.007,0,0,1-1.144,0l-4.614-3.157a.281.281,0,1,0-.317.464l4.614,3.157a1.565,1.565,0,0,0,1.779,0l4.614-3.157A.281.281,0,0,0,53.873,128.123Z" transform="translate(-42.67 -128)"/></g></g><g transform="translate(1499.496 4280.921)"><g transform="translate(0 0)"><path class="b" d="M46.519,256.1a.283.283,0,0,0-.4-.036l-3.376,2.813a.282.282,0,1,0,.361.433l3.376-2.813A.282.282,0,0,0,46.519,256.1Z" transform="translate(-42.646 -255.996)"/></g></g><g transform="translate(1506.811 4280.921)"><g transform="translate(0 0)"><path class="b" d="M323.839,258.873l-3.376-2.813a.282.282,0,0,0-.361.433l3.376,2.813a.282.282,0,0,0,.361-.433Z" transform="translate(-320.001 -255.995)"/></g></g></g></svg>