<svg xmlns="http://www.w3.org/2000/svg" width="43.481" height="43.188" viewBox="0 0 43.481 43.188"><defs><style>.a{fill:none;stroke:#fff;}.b{fill:#fff;}.c{fill:#1b2749;}</style></defs><g transform="translate(-903.668 -4156.012)"><path class="a" d="M42.481,21.094A21.241,21.241,0,1,1,21.24,0,21.168,21.168,0,0,1,42.481,21.094Z" transform="translate(904.168 4156.512)"/><path class="b" d="M35.676,17.715A17.839,17.839,0,1,1,17.838,0,17.778,17.778,0,0,1,35.676,17.715Z" transform="translate(907.57 4159.891)"/><path class="c" d="M7.724,8.877H5.336v8.91H1.72V8.877H0V5.745H1.72V3.719A3.429,3.429,0,0,1,5.369,0L8.047.012v3.04H6.1a.743.743,0,0,0-.768.853V5.749h2.7Z" transform="translate(920.984 4168.771)"/></g></svg>