<svg xmlns="http://www.w3.org/2000/svg" width="55.502" height="55.125" viewBox="0 0 55.502 55.125"><defs><style>.a{fill:#3b5998;}.b{fill:#fff;}.c{fill:none;stroke:#3b5998;}</style></defs><g transform="translate(0.5 0.5)"><g transform="translate(4.365 4.335)"><path class="a" d="M45.772,22.728A22.887,22.887,0,1,1,22.886,0,22.808,22.808,0,0,1,45.772,22.728Z"/><path class="b" d="M9.909,11.389H6.847V22.821H2.207V11.389H0V7.371H2.207v-2.6C2.207,2.912,3.073,0,6.889,0l3.436.015v3.9H7.831A.954.954,0,0,0,6.847,5.01V7.375h3.469Z" transform="translate(17.211 11.395)"/></g><path class="c" d="M54.5,27.063A27.251,27.251,0,1,1,27.251,0,27.158,27.158,0,0,1,54.5,27.063Z" transform="translate(0 0)"/><path class="a" d="M45.772,22.728A22.887,22.887,0,1,1,22.886,0,22.808,22.808,0,0,1,45.772,22.728Z" transform="translate(4.365 4.335)"/><path class="b" d="M9.909,11.389H6.847V22.821H2.207V11.389H0V7.371H2.207v-2.6C2.207,2.912,3.073,0,6.889,0l3.436.015v3.9H7.831A.954.954,0,0,0,6.847,5.01V7.375h3.469Z" transform="translate(21.576 15.729)"/></g></svg>