<svg xmlns="http://www.w3.org/2000/svg" width="1920" height="692.5" viewBox="0 0 1920 692.5"><defs><style>.a{fill:#1b2749;}.b{fill:none;stroke:#f5f6fa;stroke-linecap:square;stroke-miterlimit:10;opacity:0.07;}.c,.d{fill:#fff;opacity:0.05;}.d{mix-blend-mode:screen;isolation:isolate;}</style></defs><g transform="translate(0 -3955.953)"><rect class="a" width="1920" height="539" transform="translate(0 3955.953)"/><path class="b" d="M1.5.5V428.116" transform="translate(87.928 4185.016)"/><path class="b" d="M1.5.5V353.679" transform="translate(533.277 4259.453)"/><path class="b" d="M1.5.5V473.031" transform="translate(863.24 4174.922)"/><path class="b" d="M1.5.5V376.569" transform="translate(1817.552 4271.385)"/><path class="b" d="M1.5.5V400.514" transform="translate(1176.414 4212.618)"/><path class="c" d="M19.186,0A19.186,19.186,0,1,1,0,19.186,19.186,19.186,0,0,1,19.186,0Z" transform="translate(409.371 4137.051)"/><path class="c" d="M41.86,0A41.86,41.86,0,1,1,0,41.86,41.86,41.86,0,0,1,41.86,0Z" transform="translate(963.777 4283.688)"/><path class="d" d="M21.8,0C33.843,0,43.6,9.371,43.6,20.93S33.843,41.86,21.8,41.86,0,32.489,0,20.93,9.761,0,21.8,0Z" transform="translate(708 4197.678)"/><path class="d" d="M13.081,0A13.081,13.081,0,1,1,0,13.081,13.081,13.081,0,0,1,13.081,0Z" transform="translate(1303.527 4367.408)"/><path class="d" d="M39.244,0A39.244,39.244,0,1,1,0,39.244,39.244,39.244,0,0,1,39.244,0Z" transform="translate(327.465 4328.164)"/><path class="c" d="M21.8,0C33.843,0,43.6,9.371,43.6,20.93S33.843,41.86,21.8,41.86,0,32.489,0,20.93,9.761,0,21.8,0Z" transform="translate(1382.805 4119.191)"/><path class="b" d="M1.5.5V428.116" transform="translate(1349.928 3975.016)"/></g></svg>