<svg xmlns="http://www.w3.org/2000/svg" width="1920" height="772" viewBox="0 0 1920 772"><defs><style>.a{fill:#f7f7f7;}.b,.d{fill:#1b2749;}.b,.c{font-size:113px;font-family:Montserrat-Bold, Montserrat;font-weight:700;}.c{fill:none;}.c,.d{stroke:#1b2749;stroke-width:3px;}.e{fill:#f86400;}</style></defs><g transform="translate(0 -132)"><rect class="a" width="1920" height="772" transform="translate(0 132)"/><text class="b" transform="translate(1062 372)"><tspan x="0" y="0">Good Food</tspan></text><text class="c" transform="translate(1058 372)"><tspan x="0" y="0">Good Food</tspan></text><text class="b" transform="translate(1058 499)"><tspan x="0" y="0" xml:space="preserve">Good M     d</tspan></text><path class="d" d="M31.179,0A31.179,31.179,0,1,0,62.358,31.179,31.214,31.214,0,0,0,31.179,0Zm0,58.987A27.8,27.8,0,1,1,58.987,31.179,27.72,27.72,0,0,1,31.179,58.987Z" transform="translate(1529.143 441)"/><ellipse class="e" cx="3.371" cy="3.371" rx="3.371" ry="3.371" transform="translate(1546.769 461.856)"/><ellipse class="e" cx="3.371" cy="3.371" rx="3.371" ry="3.371" transform="translate(1567.625 461.856)"/><path class="e" d="M86.907,189.9a19.569,19.569,0,0,0,16.349-8.872l-2.831-1.829a16.013,16.013,0,0,1-26.916,0l-2.831,1.829a19.573,19.573,0,0,0,14.047,8.747A19.049,19.049,0,0,0,86.907,189.9Z" transform="translate(1473.354 299.555)"/><path class="d" d="M31.179,0A31.179,31.179,0,1,0,62.358,31.179,31.214,31.214,0,0,0,31.179,0Zm0,58.987A27.8,27.8,0,1,1,58.987,31.179,27.72,27.72,0,0,1,31.179,58.987Z" transform="translate(1606.229 441)"/><ellipse class="e" cx="3.371" cy="3.371" rx="3.371" ry="3.371" transform="translate(1623.858 461.856)"/><ellipse class="e" cx="3.371" cy="3.371" rx="3.371" ry="3.371" transform="translate(1644.712 461.856)"/><path class="e" d="M86.907,189.9a19.569,19.569,0,0,0,16.349-8.872l-2.831-1.829a16.013,16.013,0,0,1-26.916,0l-2.831,1.829a19.573,19.573,0,0,0,14.047,8.747A19.049,19.049,0,0,0,86.907,189.9Z" transform="translate(1550.444 299.555)"/></g></svg>