<svg xmlns="http://www.w3.org/2000/svg" width="21.615" height="14" viewBox="0 0 21.615 14"><defs><style>.a{fill:#1b2749;}</style></defs><g transform="translate(-1683.771 -4463.953)"><path class="a" d="M0,7.009A6.833,6.833,0,0,1,6.37.021a6.552,6.552,0,0,1,4.821,1.724c-.549.628-1.107,1.25-1.7,1.831a4.564,4.564,0,0,0-3.97-.808,4.469,4.469,0,0,0-2.74,5.65,4.18,4.18,0,0,0,5.6,2.667,3.824,3.824,0,0,0,2.18-2.649c-1.283-.026-2.565-.01-3.847-.047,0-.795-.007-1.587,0-2.382,2.138,0,4.28-.01,6.421.009a8.173,8.173,0,0,1-1.361,5.6A6.445,6.445,0,0,1,4.53,13.625,6.979,6.979,0,0,1,0,7.009Z" transform="translate(1683.771 4463.953)"/><path class="a" d="M1.889,0H3.754c0,.621.008,1.242.012,1.861.623.006,1.25.01,1.873.012V3.728c-.623,0-1.249.005-1.873.01-.007.622-.01,1.241-.012,1.863-.623,0-1.248,0-1.867,0-.007-.622-.007-1.241-.012-1.86C1.251,3.733.623,3.731,0,3.728V1.873c.623,0,1.247-.007,1.874-.012C1.877,1.242,1.883.621,1.889,0Z" transform="translate(1699.748 4467.687)"/></g></svg>