<svg xmlns="http://www.w3.org/2000/svg" xmlns:xlink="http://www.w3.org/1999/xlink" width="55.489" height="55.488" viewBox="0 0 55.489 55.488"><defs><style>.a{fill:url(#a);}.b{fill:url(#b);}.c{fill:#fff;}</style><linearGradient id="a" x1="-0.036" y1="1.008" x2="1.019" y2="0.008" gradientUnits="objectBoundingBox"><stop offset="0" stop-color="#fff200"/><stop offset="1" stop-color="#cd118c"/></linearGradient><linearGradient id="b" y1="0.5" x2="1" y2="0.5" gradientUnits="objectBoundingBox"><stop offset="0" stop-color="#fd5"/><stop offset="0.5" stop-color="#ff543e"/><stop offset="1" stop-color="#c837ab"/></linearGradient></defs><g transform="translate(-1131.154 -647.508)"><path class="a" d="M27.744,0A27.744,27.744,0,1,0,55.489,27.744,27.744,27.744,0,0,0,27.744,0Zm0,53.639A25.895,25.895,0,1,1,53.639,27.744,25.895,25.895,0,0,1,27.744,53.639Zm0,0" transform="translate(1131.154 647.508)"/><g transform="translate(1135.713 652.065)"><g transform="translate(0.001 0)"><ellipse class="b" cx="22.79" cy="22.789" rx="22.79" ry="22.789"/><g transform="translate(10.72 11.395)"><path class="c" d="M23.853,6.9a8.575,8.575,0,0,0-.545-2.847A6.012,6.012,0,0,0,19.873.619,8.6,8.6,0,0,0,17.026.073C15.77.014,15.371,0,12.185,0S8.6.014,7.348.069A8.578,8.578,0,0,0,4.5.614,5.726,5.726,0,0,0,2.42,1.971,5.778,5.778,0,0,0,1.067,4.048,8.6,8.6,0,0,0,.522,6.9C.462,8.151.449,8.55.449,11.736s.014,3.585.069,4.837a8.575,8.575,0,0,0,.546,2.847A6.011,6.011,0,0,0,4.5,22.854a8.6,8.6,0,0,0,2.847.545c1.251.055,1.65.069,4.837.069s3.585-.014,4.837-.069a8.573,8.573,0,0,0,2.847-.545A6,6,0,0,0,23.3,19.42a8.6,8.6,0,0,0,.545-2.847c.055-1.252.069-1.65.069-4.837s0-3.585-.06-4.837Zm-2.113,9.582a6.432,6.432,0,0,1-.4,2.178,3.893,3.893,0,0,1-2.228,2.228,6.455,6.455,0,0,1-2.178.4c-1.238.055-1.609.069-4.74.069s-3.507-.014-4.741-.069a6.429,6.429,0,0,1-2.178-.4,3.611,3.611,0,0,1-1.348-.876,3.649,3.649,0,0,1-.876-1.348,6.456,6.456,0,0,1-.4-2.178c-.055-1.238-.069-1.609-.069-4.74s.014-3.507.069-4.74a6.429,6.429,0,0,1,.4-2.178,3.567,3.567,0,0,1,.88-1.348A3.643,3.643,0,0,1,5.276,2.6a6.46,6.46,0,0,1,2.178-.4c1.238-.055,1.609-.069,4.74-.069s3.507.014,4.741.069a6.433,6.433,0,0,1,2.178.4,3.609,3.609,0,0,1,1.348.876,3.648,3.648,0,0,1,.876,1.348,6.459,6.459,0,0,1,.4,2.178c.055,1.238.069,1.609.069,4.74s-.014,3.5-.069,4.736Zm0,0" transform="translate(-0.449 0)"/><path class="c" d="M130.978,124.5a6.029,6.029,0,1,0,6.029,6.029A6.03,6.03,0,0,0,130.978,124.5Zm0,9.939a3.911,3.911,0,1,1,3.911-3.911A3.911,3.911,0,0,1,130.978,134.439Zm0,0" transform="translate(-119.241 -118.792)"/><path class="c" d="M365.265,90.009a1.407,1.407,0,1,1-1.408-1.407A1.408,1.408,0,0,1,365.265,90.009Zm0,0" transform="translate(-345.854 -84.54)"/></g></g></g></g></svg>