<svg xmlns="http://www.w3.org/2000/svg" width="43.25" height="43.25" viewBox="0 0 43.25 43.25"><defs><style>.a{fill:#fff;}.b{fill:#1b2749;}</style></defs><g transform="translate(-957.291 -4156.338)"><path class="a" d="M21.625,0A21.625,21.625,0,1,0,43.25,21.625,21.625,21.625,0,0,0,21.625,0Zm0,41.808A20.183,20.183,0,1,1,41.808,21.625,20.183,20.183,0,0,1,21.625,41.808Zm0,0" transform="translate(957.291 4156.338)"/><ellipse class="a" cx="17.763" cy="17.763" rx="17.763" ry="17.763" transform="translate(960.844 4159.89)"/><g transform="translate(969.199 4168.771)"><path class="b" d="M18.691,5.378a6.684,6.684,0,0,0-.425-2.219A4.686,4.686,0,0,0,15.589.482,6.7,6.7,0,0,0,13.37.057C12.391.011,12.08,0,9.6,0S6.8.011,5.826.054A6.686,6.686,0,0,0,3.607.479,4.463,4.463,0,0,0,1.985,1.537,4.5,4.5,0,0,0,.931,3.155,6.7,6.7,0,0,0,.506,5.374C.459,6.354.449,6.664.449,9.148s.011,2.794.054,3.77a6.684,6.684,0,0,0,.425,2.219A4.685,4.685,0,0,0,3.6,17.813a6.7,6.7,0,0,0,2.219.425c.975.043,1.286.054,3.77.054s2.794-.011,3.77-.054a6.682,6.682,0,0,0,2.219-.425,4.679,4.679,0,0,0,2.677-2.676,6.706,6.706,0,0,0,.425-2.219c.043-.976.054-1.286.054-3.77s0-2.794-.046-3.77Zm-1.647,7.468a5.014,5.014,0,0,1-.314,1.7,3.034,3.034,0,0,1-1.737,1.737,5.032,5.032,0,0,1-1.7.314c-.965.043-1.254.054-3.695.054s-2.734-.011-3.695-.054a5.011,5.011,0,0,1-1.7-.314A2.815,2.815,0,0,1,3.157,15.6a2.844,2.844,0,0,1-.683-1.051,5.032,5.032,0,0,1-.314-1.7c-.043-.965-.054-1.254-.054-3.695s.011-2.734.054-3.695a5.011,5.011,0,0,1,.314-1.7,2.78,2.78,0,0,1,.686-1.051A2.84,2.84,0,0,1,4.211,2.03a5.035,5.035,0,0,1,1.7-.314c.965-.043,1.254-.054,3.695-.054s2.734.011,3.695.054A5.014,5.014,0,0,1,15,2.03a2.813,2.813,0,0,1,1.051.682,2.843,2.843,0,0,1,.683,1.051,5.034,5.034,0,0,1,.314,1.7c.043.965.054,1.254.054,3.695s-.011,2.727-.054,3.691Zm0,0" transform="translate(-0.449 0)"/><path class="b" d="M129.648,124.5a4.7,4.7,0,1,0,4.7,4.7A4.7,4.7,0,0,0,129.648,124.5Zm0,7.747A3.048,3.048,0,1,1,132.7,129.2,3.049,3.049,0,0,1,129.648,132.247Zm0,0" transform="translate(-120.5 -120.051)"/><path class="b" d="M364.644,89.7a1.1,1.1,0,1,1-1.1-1.1A1.1,1.1,0,0,1,364.644,89.7Zm0,0" transform="translate(-349.514 -85.436)"/></g></g></svg>