<svg xmlns="http://www.w3.org/2000/svg" width="14.824" height="21.084" viewBox="0 0 14.824 21.084"><defs><style>.a{fill:#fff;}</style></defs><g transform="translate(-76)"><g transform="translate(76)"><path class="a" d="M83.412,0a7.414,7.414,0,0,0-6.306,11.31l5.884,9.482a.618.618,0,0,0,.525.292h0a.618.618,0,0,0,.525-.3l5.734-9.574A7.414,7.414,0,0,0,83.412,0Zm5.307,10.576-5.213,8.7-5.349-8.62a6.181,6.181,0,1,1,10.562-.084Z" transform="translate(-76)"/></g><g transform="translate(79.706 3.706)"><path class="a" d="M169.706,90a3.706,3.706,0,1,0,3.706,3.706A3.71,3.71,0,0,0,169.706,90Zm0,6.185a2.479,2.479,0,1,1,2.475-2.479A2.481,2.481,0,0,1,169.706,96.185Z" transform="translate(-166 -90)"/></g></g></svg>