<svg xmlns="http://www.w3.org/2000/svg" width="195" height="121.511" viewBox="0 0 195 121.511"><defs><style>.a,.b{fill:#fff;}.b{font-size:11px;font-family:Gotham-Book, Gotham;letter-spacing:0.287em;}</style></defs><g transform="translate(-298.709 -3659.954)"><g transform="translate(359.454 3659.954)"><g transform="translate(0 0)"><rect class="a" width="7.938" height="8.181" transform="translate(0 0)"/><path class="a" d="M839.282,390.724v32.32h16.039V439H863.5V414.863H847.221V390.724Z" transform="translate(-839.282 -374.362)"/><rect class="a" width="7.938" height="7.695" transform="translate(0 56.945)"/><rect class="a" width="8.019" height="8.181" transform="translate(64.722 0)"/><path class="a" d="M1016.717,390.161V414.3H1000.6v24.139h8.06V422.481l16.079-.081V389.918Z" transform="translate(-951.996 -373.798)"/><rect class="a" width="8.019" height="7.695" transform="translate(64.722 56.945)"/></g><path class="a" d="M892.517,390.724v15.958H908.96V439h7.857V406.925h16.2v-16.2h-8.1v7.857H900.7v-7.857Z" transform="translate(-876.478 -374.362)"/></g><g transform="translate(299.919 3750.322)"><path class="a" d="M641.882,637.588h6.256a4.866,4.866,0,0,1,3.523,1.193,3.092,3.092,0,0,1,.924,2.291v.038a3.135,3.135,0,0,1-1.771,2.907c1.559.6,2.522,1.5,2.522,3.311v.038c0,2.464-2,3.7-5.043,3.7h-6.41Zm5.621,5.448c1.309,0,2.136-.424,2.136-1.425v-.038c0-.885-.693-1.386-1.944-1.386h-2.926v2.849Zm.789,5.428c1.309,0,2.1-.462,2.1-1.463v-.038c0-.905-.674-1.463-2.194-1.463h-3.427v2.964Z" transform="translate(-641.882 -637.357)"/><path class="a" d="M686.026,643.828v-.039a7.164,7.164,0,0,1,14.322-.038v.038a7.164,7.164,0,0,1-14.322.039Zm11.223,0v-.039a4.094,4.094,0,0,0-4.081-4.235,4.03,4.03,0,0,0-4.042,4.2v.038a4.094,4.094,0,0,0,4.081,4.235A4.03,4.03,0,0,0,697.249,643.828Z" transform="translate(-672.726 -636.821)"/><path class="a" d="M740.329,643.828v-.039a7.164,7.164,0,0,1,14.322-.038v.038a7.164,7.164,0,0,1-14.322.039Zm11.223,0v-.039a4.094,4.094,0,0,0-4.081-4.235,4.03,4.03,0,0,0-4.042,4.2v.038a4.094,4.094,0,0,0,4.081,4.235A4.03,4.03,0,0,0,751.552,643.828Z" transform="translate(-710.668 -636.821)"/><path class="a" d="M796.612,637.588h2.964v5.89l5.467-5.89h3.58l-5.486,5.717,5.737,7.758h-3.561l-4.177-5.737-1.56,1.617v4.12h-2.964Z" transform="translate(-749.994 -637.357)"/><path class="a" d="M862.991,645.75l-5.178-8.162h3.465L864.493,643l3.272-5.409h3.369l-5.178,8.1v5.371h-2.965Z" transform="translate(-792.756 -637.357)"/><path class="a" d="M902.342,643.828v-.039a7.164,7.164,0,0,1,14.322-.038v.038a7.164,7.164,0,0,1-14.322.039Zm11.223,0v-.039a4.094,4.094,0,0,0-4.081-4.235,4.03,4.03,0,0,0-4.042,4.2v.038a4.094,4.094,0,0,0,4.081,4.235A4.03,4.03,0,0,0,913.565,643.828Z" transform="translate(-823.869 -636.821)"/><path class="a" d="M957.922,645.288v-7.7h2.965v7.623c0,2.194,1.1,3.33,2.907,3.33s2.907-1.1,2.907-3.234v-7.719h2.964v7.6c0,4.081-2.291,6.083-5.91,6.083S957.922,649.253,957.922,645.288Z" transform="translate(-862.704 -637.357)"/><path class="a" d="M1006.923,637.588h6.16a5.369,5.369,0,0,1,3.927,1.367,4.229,4.229,0,0,1,1.155,3.08v.038a4.185,4.185,0,0,1-2.887,4.177l3.292,4.812H1015.1l-2.887-4.312h-2.329v4.312h-2.964Zm5.967,6.545c1.444,0,2.272-.77,2.272-1.906v-.038c0-1.271-.885-1.925-2.329-1.925h-2.945v3.869Z" transform="translate(-896.941 -637.357)"/><path class="a" d="M1073.183,640.321h-4.1v-2.733h11.165v2.733h-4.1v10.741h-2.965Z" transform="translate(-940.373 -637.357)"/><path class="a" d="M1109.867,637.268h2.733l5.775,13.571h-3.1l-1.232-3.023h-5.7l-1.232,3.023h-3.022Zm3.119,7.931-1.79-4.37-1.79,4.37Z" transform="translate(-964.835 -637.133)"/><path class="a" d="M1158.4,637.588h6.256a4.867,4.867,0,0,1,3.523,1.193,3.092,3.092,0,0,1,.924,2.291v.038a3.135,3.135,0,0,1-1.771,2.907c1.559.6,2.521,1.5,2.521,3.311v.038c0,2.464-2,3.7-5.044,3.7h-6.41Zm5.621,5.448c1.309,0,2.137-.424,2.137-1.425v-.038c0-.885-.693-1.386-1.945-1.386h-2.926v2.849Zm.789,5.428c1.309,0,2.1-.462,2.1-1.463v-.038c0-.905-.674-1.463-2.195-1.463h-3.426v2.964Z" transform="translate(-1002.777 -637.357)"/><path class="a" d="M1204.52,637.588h2.965v10.78h6.718v2.7h-9.683Z" transform="translate(-1035.005 -637.357)"/><path class="a" d="M1244.064,637.588h10.164v2.637h-7.219v2.733h6.353V645.6h-6.353v2.83h7.315v2.637h-10.26Z" transform="translate(-1062.635 -637.357)"/></g><text class="b" transform="translate(298.709 3779.465)"><tspan x="0" y="0">Next Generation Dining</tspan></text></g></svg>