<svg xmlns="http://www.w3.org/2000/svg" width="109.221" height="67.486" viewBox="0 0 109.221 67.486"><defs><style>.a,.b{fill:#9eceff;}.b{font-size:4.6px;font-family:Gotham-Book, Gotham;letter-spacing:0.57em;}</style></defs><g transform="translate(-140 -55.514)"><g transform="translate(174.199 55.514)"><g transform="translate(0.001 0.001)"><rect class="a" width="4.506" height="4.644" transform="translate(0 0)"/><path class="a" d="M839.282,390.724v18.348h9.1v9.059h4.644v-13.7h-9.243v-13.7Z" transform="translate(-839.282 -381.435)"/><rect class="a" width="4.506" height="4.369" transform="translate(0 32.327)"/><rect class="a" width="4.552" height="4.644" transform="translate(36.741 0)"/><path class="a" d="M1009.749,390.056v13.7H1000.6v13.7h4.575V408.4l9.128-.046v-18.44Z" transform="translate(-973.007 -380.767)"/><rect class="a" width="4.552" height="4.369" transform="translate(36.741 32.327)"/></g><path class="a" d="M892.517,390.724v9.059h9.335v18.348h4.46v-18.21h9.2v-9.2h-4.6v4.46H897.161v-4.46Z" transform="translate(-883.411 -381.435)"/></g><g transform="translate(140.402 106.815)"><path class="a" d="M641.882,637.588h3.552a2.762,2.762,0,0,1,2,.677,1.755,1.755,0,0,1,.525,1.3v.022a1.78,1.78,0,0,1-1.005,1.65,1.869,1.869,0,0,1,1.432,1.879v.022c0,1.4-1.136,2.1-2.863,2.1h-3.639Zm3.191,3.092c.743,0,1.213-.241,1.213-.809v-.022c0-.5-.393-.787-1.1-.787h-1.661v1.617Zm.448,3.082c.743,0,1.191-.262,1.191-.831v-.022c0-.514-.383-.831-1.246-.831h-1.945v1.683Z" transform="translate(-641.882 -637.457)"/><path class="a" d="M686.026,640.8v-.022a4.067,4.067,0,0,1,8.13-.022v.022a4.067,4.067,0,0,1-8.13.022Zm6.371,0v-.022a2.324,2.324,0,0,0-2.317-2.4,2.288,2.288,0,0,0-2.295,2.382v.022a2.324,2.324,0,0,0,2.317,2.4A2.288,2.288,0,0,0,692.4,640.8Z" transform="translate(-678.475 -636.821)"/><path class="a" d="M740.329,640.8v-.022a4.067,4.067,0,0,1,8.13-.022v.022a4.067,4.067,0,0,1-8.13.022Zm6.371,0v-.022a2.324,2.324,0,0,0-2.317-2.4,2.288,2.288,0,0,0-2.295,2.382v.022a2.324,2.324,0,0,0,2.317,2.4A2.288,2.288,0,0,0,746.7,640.8Z" transform="translate(-723.491 -636.821)"/><path class="a" d="M796.612,637.588h1.683v3.344l3.1-3.344h2.032l-3.114,3.245,3.257,4.4h-2.022l-2.371-3.257-.885.918v2.339h-1.683Z" transform="translate(-770.147 -637.457)"/><path class="a" d="M860.753,642.221l-2.94-4.633h1.967l1.825,3.071,1.858-3.071h1.912l-2.939,4.6v3.049h-1.683Z" transform="translate(-820.881 -637.457)"/><path class="a" d="M902.342,640.8v-.022a4.067,4.067,0,0,1,8.13-.022v.022a4.067,4.067,0,0,1-8.13.022Zm6.371,0v-.022a2.324,2.324,0,0,0-2.317-2.4,2.287,2.287,0,0,0-2.295,2.382v.022a2.324,2.324,0,0,0,2.317,2.4A2.288,2.288,0,0,0,908.713,640.8Z" transform="translate(-857.794 -636.821)"/><path class="a" d="M957.922,641.959v-4.371H959.6v4.327c0,1.246.623,1.89,1.65,1.89s1.65-.623,1.65-1.836v-4.382h1.683V641.9c0,2.317-1.3,3.453-3.355,3.453A3.036,3.036,0,0,1,957.922,641.959Z" transform="translate(-903.868 -637.457)"/><path class="a" d="M1006.923,637.588h3.5a3.048,3.048,0,0,1,2.229.776,2.4,2.4,0,0,1,.656,1.749v.022a2.375,2.375,0,0,1-1.639,2.371l1.869,2.732h-1.967l-1.639-2.448h-1.322v2.448h-1.683Zm3.387,3.715c.82,0,1.29-.437,1.29-1.082V640.2c0-.721-.5-1.093-1.322-1.093h-1.672v2.2Z" transform="translate(-944.488 -637.457)"/><path class="a" d="M1071.411,639.14h-2.328v-1.552h6.338v1.552h-2.327v6.1h-1.683Z" transform="translate(-996.016 -637.457)"/><path class="a" d="M1107.37,637.268h1.552l3.278,7.7h-1.759l-.7-1.716h-3.235l-.7,1.716h-1.716Zm1.77,4.5-1.016-2.48-1.016,2.48Z" transform="translate(-1025.038 -637.192)"/><path class="a" d="M1158.4,637.588h3.552a2.763,2.763,0,0,1,2,.677,1.755,1.755,0,0,1,.524,1.3v.022a1.78,1.78,0,0,1-1.005,1.65,1.87,1.87,0,0,1,1.431,1.879v.022c0,1.4-1.136,2.1-2.863,2.1H1158.4Zm3.191,3.092c.743,0,1.213-.241,1.213-.809v-.022c0-.5-.393-.787-1.1-.787h-1.661v1.617Zm.448,3.082c.743,0,1.191-.262,1.191-.831v-.022c0-.514-.382-.831-1.246-.831h-1.945v1.683Z" transform="translate(-1070.053 -637.457)"/><path class="a" d="M1204.52,637.588h1.683v6.119h3.814v1.53h-5.5Z" transform="translate(-1108.289 -637.457)"/><path class="a" d="M1244.064,637.588h5.77v1.5h-4.1v1.552h3.606v1.5h-3.606v1.606h4.152v1.5h-5.824Z" transform="translate(-1141.069 -637.457)"/></g><text class="b" transform="translate(140 122)"><tspan x="0" y="0">Next Generation Dining</tspan></text></g></svg>