<svg xmlns="http://www.w3.org/2000/svg" width="15" height="15.067" viewBox="0 0 15 15.067"><defs><style>.a{fill:#fff;}</style></defs><path class="a" d="M12.972,36.387a1.573,1.573,0,0,0-1.141-.523,1.626,1.626,0,0,0-1.154.52L9.61,37.447c-.088-.047-.176-.091-.26-.135-.122-.061-.236-.118-.334-.179A11.592,11.592,0,0,1,6.238,34.6a6.839,6.839,0,0,1-.911-1.438c.277-.253.533-.516.783-.77.095-.095.189-.192.284-.287a1.549,1.549,0,0,0,0-2.336l-.921-.921c-.1-.1-.213-.213-.314-.321-.2-.209-.415-.425-.635-.628a1.6,1.6,0,0,0-1.131-.5,1.653,1.653,0,0,0-1.148.5l-.007.007L1.091,29.067a2.469,2.469,0,0,0-.732,1.569,5.917,5.917,0,0,0,.432,2.5,14.533,14.533,0,0,0,2.582,4.307,15.883,15.883,0,0,0,5.289,4.141,8.241,8.241,0,0,0,2.97.878c.071,0,.145.007.213.007a2.543,2.543,0,0,0,1.948-.837c0-.007.01-.01.014-.017a7.673,7.673,0,0,1,.591-.611c.145-.138.294-.284.439-.435a1.684,1.684,0,0,0,.51-1.168,1.622,1.622,0,0,0-.52-1.158Zm1.208,3.554s0,0,0,0c-.132.142-.267.27-.412.412a8.876,8.876,0,0,0-.651.675,1.627,1.627,0,0,1-1.269.537c-.051,0-.1,0-.155,0a7.321,7.321,0,0,1-2.633-.79,14.993,14.993,0,0,1-4.982-3.9,13.7,13.7,0,0,1-2.43-4.047A4.819,4.819,0,0,1,1.27,30.71a1.549,1.549,0,0,1,.466-1l1.151-1.151a.767.767,0,0,1,.513-.24.722.722,0,0,1,.493.236l.01.01c.206.192.4.392.608.6.1.108.213.216.321.327l.921.921a.644.644,0,0,1,0,1.046c-.1.1-.192.2-.29.29-.284.29-.554.56-.847.824-.007.007-.014.01-.017.017a.688.688,0,0,0-.176.766l.01.03a7.4,7.4,0,0,0,1.09,1.779l0,0a12.388,12.388,0,0,0,3,2.727,4.608,4.608,0,0,0,.415.226c.122.061.236.118.334.179.014.007.027.017.041.024a.732.732,0,0,0,.334.084.722.722,0,0,0,.513-.233l1.154-1.154a.764.764,0,0,1,.51-.253.687.687,0,0,1,.486.246l.007.007,1.86,1.86A.667.667,0,0,1,14.18,39.942Z" transform="translate(-0.344 -27.406)"/></svg>