<svg xmlns="http://www.w3.org/2000/svg" width="55.502" height="55.125" viewBox="0 0 55.502 55.125"><defs><style>.a{fill:#55acee;}.b{fill:#fff;}.c{fill:none;stroke:#55acee;}</style></defs><g transform="translate(0.499 0.5)"><g transform="translate(4.366 4.335)"><path class="a" d="M45.772,22.728A22.887,22.887,0,1,1,22.886,0,22.808,22.808,0,0,1,45.772,22.728Z"/><path class="b" d="M23.221,2.143a9.838,9.838,0,0,1-2.736.719,4.634,4.634,0,0,0,2.1-2.528,9.826,9.826,0,0,1-3.026,1.108A4.854,4.854,0,0,0,16.077,0a4.67,4.67,0,0,0-4.764,4.569,4.389,4.389,0,0,0,.123,1.042A13.723,13.723,0,0,1,1.617.835a4.4,4.4,0,0,0-.645,2.3,4.523,4.523,0,0,0,2.118,3.8A4.893,4.893,0,0,1,.932,6.365v.058A4.625,4.625,0,0,0,4.753,10.9a4.956,4.956,0,0,1-2.151.08,4.75,4.75,0,0,0,4.452,3.173,9.816,9.816,0,0,1-5.917,1.955A9.879,9.879,0,0,1,0,16.048,13.9,13.9,0,0,0,7.3,18.1a13.179,13.179,0,0,0,13.556-13c0-.2-.005-.394-.014-.591A9.462,9.462,0,0,0,23.221,2.143Z" transform="translate(11.474 13.674)"/></g><path class="c" d="M54.5,27.063A27.251,27.251,0,1,1,27.251,0,27.158,27.158,0,0,1,54.5,27.063Z" transform="translate(0.001 0)"/></g></svg>