<svg xmlns="http://www.w3.org/2000/svg" width="43.481" height="43.188" viewBox="0 0 43.481 43.188"><defs><style>.a{fill:#fff;}.b{fill:#1b2749;}.c{fill:none;stroke:#fff;}</style></defs><g transform="translate(-1009.992 -4156.012)"><path class="a" d="M35.676,17.715A17.839,17.839,0,1,1,17.838,0,17.778,17.778,0,0,1,35.676,17.715Z" transform="translate(1013.895 4159.891)"/><path class="b" d="M18.1,1.67a7.668,7.668,0,0,1-2.132.56A3.612,3.612,0,0,0,17.6.261a7.659,7.659,0,0,1-2.358.864A3.783,3.783,0,0,0,12.531,0,3.64,3.64,0,0,0,8.818,3.561a3.421,3.421,0,0,0,.1.812A10.7,10.7,0,0,1,1.26.651a3.43,3.43,0,0,0-.5,1.791A3.526,3.526,0,0,0,2.408,5.407,3.814,3.814,0,0,1,.726,4.961v.045A3.6,3.6,0,0,0,3.7,8.5a3.863,3.863,0,0,1-1.677.062A3.7,3.7,0,0,0,5.5,11.033,7.651,7.651,0,0,1,.886,12.557,7.7,7.7,0,0,1,0,12.508a10.835,10.835,0,0,0,5.691,1.6A10.272,10.272,0,0,0,16.257,3.974c0-.154,0-.307-.011-.461A7.375,7.375,0,0,0,18.1,1.67Z" transform="translate(1022.924 4170.548)"/><path class="c" d="M42.481,21.094A21.241,21.241,0,1,1,21.24,0,21.168,21.168,0,0,1,42.481,21.094Z" transform="translate(1010.492 4156.512)"/></g></svg>