<svg xmlns="http://www.w3.org/2000/svg" width="38.3" height="41.015" viewBox="0 0 38.3 41.015"><defs><style>.a{fill:#1b2749;stroke:#1b2749;stroke-width:0.3px;}</style></defs><g transform="translate(0.15 0.15)"><path class="a" d="M27.847,80H7.489A3.393,3.393,0,0,0,4.1,83.393v21.036a.679.679,0,1,0,1.357,0V83.393a2.036,2.036,0,0,1,2.036-2.036H27.847a2.036,2.036,0,0,1,2.036,2.036v28.5a2.036,2.036,0,1,1-4.071,0V108.5a1.357,1.357,0,0,0-1.357-1.357H.025A1.357,1.357,0,0,0-1.332,108.5v3.393a3.393,3.393,0,0,0,3.393,3.393H27.847a3.393,3.393,0,0,0,3.393-3.393v-28.5A3.393,3.393,0,0,0,27.847,80ZM2.061,113.929a2.036,2.036,0,0,1-2.036-2.036V108.5H24.454v3.393a3.392,3.392,0,0,0,.679,2.036Zm0,0" transform="translate(1.332 -74.571)"/><path class="a" d="M220.2,181.357a.679.679,0,1,0,0-1.357H209.347a.679.679,0,0,0,0,1.357Zm0,0" transform="translate(-194.418 -167.786)"/><path class="a" d="M158.668,240.678a.679.679,0,0,0,.679.679H173.6a.679.679,0,1,0,0-1.357h-14.25A.678.678,0,0,0,158.668,240.678Zm0,0" transform="translate(-147.811 -223.714)"/><path class="a" d="M159.347,301.357H173.6a.679.679,0,1,0,0-1.357h-14.25a.679.679,0,0,0,0,1.357Zm0,0" transform="translate(-147.811 -279.643)"/><path class="a" d="M159.347,361.357H173.6a.679.679,0,1,0,0-1.357h-14.25a.679.679,0,0,0,0,1.357Zm0,0" transform="translate(-147.811 -335.571)"/><path class="a" d="M159.347,421.357h11.536a.679.679,0,0,0,0-1.357H159.347a.679.679,0,0,0,0,1.357Zm0,0" transform="translate(-147.811 -391.5)"/><path class="a" d="M182.418,0H162.061a3.393,3.393,0,0,0-3.393,3.393.679.679,0,1,0,1.357,0,2.036,2.036,0,0,1,2.036-2.036h20.357a2.036,2.036,0,0,1,2.036,2.036v28.5a2.036,2.036,0,0,1-2.036,2.036.679.679,0,1,0,0,1.357,3.393,3.393,0,0,0,3.393-3.393V3.393A3.393,3.393,0,0,0,182.418,0Zm0,0" transform="translate(-147.811 0)"/></g></svg>