<svg xmlns="http://www.w3.org/2000/svg" width="43.08" height="38.194" viewBox="0 0 43.08 38.194"><defs><style>.a,.b{fill:#1b2749;}.a{stroke:#1b2749;}</style></defs><g transform="translate(-138.5 -1205.5)"><path class="a" d="M34.473,292.907,29.986,295.7a5.86,5.86,0,0,0-5.479-4.037l-4.561-.093a6.088,6.088,0,0,0-7.806,1.421,13.771,13.771,0,0,0-1.2,1.7H9.767v-.619a.822.822,0,0,0-.822-.822H.822a.822.822,0,0,0-.822.822v9.708a.822.822,0,0,0,.822.822H8.945a.822.822,0,0,0,.822-.822v-1.052l11.283,2.477a10.6,10.6,0,0,0,2.32.256,10.365,10.365,0,0,0,5.518-1.569c.063-.04,7.012-4.751,12.83-8.7a.822.822,0,0,0,.148-1.231,5.852,5.852,0,0,0-7.393-1.064ZM8.123,302.964H1.644V294.9H8.123ZM28,302.513a8.832,8.832,0,0,1-6.6,1.093L9.767,301.051V296.34h1.658a.822.822,0,0,0,.734-.452,10.716,10.716,0,0,1,1.257-1.859,4.445,4.445,0,0,1,5.848-.949.822.822,0,0,0,.426.13l4.79.1a4.217,4.217,0,0,1,3.936,2.879h-9.94a.822.822,0,0,0,0,1.644H29.442a.821.821,0,0,0,.434-.124l5.46-3.4a4.206,4.206,0,0,1,4.584.13c-4.456,3.021-11.636,7.888-11.918,8.077Z" transform="translate(139 937.727)"/><path class="b" d="M59.025,392.24a.822.822,0,0,0-.822.822v.6a.822.822,0,1,0,1.644,0v-.6A.822.822,0,0,0,59.025,392.24Z" transform="translate(84.441 844.727)"/><path class="a" d="M203.09,42.025H180.115a2.245,2.245,0,0,0-2.243,2.243V58.7a2.245,2.245,0,0,0,2.243,2.243H203.09a2.245,2.245,0,0,0,2.243-2.243V44.268A2.245,2.245,0,0,0,203.09,42.025Zm.6,16.676a.6.6,0,0,1-.6.6H180.115a.6.6,0,0,1-.6-.6V44.268a.6.6,0,0,1,.6-.6H203.09a.6.6,0,0,1,.6.6Z" transform="translate(-24.254 1163.975)"/><path class="b" d="M317.462,125.674a3.972,3.972,0,1,0,3.972,3.972A3.977,3.977,0,0,0,317.462,125.674Zm0,5.418a1.446,1.446,0,1,1,1.446-1.446A1.447,1.447,0,0,1,317.462,131.092Z" transform="translate(-150.114 1085.813)"/></g></svg>