<svg xmlns="http://www.w3.org/2000/svg" width="53.371" height="55.622" viewBox="0 0 53.371 55.622"><defs><style>.a{fill:#8d92a3;}</style></defs><g transform="translate(-1086.431 -1295.174)"><g transform="translate(1086.431 1295.174)"><g transform="translate(0 0)"><path class="a" d="M61.157,28.53a1.63,1.63,0,0,1,0-1.441l2.075-4.244a4.829,4.829,0,0,0-2.083-6.412l-4.173-2.214a1.63,1.63,0,0,1-.847-1.166L55.312,8.4a4.829,4.829,0,0,0-5.454-3.963L45.181,5.1a1.63,1.63,0,0,1-1.37-.445L40.416,1.37a4.828,4.828,0,0,0-6.742,0l-3.4,3.285a1.631,1.631,0,0,1-1.37.445l-4.677-.662A4.828,4.828,0,0,0,18.777,8.4l-.816,4.653a1.63,1.63,0,0,1-.847,1.166l-4.173,2.214a4.829,4.829,0,0,0-2.083,6.412l2.074,4.244a1.63,1.63,0,0,1,0,1.441l-2.075,4.244a4.829,4.829,0,0,0,2.083,6.412L17.114,41.4a1.63,1.63,0,0,1,.847,1.166l.816,4.653a4.826,4.826,0,0,0,4.76,4.012,4.962,4.962,0,0,0,.695-.049l4.677-.662a1.63,1.63,0,0,1,1.37.445l3.395,3.284a4.828,4.828,0,0,0,6.742,0l3.4-3.284a1.632,1.632,0,0,1,1.37-.445l4.677.662a4.828,4.828,0,0,0,5.454-3.963l.816-4.653a1.63,1.63,0,0,1,.847-1.166l4.173-2.214a4.829,4.829,0,0,0,2.083-6.412Zm-1.513,7.822-4.173,2.214a4.818,4.818,0,0,0-2.5,3.445l-.816,4.653A1.634,1.634,0,0,1,50.307,48l-4.677-.662a4.816,4.816,0,0,0-4.05,1.316l-3.4,3.284a1.634,1.634,0,0,1-2.281,0l-3.395-3.284a4.813,4.813,0,0,0-3.36-1.365,4.923,4.923,0,0,0-.69.049L23.782,48a1.634,1.634,0,0,1-1.845-1.341l-.816-4.653a4.817,4.817,0,0,0-2.5-3.445l-4.173-2.214a1.634,1.634,0,0,1-.7-2.169l2.075-4.244a4.818,4.818,0,0,0,0-4.258L13.74,21.436a1.634,1.634,0,0,1,.7-2.169l4.173-2.214a4.818,4.818,0,0,0,2.5-3.445l.816-4.653a1.634,1.634,0,0,1,1.845-1.341l4.677.662a4.818,4.818,0,0,0,4.05-1.316l3.4-3.284a1.634,1.634,0,0,1,2.281,0L41.58,6.96a4.817,4.817,0,0,0,4.05,1.316l4.677-.662a1.634,1.634,0,0,1,1.845,1.341l.816,4.653a4.817,4.817,0,0,0,2.5,3.445l4.173,2.214a1.634,1.634,0,0,1,.7,2.169L58.275,25.68a4.818,4.818,0,0,0,0,4.258l2.075,4.244A1.634,1.634,0,0,1,59.645,36.352Z" transform="translate(-10.359 0.002)"/></g></g><g transform="translate(1100.927 1310.796)"><path class="a" d="M167.7,144.261a1.6,1.6,0,0,0-2.268,0l-21.172,21.172a1.6,1.6,0,1,0,2.268,2.268L167.7,146.53A1.6,1.6,0,0,0,167.7,144.261Z" transform="translate(-143.791 -143.791)"/></g><g transform="translate(1100.819 1308.549)"><path class="a" d="M148.683,123.116A5.881,5.881,0,1,0,154.565,129,5.888,5.888,0,0,0,148.683,123.116Zm0,8.555A2.673,2.673,0,1,1,151.357,129,2.676,2.676,0,0,1,148.683,131.671Z" transform="translate(-142.802 -123.116)"/></g><g transform="translate(1113.651 1325.659)"><path class="a" d="M266.8,280.61a5.881,5.881,0,1,0,5.881,5.881A5.888,5.888,0,0,0,266.8,280.61Zm0,8.555a2.673,2.673,0,1,1,2.673-2.673A2.676,2.676,0,0,1,266.8,289.165Z" transform="translate(-260.922 -280.61)"/></g></g></svg>