<svg xmlns="http://www.w3.org/2000/svg" xmlns:xlink="http://www.w3.org/1999/xlink" width="38.3" height="45.204" viewBox="0 0 38.3 45.204"><defs><style>.a,.c{fill:#1b2749;}.a,.b{stroke:#1b2749;}.a{stroke-width:0.3px;}.b,.e,.f{fill:none;}.b{stroke-width:3px;}.d{stroke:none;}.e{clip-path:url(#b);}.f{clip-path:url(#d);}</style><clipPath id="b"><use xlink:href="#a"/></clipPath><clipPath id="d"><use xlink:href="#c"/></clipPath></defs><g transform="translate(-236.85 -4597.35)"><path class="a" d="M137.609,36.817c.506,0,.917-.295.917-.658V1.1c0-.6-.685-1.1-1.528-1.1H102.054c-.842,0-1.528.492-1.528,1.1V43.889c0,.559.634,1.015,1.413,1.015h3.254a1.386,1.386,0,0,0,1.384-.814,2.6,2.6,0,0,1,4.526,0,1.386,1.386,0,0,0,1.385.814h3.389a1.386,1.386,0,0,0,1.385-.814,2.6,2.6,0,0,1,4.526,0,1.386,1.386,0,0,0,1.385.814h3.389a1.386,1.386,0,0,0,1.385-.814,2.6,2.6,0,0,1,4.526,0,1.386,1.386,0,0,0,1.385.814h3.252c.78,0,1.414-.455,1.414-1.015V39.229c0-.363-.41-.658-.917-.658s-.917.295-.917.658v4.36h-2.5a4.768,4.768,0,0,0-7.954,0H123.5a4.768,4.768,0,0,0-7.954,0h-2.732a4.768,4.768,0,0,0-7.954,0h-2.5V1.316h34.333V36.159c0,.363.41.658.916.658Z" transform="translate(136.474 4597.5)"/><g class="b" transform="translate(241.667 4629.666)"><rect id="a" class="d" width="27.241" height="1.946"/><path class="e" d="M0,0.4459010362625122h27.240997314453125M25.740997314453125,0v1.9459010362625122M27.240997314453125,1.5h-27.240997314453125M1.5,1.9459010362625122v-1.9459010362625122"/></g><g class="b" transform="translate(241.667 4633.512)"><rect id="c" class="d" width="27.241" height="1.946"/><path class="f" d="M0,0.4459010362625122h27.240997314453125M25.740997314453125,0v1.9459010362625122M27.240997314453125,1.5h-27.240997314453125M1.5,1.9459010362625122v-1.9459010362625122"/></g><path class="c" d="M10.588,4.45A.413.413,0,0,0,11,4.038V2.663a.413.413,0,0,0-.413-.413H.413A.413.413,0,0,0,0,2.663V4.2a.413.413,0,0,0,.413.413H3.344a2.48,2.48,0,0,1,2.1.937H.413A.413.413,0,0,0,0,5.963V7.338a.413.413,0,0,0,.413.413H5.87A2.376,2.376,0,0,1,3.3,9.767H.413A.413.413,0,0,0,0,10.179V12a.413.413,0,0,0,.133.3l5.674,5.238a.413.413,0,0,0,.28.109H8.925a.413.413,0,0,0,.28-.716L4.018,12.148a4.71,4.71,0,0,0,4.755-4.4h1.816A.413.413,0,0,0,11,7.338V5.963a.413.413,0,0,0-.413-.413H8.571a4.709,4.709,0,0,0-.49-1.1Z" transform="translate(249.786 4605.057)"/></g></svg>