<svg xmlns="http://www.w3.org/2000/svg" width="24.767" height="24.767" viewBox="0 0 24.767 24.767"><defs><style>.a{fill:#009e46;}</style></defs><path class="a" d="M27.2,4.5H6.564A2.062,2.062,0,0,0,4.5,6.564V27.2a2.062,2.062,0,0,0,2.064,2.064H27.2A2.062,2.062,0,0,0,29.267,27.2V6.564A2.062,2.062,0,0,0,27.2,4.5Zm.258,22.445a.517.517,0,0,1-.516.516H6.822a.517.517,0,0,1-.516-.516V6.822a.517.517,0,0,1,.516-.516H26.945a.517.517,0,0,1,.516.516Z" transform="translate(-4.5 -4.5)"/><circle class="a" cx="6.57" cy="6.57" r="6.57" transform="translate(5.813 5.813)"/></svg>