<svg xmlns="http://www.w3.org/2000/svg" width="38.04" height="38.034" viewBox="0 0 38.04 38.034"><defs><style>.a{fill:#1b2749;stroke:#1b2749;stroke-width:0.2px;}</style></defs><g transform="translate(0.11 0.108)"><path class="a" d="M-567.891,206.928q.9.9,1.81,1.8,2.164,2.161,4.327,4.325a2.9,2.9,0,0,1,.337.361.673.673,0,0,1-.067.939.673.673,0,0,1-.938.072,2.515,2.515,0,0,1-.329-.306q-7.6-7.6-15.209-15.2c-.538-.537-1.117-1.031-1.658-1.565-.518-.511-1.005-1.052-1.516-1.57q-2-2.033-4.013-4.055-6.675-6.683-13.357-13.361a3.487,3.487,0,0,1-.43-.459.668.668,0,0,1,.1-.935.672.672,0,0,1,.905-.067,2.242,2.242,0,0,1,.328.306q3.263,3.258,6.518,6.523a1.155,1.155,0,0,0,.9.375q13.808-.013,27.616-.006c.916,0,1.1.191,1.1,1.107q0,10.258,0,20.516c0,.884-.2,1.087-1.083,1.087h-5.3Zm-11.525-18.083c-.077.943-.074.938.681,1.318a3.039,3.039,0,0,1,1.605,1.737.628.628,0,0,1-.237.832,1.323,1.323,0,0,1-.826.03c-.141-.035-.25-.279-.333-.449a1.835,1.835,0,0,0-3.1-.3.812.812,0,0,0,.092,1.256q2.429,2.417,4.859,4.833c1.229,1.228,2.443,2.472,3.681,3.692a.994.994,0,0,0,.613.274c1.243.025,2.488,0,3.731.019a.472.472,0,0,0,.516-.369,2.649,2.649,0,0,1,1.571-1.577.524.524,0,0,0,.383-.6q-.014-4.113,0-8.226a.474.474,0,0,0-.352-.526,2.683,2.683,0,0,1-1.585-1.564.553.553,0,0,0-.627-.407c-3.4.012-6.8.007-10.206.008C-579.1,188.826-579.246,188.838-579.417,188.845Zm-9.675-3.29-.1.165c.426.391.876.758,1.269,1.179a1.4,1.4,0,0,0,1.132.48q9.447-.026,18.894-.011c.705,0,.909.171,1,.813a1.448,1.448,0,0,0,1.413,1.37c.521.062.757.3.758.82q.009,5.085,0,10.17c0,.523-.231.75-.758.818a1.455,1.455,0,0,0-1.417,1.418c-.074.548-.3.749-.866.755-.69.007-1.38,0-2.069,0h-1.284l-.076.141c.483.462.952.941,1.459,1.375a1.2,1.2,0,0,0,.7.29c1.889.023,3.779.013,5.668.011.145,0,.29-.017.439-.027.009-.134.02-.222.02-.312q0-9.518.011-19.035c0-.447-.224-.425-.529-.425q-12.573,0-25.147,0Zm3.31,3.3,2.655,2.718a4.326,4.326,0,0,1,2.047-1.621.343.343,0,0,0,.176-.218c.021-.291.009-.584.009-.879Z" transform="translate(599.08 -176.763)"/><path class="a" d="M-596.889,225.126h23.58a3.756,3.756,0,0,1,.539.014.673.673,0,0,1,.632.7.681.681,0,0,1-.6.73,1.883,1.883,0,0,1-.4.019h-24.194c-.764,0-1.007-.236-1.007-.984q0-10.369,0-20.738c0-.755.236-.986,1-.988q1.462,0,2.923,0c.688,0,1.029.238,1.036.717s-.332.735-1.014.737c-.66,0-1.321.024-1.979-.009-.416-.021-.527.113-.526.527q.021,7.737.01,15.475C-596.889,222.565-596.889,223.808-596.889,225.126Z" transform="translate(598.542 -196.536)"/><path class="a" d="M-570.058,230.642c.812,0,1.6,0,2.394,0a2.035,2.035,0,0,1,.492.025.685.685,0,0,1,.577.747.669.669,0,0,1-.614.666,2.665,2.665,0,0,1-.448.017h-15.38c-.8,0-.935-.117-1.058-.889a1.455,1.455,0,0,0-1.314-1.276c-.681-.1-.851-.278-.851-.959q0-4.948,0-9.9c0-.692.174-.885.841-.967a1.442,1.442,0,0,0,1.327-1.31c.106-.712.28-.865.99-.867.36,0,.72-.012,1.079.007a.719.719,0,0,1,.716.717.677.677,0,0,1-.706.714c-.547-.05-.769.189-.973.657a2.547,2.547,0,0,1-1.505,1.343.412.412,0,0,0-.313.458q.021,3.461.022,6.922c0,.494-.034.989,0,1.481a.573.573,0,0,0,.281.411,3.083,3.083,0,0,1,1.7,1.7.521.521,0,0,0,.37.281c3.568.014,7.135.009,10.7.006a.944.944,0,0,0,.183-.051,4.934,4.934,0,0,0-.015-.825c-.019-.113-.189-.24-.317-.29a3.178,3.178,0,0,1-1.948-1.812c-.206-.527-.048-.891.423-1.052a.7.7,0,0,1,.915.418,1.769,1.769,0,0,0,2.179,1.086,1.47,1.47,0,0,1,.26-.068.719.719,0,0,1,.782.475.656.656,0,0,1-.259.83C-570.144,229.793-570.148,229.788-570.058,230.642Z" transform="translate(589.731 -205.327)"/><path class="a" d="M-563.454,239.442a2.318,2.318,0,0,1-2.536,2.366,2.491,2.491,0,0,1-2.219-2.149,2.426,2.426,0,0,1,2.431-2.588A2.388,2.388,0,0,1-563.454,239.442Zm-3.238-.055c-.007.6.323.918.96.926a.883.883,0,0,0,.809-.816.915.915,0,0,0-.87-.958A.846.846,0,0,0-566.692,239.387Z" transform="translate(576.565 -220.747)"/><path class="a" d="M-503,239.5a2.271,2.271,0,0,1-2.361,2.295,2.34,2.34,0,0,1-2.343-2.556,2.379,2.379,0,0,1,2.463-2.179A2.374,2.374,0,0,1-503,239.5Zm-2.373.79a.818.818,0,0,0,.885-.845.855.855,0,0,0-.876-.917.974.974,0,0,0-.9.892A.949.949,0,0,0-505.369,240.294Z" transform="translate(532.437 -220.74)"/></g></svg>