<svg xmlns="http://www.w3.org/2000/svg" width="18" height="21.599" viewBox="0 0 18 21.599"><defs><style>.a{fill:#7f8592;}</style></defs><g transform="translate(-40.968 0.994)"><g transform="translate(40.968 -0.994)"><g transform="translate(0 0)"><path class="a" d="M58.96,3.612a.327.327,0,0,0-.163-.239l-4.2-4.2a.327.327,0,0,0-.239-.163.308.308,0,0,0-.094-.006H44.208a1.061,1.061,0,0,0-1.08,1.08v1.08h-1.08a1.061,1.061,0,0,0-1.08,1.08V19.525a1.061,1.061,0,0,0,1.08,1.08H55.727a1.061,1.061,0,0,0,1.08-1.08v-1.08h1.08a1.061,1.061,0,0,0,1.08-1.08V3.706A.307.307,0,0,0,58.96,3.612Zm-1.218-.285H55.007a.34.34,0,0,1-.36-.36V.231Zm-1.656,16.2a.34.34,0,0,1-.36.36H42.048a.34.34,0,0,1-.36-.36V2.246a.361.361,0,0,1,.36-.36h1.08V17.365a1.061,1.061,0,0,0,1.08,1.08H56.087v1.08Zm2.16-2.16a.34.34,0,0,1-.36.36H44.208a.34.34,0,0,1-.36-.36V.087a.361.361,0,0,1,.36-.36h9.719v3.24a1.061,1.061,0,0,0,1.08,1.08h3.24Z" transform="translate(-40.968 0.994)"/><path class="a" d="M150.442,100.476h6.479a.36.36,0,0,0,0-.72h-6.479a.36.36,0,0,0,0,.72Z" transform="translate(-145.402 -95.435)"/><path class="a" d="M150.082,150.476a.34.34,0,0,0,.36.36h10.8a.36.36,0,1,0,0-.72h-10.8A.34.34,0,0,0,150.082,150.476Z" transform="translate(-145.402 -143.635)"/><path class="a" d="M161.241,200.477h-10.8a.36.36,0,0,0,0,.72h10.8a.36.36,0,0,0,0-.72Z" transform="translate(-145.402 -191.837)"/><path class="a" d="M161.241,250.837h-10.8a.36.36,0,1,0,0,.72h10.8a.36.36,0,0,0,0-.72Z" transform="translate(-145.402 -240.037)"/><path class="a" d="M161.241,301.2h-10.8a.36.36,0,0,0,0,.72h10.8a.36.36,0,0,0,0-.72Z" transform="translate(-145.402 -288.238)"/><path class="a" d="M161.241,351.559h-10.8a.36.36,0,1,0,0,.72h10.8a.36.36,0,0,0,0-.72Z" transform="translate(-145.402 -336.439)"/></g></g></g></svg>