<svg xmlns="http://www.w3.org/2000/svg" width="18.131" height="16.168" viewBox="0 0 18.131 16.168"><defs><style>.a{fill:#7f8592;stroke:#7f8592;stroke-width:0.2px;}</style></defs><g transform="translate(0.132 -27.684)"><g transform="translate(-0.001 27.798)"><g transform="translate(0 0)"><path class="a" d="M17.708,34.1,9.224,27.887a.465.465,0,0,0-.549,0L.19,34.1a.465.465,0,0,0,.549.75l8.21-6.011,8.21,6.011a.465.465,0,0,0,.549-.75Z" transform="translate(0.001 -27.798)"/></g></g><g transform="translate(1.973 34.955)"><g transform="translate(0 0)"><path class="a" d="M69.939,232.543a.465.465,0,0,0-.465.465v7.4h-3.72V236.37a2.325,2.325,0,0,0-4.651,0v4.041h-3.72v-7.4a.465.465,0,1,0-.93,0v7.868a.465.465,0,0,0,.465.465h4.651a.465.465,0,0,0,.463-.429.35.35,0,0,0,0-.036V236.37a1.4,1.4,0,1,1,2.791,0v4.506a.343.343,0,0,0,0,.036.465.465,0,0,0,.463.429h4.651a.465.465,0,0,0,.465-.465v-7.868A.465.465,0,0,0,69.939,232.543Z" transform="translate(-56.452 -232.543)"/></g></g></g></svg>