<svg xmlns="http://www.w3.org/2000/svg" width="17.625" height="21.226" viewBox="0 0 17.625 21.226"><defs><style>.a{fill:#7f8592;stroke:#fff;stroke-width:0.2px;}</style></defs><g transform="translate(-6.662 -3.83)"><path class="a" d="M18.938,28.336a.681.681,0,0,0-.667.536,1.317,1.317,0,0,1-.263.573.993.993,0,0,1-.846.31,1.01,1.01,0,0,1-.846-.31,1.317,1.317,0,0,1-.263-.573.681.681,0,0,0-.667-.536h0a.685.685,0,0,0-.667.836,2.348,2.348,0,0,0,2.444,1.95,2.344,2.344,0,0,0,2.444-1.95.688.688,0,0,0-.667-.836Z" transform="translate(-1.703 -6.165)"/><path class="a" d="M23.956,19.5c-.838-1.067-2.487-1.692-2.487-6.469,0-4.9-2.243-6.874-4.333-7.347-.2-.047-.337-.11-.337-.31V5.223A1.311,1.311,0,0,0,15.492,3.93h-.033a1.311,1.311,0,0,0-1.306,1.293v.152c0,.194-.142.263-.337.31-2.1.478-4.333,2.444-4.333,7.347,0,4.777-1.649,5.4-2.487,6.469a1.041,1.041,0,0,0,.865,1.671H23.106A1.041,1.041,0,0,0,23.956,19.5Zm-2.123.3H9.14a.23.23,0,0,1-.18-.384A6.343,6.343,0,0,0,10.1,17.668a11.541,11.541,0,0,0,.778-4.635,7.843,7.843,0,0,1,1.138-4.562,3.5,3.5,0,0,1,2.106-1.45,1.924,1.924,0,0,0,1.012-.552.441.441,0,0,1,.648-.011,1.99,1.99,0,0,0,1.023.562,3.5,3.5,0,0,1,2.106,1.45,7.843,7.843,0,0,1,1.138,4.562,11.541,11.541,0,0,0,.778,4.635A6.418,6.418,0,0,0,22,19.449.217.217,0,0,1,21.833,19.807Z" transform="translate(0 0)"/></g></svg>