<svg xmlns="http://www.w3.org/2000/svg" width="18" height="19.419" viewBox="0 0 18 19.419"><defs><style>.a{fill:#7f8592;}</style></defs><g transform="translate(-17.219)"><g transform="translate(17.219)"><path class="a" d="M25.89,18.306H20.825a2.5,2.5,0,0,1-2.493-2.493V3.606a2.5,2.5,0,0,1,2.493-2.493h5.147a.556.556,0,0,0,0-1.113H20.825a3.61,3.61,0,0,0-3.606,3.606V15.813a3.61,3.61,0,0,0,3.606,3.606H25.89a.556.556,0,0,0,0-1.113Z" transform="translate(-17.219)"/><path class="a" d="M134.1,140.025l-3.536-3.536a.557.557,0,1,0-.787.787l2.588,2.588H121.075a.556.556,0,0,0,0,1.113h11.288l-2.588,2.588a.558.558,0,0,0,.392.952.543.543,0,0,0,.391-.165l3.536-3.536A.556.556,0,0,0,134.1,140.025Z" transform="translate(-116.262 -130.707)"/></g></g></svg>