<svg xmlns="http://www.w3.org/2000/svg" width="18" height="17.587" viewBox="0 0 18 17.587"><defs><style>.a{fill:#7f8592;}</style></defs><g transform="translate(-44.668 -86.906)"><path class="a" d="M268.23,258.074a4.882,4.882,0,1,1,4.89-4.858A4.879,4.879,0,0,1,268.23,258.074Zm-4.014-4.9a4.018,4.018,0,1,0,4.02-4A4.013,4.013,0,0,0,264.216,253.171Z" transform="translate(-214.564 -158.366)"/><path class="a" d="M62.662,96.232a1.6,1.6,0,0,0-.641-1.4,1.054,1.054,0,0,1-.521-1,1.3,1.3,0,0,0-.029-.2,7.893,7.893,0,0,0-15.679.587.618.618,0,0,1-.237.41,1.848,1.848,0,0,0-.87,1.542c-.019.723-.025,1.448,0,2.17a1.839,1.839,0,0,0,1.367,1.743,1.231,1.231,0,0,0,1.676-1.227c.017-1.092,0-2.184,0-3.276a1.181,1.181,0,0,0-.813-1.159l-.244-.1a7.009,7.009,0,0,1,13.989.021c-.587.174-1.023.5-1.036,1.132-.025,1.187-.015,2.375,0,3.562a.953.953,0,0,0,.649.957.554.554,0,0,1,.438.716c-.017.135,0,.273-.009.409a1.762,1.762,0,0,1-1.505,1.6,9.494,9.494,0,0,1-1.35.011.473.473,0,0,1-.294-.219,1.186,1.186,0,0,0-.918-.615,11.127,11.127,0,0,0-1.715,0,1.24,1.24,0,0,0-1.107,1.345,1.262,1.262,0,0,0,1.238,1.228,7.354,7.354,0,0,0,1.43-.015,1.4,1.4,0,0,0,.905-.448.914.914,0,0,1,.966-.4,7.387,7.387,0,0,0,.94-.031,2.494,2.494,0,0,0,2.146-1.82,6.516,6.516,0,0,0,.115-1.379.554.554,0,0,1,.268-.537,1.772,1.772,0,0,0,.841-1.551Q62.675,97.256,62.662,96.232Zm-15.788-.581q0,.8,0,1.6c0,.518.007,1.037,0,1.555-.007.411-.223.559-.615.44a.98.98,0,0,1-.707-.906c-.016-.723-.018-1.446,0-2.169a.958.958,0,0,1,.822-.931C46.693,95.188,46.874,95.31,46.874,95.651Zm9.6,7.967H55.034a.449.449,0,1,1,0-.9h1.436a.449.449,0,1,1,0,.9Zm5.323-5.294a1,1,0,0,1-.815.945c-.312.047-.508-.063-.508-.409,0-1.064-.006-2.128,0-3.191,0-.363.174-.487.526-.425a.959.959,0,0,1,.794.912c.018.367,0,.736,0,1.1S61.808,97.97,61.792,98.324Z"/><path class="a" d="M499.271,443.57h-.261a.33.33,0,0,1-.33-.33v-3.35a.33.33,0,0,1,.33-.33h.261a.33.33,0,0,1,.33.33v3.35A.33.33,0,0,1,499.271,443.57Z" transform="translate(-445.465 -346.016)"/><path class="a" d="M492.021,358.9h-.34a.431.431,0,0,1-.431-.431v-.356a.431.431,0,0,1,.431-.431h.34a.431.431,0,0,1,.43.431v.356A.43.43,0,0,1,492.021,358.9Z" transform="translate(-438.175 -265.677)"/></g></svg>