<svg xmlns="http://www.w3.org/2000/svg" xmlns:xlink="http://www.w3.org/1999/xlink" width="1799.154" height="1275.74" viewBox="0 0 1799.154 1275.74"><defs><style>.a,.b,.c,.d,.e,.f,.g,.h{fill-rule:evenodd;}.a{fill:url(#a);}.b{fill:url(#c);}.c{fill:url(#d);}.d{fill:url(#f);}.e{fill:url(#g);}.f{fill:none;stroke:#f06d8d;stroke-width:3px;}.g{fill:url(#h);}.h{fill:url(#i);}</style><linearGradient id="a" x1="1.243" y1="-0.012" x2="-0.157" y2="1.119" gradientUnits="objectBoundingBox"><stop offset="0" stop-color="#1162d7"/><stop offset="0.662" stop-color="#78f3e3"/><stop offset="1" stop-color="#52e5bb"/></linearGradient><linearGradient id="c" x1="-0.243" y1="-0.012" x2="1.157" y2="1.119" xlink:href="#a"/><linearGradient id="d" x1="1.243" y1="-0.012" x2="-0.157" y2="1.119" xlink:href="#a"/><linearGradient id="f" x1="0.594" y1="-0.012" x2="0.417" y2="1.119" xlink:href="#a"/><linearGradient id="g" x1="0.406" y1="-0.012" x2="0.583" y2="1.119" xlink:href="#a"/><linearGradient id="h" x1="1" x2="0" y2="1" gradientUnits="objectBoundingBox"><stop offset="0" stop-color="#ff8960"/><stop offset="1" stop-color="#ff62a5"/></linearGradient><linearGradient id="i" x1="0.883" x2="0.117" xlink:href="#h"/></defs><g transform="translate(-81.426 -94.166)"><path class="a" d="M114.844,90.411A101.039,101.039,0,0,1,93.375,28.634L93.284,10.4,81.438,20.027A101.081,101.081,0,0,1,16,42.622L0,42.348,10.117,55.666A101.077,101.077,0,0,1,30.545,111.04l1.406,24.592L48.008,123.95a101.034,101.034,0,0,1,54.8-19.229l22.418-1.035Z" transform="translate(82.701 517.437)"/><path class="a" d="M63.46,28.814a29.655,29.655,0,0,1-6.3-18.128l-.023-5.351L53.659,8.157a29.686,29.686,0,0,1-19.207,6.635l-4.691-.08,2.971,3.906a29.7,29.7,0,0,1,5.993,16.247l.407,7.215,4.714-3.424a29.651,29.651,0,0,1,16.081-5.643l6.578-.3Z" transform="translate(364.361 163.798)"/><path class="b" d="M32.806,28.814a29.656,29.656,0,0,0,6.3-18.128l.023-5.351,3.475,2.822a29.686,29.686,0,0,0,19.206,6.635l4.691-.08-2.971,3.906a29.7,29.7,0,0,0-5.993,16.247l-.407,7.215L52.42,38.656a29.651,29.651,0,0,0-16.081-5.643l-6.578-.3Z" transform="translate(1809.678 1270.637)"/><path class="c" d="M37.936,26.4a31.476,31.476,0,0,1-6.69-19.241l-.03-5.679L27.533,4.475A31.475,31.475,0,0,1,7.148,11.518l-4.979-.085,3.153,4.145a31.526,31.526,0,0,1,6.361,17.244l.432,7.664,5-3.64a31.52,31.52,0,0,1,17.068-5.99l6.982-.323Z" transform="translate(79.258 449.045)"/><path class="c" d="M233.33,116.821A56.612,56.612,0,0,1,221.3,82.214L221.243,72l-6.623,5.386a56.61,56.61,0,0,1-36.664,12.667L169,89.9l5.671,7.455a56.7,56.7,0,0,1,11.44,31.015l.777,13.783,9-6.547a56.69,56.69,0,0,1,30.7-10.773l12.557-.58Z" transform="translate(1641.438 1009.086)"/><path class="d" d="M86.357,0l3.235,4.737c-16.649,11.378-29.92,32.93-33.808,54.9-2.334,13.191-2.34,32.764,10.977,51.4L62.1,114.379C50.651,98.344,46.516,79.1,50.141,58.64,54.281,35.224,68.5,12.2,86.357,0" transform="translate(454.82 138.536)"/><path class="e" d="M52.1,0,48.865,4.737c16.649,11.378,29.919,32.93,33.808,54.9,2.334,13.19,2.34,32.764-10.977,51.4l4.663,3.338C87.806,98.344,91.941,79.1,88.316,58.64,84.175,35.224,69.958,12.2,52.1,0" transform="translate(1720.846 1255.527)"/><path class="f" d="M131,398.175s1.285-18.768,12.459-28.453c19.723-17.078,36-4.208,48.771-17.8,15.877-16.9-2.757-33.067,12.452-49.26,17.873-19.022,32.959.921,49.83-17.049,17.662-18.79,3.534-40.075,20.195-57.8,8.664-9.228,14.607-9.083,26.413-10.788,12.735-1.835,22.35,1.857,33.206-9.75,14.259-15.286-1.879-34.01,15.776-52.807,16.886-17.963,31.965,1.981,49.837-17.041,15.209-16.2-3.418-32.364,12.452-49.26,12.771-13.6,29.78.08,48.771-17.81C476.676,55.743,470.849,39,474.746,30.315,481.574,15.116,503.227,15,503.227,15" transform="translate(1283.5 80.666)"/><path class="g" d="M180.231,32.888c-1.074-3.43-5.745-7.6-15.822-4.188-7.219,2.441-18.806,9.32-24.417,14.285,2.912-7.212,5.807-21.2,5.807-29.153C145.8,2.811,140.222,0,136.759,0s-8.71,3.347-8.71,14.368c0,7.915,2.708,21.516,5.5,28.607-5.683-5.113-17.562-12.307-24.825-14.766-10.078-3.4-14.357,1.248-15.432,4.679s.364,9.662,10.433,13.065c7.219,2.45,20.475,3.976,27.827,3.384-6.428,4.059-16.666,13.6-21.158,20.027-6.215,8.922-3.294,14.609-.5,16.726s8.941,2.635,15.165-6.287c4.457-6.4,9.953-19.056,11.694-26.518C138.473,60.9,144.022,74,148.506,80.432c6.224,8.913,12.315,7.776,15.121,5.659s5.159-8.035-1.057-16.957c-4.466-6.389-14.339-15.746-20.608-19.777,7.485.666,21.158-.8,28.421-3.245,10.069-3.4,10.912-9.8,9.847-13.222" transform="translate(974.416 94.745)"/><path class="h" d="M81.631,123.648c-.87-2.884-4.651-6.389-12.811-3.521-5.845,2.052-15.227,7.835-19.771,12.009,2.358-6.063,4.7-17.823,4.7-24.508C53.751,98.363,49.236,96,46.432,96s-7.053,2.814-7.053,12.079a85.189,85.189,0,0,0,4.457,24.049c-4.6-4.3-14.22-10.346-20.1-12.413-8.16-2.86-11.625,1.049-12.5,3.933s.295,8.122,8.447,10.983c5.845,2.06,16.579,3.342,22.531,2.845-5.205,3.412-13.494,11.434-17.132,16.836-5.033,7.5-2.667,12.281-.4,14.061s7.24,2.215,12.279-5.285c3.609-5.379,8.059-16.02,9.468-22.292,1.388,6.4,5.881,17.411,9.511,22.821,5.04,7.493,9.972,6.537,12.243,4.757s4.177-6.755-.855-14.255a76.428,76.428,0,0,0-16.686-16.626c6.061.56,17.132-.669,23.013-2.728,8.153-2.86,8.836-8.239,7.973-11.115" transform="matrix(0.996, 0.087, -0.087, 0.996, 85.252, 1025.379)"/></g></svg>