<svg xmlns="http://www.w3.org/2000/svg" xmlns:xlink="http://www.w3.org/1999/xlink" width="79.432" height="79.432" viewBox="0 0 79.432 79.432"><defs><style>.a{fill:url(#a);}.b{fill:#fff;}</style><linearGradient id="a" y1="0.5" x2="1" y2="0.5" gradientUnits="objectBoundingBox"><stop offset="0" stop-color="#fd5"/><stop offset="0.5" stop-color="#ff543e"/><stop offset="1" stop-color="#c837ab"/></linearGradient></defs><ellipse class="a" cx="39.716" cy="39.716" rx="39.716" ry="39.716"/><g transform="translate(18.683 19.858)"><path class="b" d="M41.236,12.024a14.945,14.945,0,0,0-.951-4.962A10.477,10.477,0,0,0,34.3,1.079,14.983,14.983,0,0,0,29.339.128C27.15.024,26.455,0,20.9,0s-6.248.024-8.429.12a14.949,14.949,0,0,0-4.961.951A9.979,9.979,0,0,0,3.884,3.436,10.07,10.07,0,0,0,1.527,7.055a14.985,14.985,0,0,0-.951,4.961C.473,14.206.449,14.9.449,20.454s.024,6.248.12,8.429a14.944,14.944,0,0,0,.951,4.962A10.475,10.475,0,0,0,7.5,39.829a14.985,14.985,0,0,0,4.962.951c2.181.1,2.876.12,8.429.12s6.248-.024,8.429-.12a14.941,14.941,0,0,0,4.961-.951,10.461,10.461,0,0,0,5.984-5.984,15,15,0,0,0,.951-4.962c.1-2.181.12-2.876.12-8.429s-.008-6.248-.1-8.429Zm-3.683,16.7a11.21,11.21,0,0,1-.7,3.8A6.784,6.784,0,0,1,32.966,36.4a11.25,11.25,0,0,1-3.8.7c-2.157.1-2.8.12-8.261.12S14.8,37.2,12.649,37.1a11.2,11.2,0,0,1-3.8-.7A6.293,6.293,0,0,1,6.5,34.875a6.359,6.359,0,0,1-1.526-2.349,11.252,11.252,0,0,1-.7-3.8c-.1-2.157-.12-2.8-.12-8.261s.024-6.112.12-8.261a11.2,11.2,0,0,1,.7-3.8A6.216,6.216,0,0,1,6.513,6.064,6.349,6.349,0,0,1,8.862,4.538a11.258,11.258,0,0,1,3.8-.7c2.157-.1,2.8-.12,8.261-.12s6.112.024,8.261.12a11.21,11.21,0,0,1,3.8.7,6.289,6.289,0,0,1,2.349,1.526A6.357,6.357,0,0,1,36.85,8.413a11.256,11.256,0,0,1,.7,3.8c.1,2.157.12,2.8.12,8.261s-.024,6.1-.12,8.253Zm0,0" transform="translate(-0.449 0)"/><path class="b" d="M135.455,124.5a10.506,10.506,0,1,0,10.506,10.506A10.509,10.509,0,0,0,135.455,124.5Zm0,17.322a6.815,6.815,0,1,1,6.815-6.815A6.816,6.816,0,0,1,135.455,141.822Zm0,0" transform="translate(-115.002 -114.553)"/><path class="b" d="M367.355,91.055A2.453,2.453,0,1,1,364.9,88.6,2.453,2.453,0,0,1,367.355,91.055Zm0,0" transform="translate(-333.527 -81.523)"/></g></svg>