<svg xmlns="http://www.w3.org/2000/svg" width="79.768" height="79.218" viewBox="0 0 79.768 79.218"><defs><style>.a{fill:#55acee;}.b{fill:#fff;}</style></defs><path class="a" d="M79.768,39.609A39.885,39.885,0,1,1,39.884,0,39.749,39.749,0,0,1,79.768,39.609Z"/><path class="b" d="M40.467,3.735A17.144,17.144,0,0,1,35.7,4.988,8.076,8.076,0,0,0,39.352.583a17.124,17.124,0,0,1-5.273,1.932A8.459,8.459,0,0,0,28.017,0a8.138,8.138,0,0,0-8.3,7.963,7.648,7.648,0,0,0,.214,1.816A23.915,23.915,0,0,1,2.818,1.456a7.67,7.67,0,0,0-1.125,4A7.883,7.883,0,0,0,5.385,12.09a8.528,8.528,0,0,1-3.761-1v.1A8.06,8.06,0,0,0,8.284,19a8.637,8.637,0,0,1-3.749.139,8.279,8.279,0,0,0,7.758,5.53A17.106,17.106,0,0,1,1.981,28.077,17.218,17.218,0,0,1,0,27.967a24.226,24.226,0,0,0,12.725,3.578C28,31.545,36.35,19.409,36.35,8.885c0-.345-.009-.687-.024-1.03A16.489,16.489,0,0,0,40.467,3.735Z" transform="translate(19.996 23.83)"/></svg>