<svg xmlns="http://www.w3.org/2000/svg" xmlns:xlink="http://www.w3.org/1999/xlink" width="602.303" height="876.309" viewBox="0 0 602.303 876.309"><defs><style>.a{fill:#fff;}.b{fill:#6e7a96;}.c{fill:#f79c8d;}.d{fill:#d34a07;}.e{fill:#fa6300;}.f{fill:#ffba9a;}.g{fill:#141917;}.h{fill:#0e1110;}.i{fill:#acb8d1;}.j{fill:#302002;}.k{fill:#f47458;}.l{fill:#32324c;}.m{fill:#f88968;}.n{filter:url(#g);}.o{filter:url(#e);}.p{filter:url(#c);}.q{filter:url(#a);}</style><filter id="a" x="0" y="83.997" width="602.303" height="632.666" filterUnits="userSpaceOnUse"><feOffset dx="30" dy="7" input="SourceAlpha"/><feGaussianBlur stdDeviation="10" result="b"/><feFlood flood-opacity="0.4"/><feComposite operator="in" in2="b"/><feComposite in="SourceGraphic"/></filter><filter id="c" x="201.963" y="772.199" width="130.651" height="103.856" filterUnits="userSpaceOnUse"><feOffset dx="30" dy="7" input="SourceAlpha"/><feGaussianBlur stdDeviation="10" result="d"/><feFlood flood-opacity="0.4"/><feComposite operator="in" in2="d"/><feComposite in="SourceGraphic"/></filter><filter id="e" x="373.249" y="779.537" width="187.569" height="96.772" filterUnits="userSpaceOnUse"><feOffset dx="30" dy="7" input="SourceAlpha"/><feGaussianBlur stdDeviation="10" result="f"/><feFlood flood-opacity="0.4"/><feComposite operator="in" in2="f"/><feComposite in="SourceGraphic"/></filter><filter id="g" x="168.522" y="289.452" width="406.924" height="206.529" filterUnits="userSpaceOnUse"><feOffset dx="30" dy="7" input="SourceAlpha"/><feGaussianBlur stdDeviation="10" result="h"/><feFlood flood-opacity="0.4"/><feComposite operator="in" in2="h"/><feComposite in="SourceGraphic"/></filter></defs><g transform="translate(2243.121 400.507)"><path class="a" d="M-2216.557,437.309h-16.053l59.824-310.851L-2159.44,129Z"/><path class="a" d="M-1773.925,435.912l13.345-2.538-57.666-306.917L-1831.592,129Z"/><path class="a" d="M-1922.659,437.309h-16.053l59.823-310.851,13.346,2.538Z"/><path class="a" d="M-2070.292,437.309l13.033.156-57.354-309.61-13.346,2.538Z"/><g class="q" transform="matrix(1, 0, 0, 1, -2243.12, -400.51)"><path class="a" d="M-2012.065-292.183c-52.848,5.68-121.241,11.67-189.9,128.58C-2277-35.825-2237.5,155.042-2178.276,208.08S-1925.609,326.61-1763,228.568c0,0,98.185-59.416,47.8-158.023-77.544-151.746-66.588-183.389-101.259-242.858S-1899.886-304.236-2012.065-292.183Z" transform="translate(2243.12 400.51)"/></g><path class="b" d="M-2201.965-163.6c46.863-79.795,93.6-107.912,135.355-119.532-16.151,16.771-32.525,38.345-48.915,66.254-75.04,127.776-35.538,318.642,23.689,371.682,52.525,47.036,210.6,103.844,359.116,47.728A151.053,151.053,0,0,1-1763,228.568c-162.611,98.041-356.05,32.552-415.278-20.488S-2277-35.826-2201.965-163.6Z"/><path class="c" d="M-1842.394-97.968l13.584,40.889-41.4-16.338Z"/><path class="d" d="M-1885.069-219.648c2.759.113,10.321,2.644,21.38,23.544,14.123,26.689,34.763,107.313,34.763,107.313l-61.611,22.945-7.914-16.828-13.037-129.555S-1885.834-219.68-1885.069-219.648Z"/><path class="e" d="M-1966.512-231.269c17.618.022,61.209,5.163,81.442,11.626,0,0,14.864,127.75-13.381,224.821-6.323,21.73,5.229,90.078,5.229,90.078l-182.56-2.409s21.627-165.234,13.48-191.924-8.342-119.706-8.342-119.706,1.251-.195,41.017-7.069A412.987,412.987,0,0,1-1966.512-231.269Z"/><path class="f" d="M-1987.785,332.364s4.039,46.614,11.465,59.522-.391,34.854-.782,37.865-15.633,7.315-39.864,4.734-23.842-8.176-21.887-17.211,14.852-20.654,15.633-29.259-7.426-39.587-7.426-39.587Z"/><path class="g" d="M-1913.819,56.781s126.02-7,154.162,10.046-5.089,52.04-5.089,52.04-102.595,44.608-274.355,54.52c-40.674,2.347-44.179-106.053-36.574-115.023S-1913.819,56.781-1913.819,56.781Z"/><g class="p" transform="matrix(1, 0, 0, 1, -2243.12, -400.51)"><path class="d" d="M-2019.989,438.1c-24.952-2.659-21.867-14.917-19.854-24.222,1.26-5.826,8.418-12.695,12.684-19.191,2.231,1.777,5.859,4.914,16.7,8.114,11.252,3.323,26.677-3.254,36.506-7.374,3.5,13.037,3.663,29.665,3.336,32.186C-1971.025,430.719-1995.037,440.762-2019.989,438.1Z" transform="translate(2243.12 400.51)"/></g><path class="h" d="M-2006.216,146.937c5.034,38.1,29.964,227.766,29.964,227.766l-57.843,7.172s-71.131-247.56-67.483-285.425S-2071.3,55.4-2071.3,55.4-2019.543,46.083-2006.216,146.937Z"/><path class="f" d="M-2072.631-204.583c17.069-6.4,25.419,147.393,27.72,210.7,30.227,2.908,82.914.023,96.032-.963,6.17-.463,20.4-5.675,26.532-6.477,6.289-.824,11.988-1.253,15.08-.715,1.134.2,32.641,13.082,35.337,15.908,3.343,3.5,12.378,12.343,10.854,16.165s-17.38-10.65-17.38-10.65l-7.748-4.347c9.645,9.423,28.043,21.833,25.393,26.351-2.585,4.407-19.18-8.186-31.008-16.769,10.145,9.163,22.749,25.561,19.845,28.117-2.61,2.3-16.946-16.687-32.269-22.154-5.677-2.025-11.336,3.586-15.8,4.263-3.284.5-8.351,1.557-11.571.644l-16.589-4.7c-5.652.511-5.794,3.855-11.5,5.068-6.626,1.41-17.495,2.9-25.933,4.957-48.584,11.87-64.788,17.383-79.664,17.373C-2110.359,58.154-2112.971-189.45-2072.631-204.583Z"/><path class="d" d="M-2105.024-60.2c-3.2-64.841-2.73-144.762,33.619-158.4,14.341-5.38,39.626,26.97,35.078,159.716C-2055.732-57.276-2084.22-55.986-2105.024-60.2Z"/><path class="c" d="M-1901.667-88.055h-3.7l-55.7,136.882,3.835-.585Z"/><path class="f" d="M-1818.64,372.237s-5.047,16.181,3.99,26.883,46.59,21.2,51.52,27,4.556,10.732,4.556,10.732l-105.4-2.9,1.148-31.831,4.854-22.876Z"/><g class="o" transform="matrix(1, 0, 0, 1, -2243.12, -400.51)"><path class="d" d="M-1808.094,404.456s-27.083,10.955-40.165,4.469-12.687-8.284-16.472-5.865-5.141,32.259-5.141,32.259l118.519,3.483c8.248-.191,12.418-6.263,5.717-11.464-4.595-3.565-9.905-5.952-12.922-7.683C-1767.829,414.338-1808.094,404.456-1808.094,404.456Z" transform="translate(2243.12 400.51)"/></g><path class="h" d="M-1822.635,86.653c8.146-17.144,26.673-39.464,59.273-26.021,31.092,12.822,39.437,44.333,29.627,76.6s-74.39,221.954-76.641,248.035l-51.565.341s9.372-150.2,11.671-186.5C-1848.058,164.175-1836.734,116.323-1822.635,86.653Z"/><g class="n" transform="matrix(1, 0, 0, 1, -2243.12, -400.51)"><path class="i" d="M-1738.927-88.055h-172.364a11.237,11.237,0,0,0-10.4,7l-53.073,129.883h-95.026a4.816,4.816,0,0,0-4.81,4.824h0a4.818,4.818,0,0,0,4.81,4.824h270.452a18.88,18.88,0,0,0,17.224-11.186l53.439-119.449A11.273,11.273,0,0,0-1738.927-88.055Z" transform="translate(2243.12 400.51)"/></g><path class="a" d="M-1831.728-12.425c-1.164,5.834-6.236,9.735-11.328,8.715s-8.275-6.579-7.111-12.413,6.236-9.736,11.328-8.715S-1830.563-18.258-1831.728-12.425Z"/><path class="j" d="M-1925.55-387.3A131.822,131.822,0,0,1-1940.8-393.4c-5.582-2.694-12.817-5.845-17.386-6.551-9.62-1.485-26.145-.494-35.272,9.4-11.369,12.334-31.571,2.229-27.5,66.824,4.607,73.114,45.261,65.09,46.247,63.851s36.258-46.776,36.258-46.776,12.332,26.978,12.332,25.987C-1926.12-281.62-1863.149-366.283-1925.55-387.3Z"/><path class="f" d="M-1956.413-254.475l3.51,26.125s7.862,37.639-2.253,44.9-43.011-45.968-43.011-45.968l3.474-66.2Z"/><path class="k" d="M-1995.815-274.168c8.355,22.58,28.253,36.46,42.378,41.843l-2.976-22.15-38.28-41.148Z"/><path class="f" d="M-1958.491-367.66c21.432-3.461,40.655,13.776,40.12,35.23a264.926,264.926,0,0,1-2.935,33.509c-4.66,30.158-25.236,56.714-38.841,54.343s-47.838-28.386-41.81-71.3C-1998.236-342.378-1980.981-364.03-1958.491-367.66Z"/><path class="f" d="M-1992.516-310.759c-1.148,6.632-6.461,11.244-11.865,10.3s-8.855-7.082-7.707-13.714,6.459-11.244,11.864-10.3S-1991.369-317.392-1992.516-310.759Z"/><path class="j" d="M-2000.224-324.473s16.449,4.088,22.554-6.493,27.933-33.41,55.682-23.945-24.419-23.016-26.639-23.016-28.857-.186-28.857-.186-20.535,16.892-21.274,18.748-6.66,22.088-6.66,22.088Z"/><path class="l" d="M-1958.952-312.921c0,2.616-1.036,4.737-2.317,4.737s-2.32-2.12-2.32-4.736,1.036-4.736,2.318-4.737S-1958.952-315.537-1958.952-312.921Z"/><path class="l" d="M-1970.74-323.045s2.23-5.146,6.514-6.435a9.9,9.9,0,0,1,8.221.823,1.691,1.691,0,0,1,.641,1.961h0a1.38,1.38,0,0,1-1.942.9C-1959.708-327.055-1964.993-328.668-1970.74-323.045Z"/><path class="l" d="M-1936.215-312.921c0,2.616,1.037,4.737,2.317,4.737s2.32-2.12,2.321-4.736-1.037-4.736-2.318-4.737S-1936.215-315.537-1936.215-312.921Z"/><path class="l" d="M-1924.427-323.045s-2.23-5.146-6.514-6.435a9.9,9.9,0,0,0-8.221.823,1.692,1.692,0,0,0-.641,1.961h0a1.38,1.38,0,0,0,1.942.9C-1935.459-327.055-1930.174-328.668-1924.427-323.045Z"/><path class="m" d="M-1947.988-296.867a1.22,1.22,0,0,1-.926-.648,1.479,1.479,0,0,1,.4-1.9l3.508-2.432-2.754-1.137a1.374,1.374,0,0,1-.8-1.212l-.474-8.879a1.331,1.331,0,0,1,1.153-1.459,1.286,1.286,0,0,1,1.3,1.294l.426,7.978,4.372,1.8a1.366,1.366,0,0,1,.8,1.157,1.441,1.441,0,0,1-.578,1.312l-5.659,3.921A1.118,1.118,0,0,1-1947.988-296.867Z"/><path class="m" d="M-1945.384-280.047a20.95,20.95,0,0,1-17.568-3.581,1.586,1.586,0,0,1-.379-2.04,1.23,1.23,0,0,1,1.819-.425c10.985,8.085,22.964.177,23.083.1a1.235,1.235,0,0,1,1.8.5,1.58,1.58,0,0,1-.448,2.023A26.345,26.345,0,0,1-1945.384-280.047Z"/><path class="m" d="M-1949.863-273.623a12.281,12.281,0,0,1-7.281-2.158,1.109,1.109,0,0,1-.321-1.419.868.868,0,0,1,1.264-.359c6.148,4.108,12.126.195,12.378.026a.869.869,0,0,1,1.264.356,1.109,1.109,0,0,1-.314,1.418A14.162,14.162,0,0,1-1949.863-273.623Z"/></g></svg>