<svg xmlns="http://www.w3.org/2000/svg" width="48.831" height="48.501" viewBox="0 0 48.831 48.501"><defs><style>.a{fill:#55acee;}.b{fill:#fff;}.c{fill:none;stroke:#55acee;}</style></defs><g transform="translate(-215.392 -673.696)"><g transform="translate(219.722 678)"><path class="a" d="M40.169,19.946A20.085,20.085,0,1,1,20.085,0,20.016,20.016,0,0,1,40.169,19.946Z"/><path class="b" d="M20.378,1.881a8.634,8.634,0,0,1-2.4.631A4.067,4.067,0,0,0,19.817.293a8.623,8.623,0,0,1-2.655.973A4.26,4.26,0,0,0,14.109,0,4.1,4.1,0,0,0,9.928,4.01a3.852,3.852,0,0,0,.108.914A12.043,12.043,0,0,1,1.419.733,3.862,3.862,0,0,0,.853,2.75,3.97,3.97,0,0,0,2.712,6.088a4.294,4.294,0,0,1-1.894-.5v.051A4.059,4.059,0,0,0,4.172,9.568a4.349,4.349,0,0,1-1.888.07A4.169,4.169,0,0,0,6.19,12.423,8.614,8.614,0,0,1,1,14.139a8.671,8.671,0,0,1-1-.055,12.2,12.2,0,0,0,6.408,1.8A11.566,11.566,0,0,0,18.3,4.475c0-.174,0-.346-.012-.519A8.3,8.3,0,0,0,20.378,1.881Z" transform="translate(10.069 12)"/></g><path class="c" d="M47.831,23.75A23.916,23.916,0,1,1,23.915,0,23.834,23.834,0,0,1,47.831,23.75Z" transform="translate(215.892 674.196)"/></g></svg>