<svg xmlns="http://www.w3.org/2000/svg" width="48.831" height="48.501" viewBox="0 0 48.831 48.501"><defs><style>.a{fill:#3b5998;}.b{fill:#fff;}.c{fill:none;stroke:#3b5998;}</style></defs><g transform="translate(-102.669 -673.696)"><g transform="translate(107 678)"><path class="a" d="M40.169,19.946A20.085,20.085,0,1,1,20.085,0,20.016,20.016,0,0,1,40.169,19.946Z"/><path class="b" d="M8.7,10H6.008V20.028H1.937V10H0V6.468H1.937V4.187C1.937,2.556,2.7,0,6.045,0L9.061.013V3.436H6.873a.837.837,0,0,0-.864.961V6.473H9.053Z" transform="translate(15.104 10)"/></g><path class="c" d="M47.831,23.75A23.916,23.916,0,1,1,23.915,0,23.834,23.834,0,0,1,47.831,23.75Z" transform="translate(103.169 674.196)"/><path class="a" d="M40.169,19.946A20.085,20.085,0,1,1,20.085,0,20.016,20.016,0,0,1,40.169,19.946Z" transform="translate(107 678)"/><path class="b" d="M8.7,10H6.008V20.028H1.937V10H0V6.468H1.937V4.187C1.937,2.556,2.7,0,6.045,0L9.061.013V3.436H6.873a.837.837,0,0,0-.864.961V6.473H9.053Z" transform="translate(122.104 688)"/></g></svg>