<svg xmlns="http://www.w3.org/2000/svg" xmlns:xlink="http://www.w3.org/1999/xlink" width="48.697" height="48.697" viewBox="0 0 48.697 48.697"><defs><style>.a{fill:url(#a);}.b{fill:url(#b);}.c{fill:#fff;}</style><linearGradient id="a" x1="-0.036" y1="1.008" x2="1.019" y2="0.008" gradientUnits="objectBoundingBox"><stop offset="0" stop-color="#fff200"/><stop offset="1" stop-color="#cd118c"/></linearGradient><linearGradient id="b" y1="0.5" x2="1" y2="0.5" gradientUnits="objectBoundingBox"><stop offset="0" stop-color="#fd5"/><stop offset="0.5" stop-color="#ff543e"/><stop offset="1" stop-color="#c837ab"/></linearGradient></defs><g transform="translate(-1508.54 -757.697)"><path class="a" d="M24.348,0A24.348,24.348,0,1,0,48.7,24.348,24.349,24.349,0,0,0,24.348,0Zm0,47.074A22.725,22.725,0,1,1,47.074,24.348,22.725,22.725,0,0,1,24.348,47.074Zm0,0" transform="translate(1508.54 757.697)"/><g transform="translate(1246.54 37.697)"><g transform="translate(99 211)"><circle class="b" cx="20" cy="20" r="20" transform="translate(167 513)"/><g transform="translate(176.408 523)"><path class="c" d="M20.988,6.055a7.526,7.526,0,0,0-.479-2.5A5.276,5.276,0,0,0,17.5.543,7.545,7.545,0,0,0,15,.064C13.895.012,13.545,0,10.748,0S7.6.012,6.5.06a7.528,7.528,0,0,0-2.5.479A5.025,5.025,0,0,0,2.179,1.73,5.071,5.071,0,0,0,.992,3.553a7.546,7.546,0,0,0-.479,2.5C.461,7.154.449,7.5.449,10.3s.012,3.146.06,4.245a7.525,7.525,0,0,0,.479,2.5A5.275,5.275,0,0,0,4,20.057a7.546,7.546,0,0,0,2.5.479c1.1.048,1.448.06,4.245.06s3.146-.012,4.245-.06a7.524,7.524,0,0,0,2.5-.479A5.268,5.268,0,0,0,20.5,17.043a7.551,7.551,0,0,0,.479-2.5c.048-1.1.06-1.448.06-4.245s0-3.146-.052-4.245Zm-1.855,8.409a5.645,5.645,0,0,1-.354,1.911,3.416,3.416,0,0,1-1.955,1.955,5.665,5.665,0,0,1-1.911.354c-1.086.048-1.412.06-4.16.06s-3.078-.012-4.16-.06a5.642,5.642,0,0,1-1.911-.354A3.169,3.169,0,0,1,3.5,17.562a3.2,3.2,0,0,1-.769-1.183,5.666,5.666,0,0,1-.354-1.911c-.048-1.086-.06-1.412-.06-4.16s.012-3.078.06-4.16A5.642,5.642,0,0,1,2.73,4.237,3.13,3.13,0,0,1,3.5,3.054a3.2,3.2,0,0,1,1.183-.768A5.669,5.669,0,0,1,6.6,1.931c1.086-.048,1.412-.06,4.16-.06s3.078.012,4.16.06a5.645,5.645,0,0,1,1.911.354,3.167,3.167,0,0,1,1.183.768,3.2,3.2,0,0,1,.769,1.183,5.668,5.668,0,0,1,.354,1.911c.048,1.086.06,1.412.06,4.16s-.012,3.07-.06,4.156Zm0,0" transform="translate(-0.449 0)"/><path class="c" d="M130.24,124.5a5.291,5.291,0,1,0,5.291,5.291A5.292,5.292,0,0,0,130.24,124.5Zm0,8.723a3.432,3.432,0,1,1,3.432-3.432A3.433,3.433,0,0,1,130.24,133.223Zm0,0" transform="translate(-119.94 -119.491)"/><path class="c" d="M364.92,89.837a1.235,1.235,0,1,1-1.235-1.235A1.235,1.235,0,0,1,364.92,89.837Zm0,0" transform="translate(-347.885 -85.037)"/></g></g></g></g></svg>