<svg xmlns="http://www.w3.org/2000/svg" width="48.831" height="48.501" viewBox="0 0 48.831 48.501"><defs><style>.a{fill:#dc4e41;}.b{fill:#fff;}.c{fill:none;stroke:#dc4e41;}</style></defs><g transform="translate(-160.031 -673.696)"><g transform="translate(164.361 678.068)"><path class="a" d="M40.169,19.946A20.085,20.085,0,1,1,20.085,0,20.016,20.016,0,0,1,40.169,19.946Z"/><g transform="translate(8.056 12)"><path class="b" d="M0,7.509A7.477,7.477,0,0,0,4.854,14.6a6.907,6.907,0,0,0,7.755-2.154,8.753,8.753,0,0,0,1.456-6c-2.294-.022-4.589-.014-6.878-.011,0,.852,0,1.7,0,2.552,1.373.04,2.747.022,4.121.051a4.1,4.1,0,0,1-2.335,2.84,4.481,4.481,0,0,1-6-2.857A4.792,4.792,0,0,1,5.916,2.966a4.891,4.891,0,0,1,4.252.866C10.8,3.21,11.4,2.543,11.991,1.871A7.019,7.019,0,0,0,6.825.023,7.321,7.321,0,0,0,0,7.509Z" transform="translate(0.336 0.444)"/><path class="b" d="M2.024,0c-.006.665-.013,1.33-.016,1.994C1.336,2,.668,2,0,2.007V3.993C.668,4,1.34,4,2.008,4.006c.006.663.006,1.326.013,1.994.665,0,1.333,0,2,0,0-.667.006-1.33.013-2l2.006-.01V2.007C5.374,2,4.7,2,4.035,1.994c0-.663-.01-1.329-.013-1.992Q3.02,0,2.024,0Z" transform="translate(17.454 4.444)"/><path class="b" d="M0,7.509A7.321,7.321,0,0,1,6.826.023a7.02,7.02,0,0,1,5.166,1.848c-.588.673-1.186,1.339-1.824,1.961a4.89,4.89,0,0,0-4.254-.866A4.789,4.789,0,0,0,2.979,9.019a4.479,4.479,0,0,0,6,2.857,4.1,4.1,0,0,0,2.336-2.838C9.937,9.01,8.563,9.027,7.19,8.988c0-.851-.007-1.7,0-2.552,2.291,0,4.586-.011,6.88.01a8.756,8.756,0,0,1-1.458,6A6.906,6.906,0,0,1,4.853,14.6,7.478,7.478,0,0,1,0,7.509Z" transform="translate(0.336 0.444)"/><path class="b" d="M2.024,0h2c0,.665.009,1.331.013,1.994C4.7,2,5.374,2,6.042,2.007V3.994C5.374,4,4.7,4,4.035,4c-.007.666-.01,1.33-.013,2-.668,0-1.337,0-2,0-.007-.666-.007-1.329-.013-1.993C1.34,4,.668,4,0,3.994V2.007C.668,2,1.336,2,2.008,1.994,2.011,1.331,2.017.665,2.024,0Z" transform="translate(17.454 4.444)"/></g></g><path class="c" d="M47.831,23.75A23.916,23.916,0,1,1,23.915,0,23.834,23.834,0,0,1,47.831,23.75Z" transform="translate(160.531 674.196)"/></g></svg>