<svg xmlns="http://www.w3.org/2000/svg" width="29.775" height="20.301" viewBox="0 0 29.775 20.301"><defs><style>.a{fill:#7f8592;}</style></defs><g transform="translate(0 0)"><path class="a" d="M14.887,20.3a15.934,15.934,0,0,1-9.118-2.842A15.794,15.794,0,0,1,0,10.15,15.947,15.947,0,0,1,14.887,0,15.947,15.947,0,0,1,29.775,10.15a15.793,15.793,0,0,1-5.769,7.308A15.937,15.937,0,0,1,14.887,20.3Zm0-16.918A6.7,6.7,0,0,0,8.121,10.15a6.767,6.767,0,1,0,13.534,0A6.7,6.7,0,0,0,14.887,3.383Zm0,10.827a3.987,3.987,0,1,1,2.893-1.167A4.051,4.051,0,0,1,14.887,14.21Z" transform="translate(0 0)"/></g></svg>