<svg xmlns="http://www.w3.org/2000/svg" width="17.145" height="22.86" viewBox="0 0 17.145 22.86"><defs><style>.a{fill:#7f8592;}</style></defs><path class="a" d="M18,23.288H5.143A2.146,2.146,0,0,1,3,21.144v-10A2.146,2.146,0,0,1,5.143,9H18a2.146,2.146,0,0,1,2.143,2.143v10A2.146,2.146,0,0,1,18,23.288ZM5.143,10.429a.715.715,0,0,0-.714.714v10a.715.715,0,0,0,.714.714H18a.715.715,0,0,0,.714-.714v-10A.715.715,0,0,0,18,10.429Z" transform="translate(-3 -0.427)"/><path class="a" d="M16.716,10A.715.715,0,0,1,16,9.287V5.715a4.286,4.286,0,1,0-8.573,0V9.287A.714.714,0,0,1,6,9.287V5.715a5.715,5.715,0,1,1,11.43,0V9.287A.715.715,0,0,1,16.716,10Z" transform="translate(-3.142)"/><path class="a" d="M11.905,16.81a1.905,1.905,0,1,1,1.905-1.905A1.907,1.907,0,0,1,11.905,16.81Zm0-2.381a.476.476,0,1,0,.476.476A.477.477,0,0,0,11.905,14.429Z" transform="translate(-3.332 -0.617)"/><path class="a" d="M11.964,19.8a.715.715,0,0,1-.714-.714V16.464a.714.714,0,0,1,1.429,0v2.619A.715.715,0,0,1,11.964,19.8Z" transform="translate(-3.392 -0.748)"/></svg>