<svg xmlns="http://www.w3.org/2000/svg" width="29.022" height="24.189" viewBox="0 0 29.022 24.189"><defs><style>.a{fill:#fff;}</style></defs><path class="a" d="M123.6,112.776c0-3.339-3.79-6.046-8.465-6.046s-8.465,2.707-8.465,6.046,3.79,6.046,8.465,6.046S123.6,116.116,123.6,112.776Zm0,0" transform="translate(-100.622 -100.681)"/><path class="a" d="M115.133,118.823c-4.668,0-8.465-2.712-8.465-6.046s3.8-6.046,8.465-6.046,8.465,2.712,8.465,6.046S119.8,118.823,115.133,118.823Zm0-10.883c-4,0-7.256,2.169-7.256,4.837s3.254,4.837,7.256,4.837,7.256-2.169,7.256-4.837S119.134,107.939,115.133,107.939Zm0,0" transform="translate(-100.622 -100.681)"/><path class="a" d="M5.442,156.659a.62.62,0,0,1-.147-.018L.457,155.432A.6.6,0,0,1,0,154.845v-3.628a.6.6,0,0,1,.458-.587L5.3,149.421a.6.6,0,1,1,.293,1.173l-4.379,1.1v2.683l4.379,1.094a.6.6,0,0,1-.146,1.191Zm0,0" transform="translate(0 -140.936)"/><path class="a" d="M25.565,150.607H21.937a.6.6,0,1,1,0-1.209h3.628a.6.6,0,1,1,0,1.209Zm0,0" transform="translate(-20.123 -140.93)"/><path class="a" d="M25.565,257.275H21.937a.6.6,0,1,1,0-1.209h3.628a.6.6,0,1,1,0,1.209Zm0,0" transform="translate(-20.123 -241.551)"/><path class="a" d="M405.936,156.652a.6.6,0,0,1-.145-1.191l4.378-1.1v-2.683l-4.379-1.095a.6.6,0,1,1,.293-1.173l4.837,1.209a.6.6,0,0,1,.458.587v3.628a.6.6,0,0,1-.458.587l-4.837,1.209A.606.606,0,0,1,405.936,156.652Zm0,0" transform="translate(-382.356 -140.928)"/><path class="a" d="M409.564,257.275h-3.628a.6.6,0,1,1,0-1.209h3.628a.6.6,0,1,1,0,1.209Zm0,0" transform="translate(-382.356 -241.551)"/><path class="a" d="M409.564,150.607h-3.628a.6.6,0,1,1,0-1.209h3.628a.6.6,0,1,1,0,1.209Zm0,0" transform="translate(-382.356 -140.93)"/><path class="a" d="M115.1,301.914a.617.617,0,0,1-.226-.043l-3.365-1.353a.606.606,0,0,1-.374-.644l.681-4.939a.6.6,0,1,1,1.2.165l-.617,4.47,2.49,1,2.648-3.654a.6.6,0,1,1,.978.708l-2.925,4.038a.6.6,0,0,1-.487.25Zm0,0" transform="translate(-104.832 -277.726)"/><path class="a" d="M99.907,298.98a.63.63,0,0,1-.226-.044.6.6,0,0,1-.335-.786l1.353-3.365a.6.6,0,0,1,1.121.451l-1.353,3.365A.6.6,0,0,1,99.907,298.98Zm0,0" transform="translate(-93.674 -277.719)"/><path class="a" d="M198.872,338.763a.626.626,0,0,1-.226-.044.6.6,0,0,1-.335-.786l1.353-3.365a.6.6,0,0,1,1.121.451l-1.353,3.365A.6.6,0,0,1,198.872,338.763Zm0,0" transform="translate(-187.028 -315.247)"/><path class="a" d="M272.989,301.891a.6.6,0,0,1-.49-.249l-2.926-4.038a.6.6,0,1,1,.978-.711l2.65,3.655,2.49-1-.618-4.471a.6.6,0,0,1,1.2-.164l.682,4.939a.6.6,0,0,1-.374.643l-3.365,1.354A.6.6,0,0,1,272.989,301.891Zm0,0" transform="translate(-254.183 -277.702)"/><path class="a" d="M271.394,338.758a.6.6,0,0,1-.561-.378l-1.354-3.367a.6.6,0,1,1,1.121-.451l1.354,3.367a.6.6,0,0,1-.335.786A.594.594,0,0,1,271.394,338.758Zm0,0" transform="translate(-254.162 -315.24)"/><path class="a" d="M370.38,298.969a.605.605,0,0,1-.561-.378l-1.353-3.365a.6.6,0,1,1,1.121-.451l1.353,3.365a.6.6,0,0,1-.335.786A.613.613,0,0,1,370.38,298.969Zm0,0" transform="translate(-347.537 -277.708)"/><path class="a" d="M64.6,166.112a.6.6,0,0,1-.6-.6V160.67a.6.6,0,0,1,1.209,0v4.837A.6.6,0,0,1,64.6,166.112Zm0,0" transform="translate(-60.372 -150.993)"/><path class="a" d="M427.272,166.112a.6.6,0,0,1-.6-.6V160.67a.6.6,0,0,1,1.209,0v4.837A.6.6,0,0,1,427.272,166.112Zm0,0" transform="translate(-402.482 -150.993)"/><path class="a" d="M130.187,321.184a.623.623,0,0,1-.226-.044l-4.489-1.8a.6.6,0,1,1,.451-1.121l4.489,1.8a.6.6,0,0,1-.225,1.164Zm0,0" transform="translate(-118.002 -300.137)"/><path class="a" d="M287.917,321.165A.6.6,0,0,1,287.69,320l4.488-1.8a.6.6,0,0,1,.451,1.121l-4.488,1.8A.586.586,0,0,1,287.917,321.165Zm0,0" transform="translate(-271.026 -300.118)"/><path class="a" d="M275.688,7.509A.636.636,0,0,1,275.6,7.5a.6.6,0,0,1-.516-.681l.617-4.471-2.49-1L270.567,5a.6.6,0,1,1-.978-.709L272.514.258a.6.6,0,0,1,.715-.207L276.6,1.4a.605.605,0,0,1,.374.643l-.682,4.939a.605.605,0,0,1-.6.522Zm0,0" transform="translate(-254.198 -0.007)"/><path class="a" d="M369.027,56.236a.624.624,0,0,1-.226-.043.6.6,0,0,1-.335-.786l1.353-3.365a.6.6,0,1,1,1.121.451l-1.353,3.365A.6.6,0,0,1,369.027,56.236Zm0,0" transform="translate(-347.539 -48.734)"/><path class="a" d="M270.061,16.478a.626.626,0,0,1-.226-.043.6.6,0,0,1-.335-.786l1.353-3.365a.6.6,0,1,1,1.121.451L270.621,16.1a.6.6,0,0,1-.56.378Zm0,0" transform="translate(-254.183 -11.231)"/><path class="a" d="M112.42,7.5a.606.606,0,0,1-.6-.522l-.683-4.938a.606.606,0,0,1,.374-.645L114.877.044a.6.6,0,0,1,.715.206l2.927,4.038A.6.6,0,1,1,117.54,5l-2.65-3.657-2.49,1,.619,4.471a.6.6,0,0,1-.516.681.673.673,0,0,1-.083.006Zm0,0" transform="translate(-104.833 0.001)"/><path class="a" d="M200.226,16.449a.605.605,0,0,1-.561-.378L198.311,12.7a.6.6,0,1,1,1.121-.451l1.355,3.367a.6.6,0,0,1-.335.786.6.6,0,0,1-.226.045Zm0,0" transform="translate(-187.028 -11.202)"/><path class="a" d="M101.252,56.24a.605.605,0,0,1-.561-.379L99.337,52.5a.6.6,0,0,1,1.122-.452l1.354,3.365a.6.6,0,0,1-.335.786A.6.6,0,0,1,101.252,56.24Zm0,0" transform="translate(-93.665 -48.736)"/><path class="a" d="M292.4,58.471a.623.623,0,0,1-.226-.043l-4.488-1.8a.6.6,0,0,1,.451-1.121l4.488,1.8a.6.6,0,0,1-.225,1.164Zm0,0" transform="translate(-271.026 -52.317)"/><path class="a" d="M125.719,58.454a.6.6,0,0,1-.226-1.166l4.489-1.8a.6.6,0,0,1,.451,1.121l-4.489,1.805A.614.614,0,0,1,125.719,58.454Zm0,0" transform="translate(-118.023 -52.299)"/></svg>