<svg xmlns="http://www.w3.org/2000/svg" width="21.441" height="22.484" viewBox="0 0 21.441 22.484"><defs><style>.a{fill:#fff;stroke:#fff;stroke-width:0.1px;}</style></defs><g transform="translate(0.05 0.05)"><path class="a" d="M145.695,103.2h-1.08l-4.869-8.336a1.434,1.434,0,0,0-2.507.055l-4.358,8.28H128v1.778h1.9l1.663,10.806a.889.889,0,0,0,.879.754H144.9a.889.889,0,0,0,.879-.754l1.663-10.806h1.9V103.2Zm-7.2-7.627a.023.023,0,0,1,.011,0l.009,0,4.3,7.357-8.215.046Zm5.636,19.186H133.209l-1.5-9.781h13.932Z" transform="translate(-128 -94.156)"/><rect class="a" width="1.778" height="6.225" transform="translate(6.225 12.603)"/><rect class="a" width="1.778" height="6.225" transform="translate(9.781 12.603)"/><rect class="a" width="1.778" height="6.225" transform="translate(13.338 12.603)"/></g></svg>