<svg xmlns="http://www.w3.org/2000/svg" width="54.285" height="56.106" viewBox="0 0 54.285 56.106"><defs><style>.a{fill:#fefdfc;}.b{fill:#1c803a;}.c{fill:#1c803b;}.d{fill:#1e813b;}.e{fill:#1e813c;}</style></defs><g transform="translate(0 0)"><path class="a" d="M45.478,41.56c2.515-5.354,6.427-8.98,12.161-10.36s10.858.077,15.384,3.785L80.047,28.3a26.607,26.607,0,0,0-42.5,7.7Z" transform="translate(-34.481 -20.811)"/><path class="a" d="M37.5,119.176c8.423,16.7,29.328,19.922,41.982,8.188l-7.665-6.242a16.945,16.945,0,0,1-15.128,2.6c-5.394-1.61-9.05-5.234-11.339-10.356Z" transform="translate(-34.454 -78.253)"/><path class="a" d="M136.589,82.425c1.534,7.313-.307,13.509-5.727,18.643l7.581,6.172a28.176,28.176,0,0,0,7.292-12.8,28.683,28.683,0,0,0,.558-12.019Z" transform="translate(-92.396 -59.049)"/><path class="a" d="M31.9,64.026a29.24,29.24,0,0,0,0,23.3c2.629-1.946,5.186-3.831,7.726-5.74a.705.705,0,0,0,.151-.614,18.811,18.811,0,0,1,.087-10.81c.083-.273.144-.469-.16-.679C37.119,67.7,34.553,65.889,31.9,64.026Z" transform="translate(-29.473 -47.63)"/><path class="b" d="M45.478,41.56,37.543,36a26.607,26.607,0,0,1,42.5-7.7l-7.025,6.687C68.5,31.278,63.378,29.82,57.639,31.2S47.992,36.207,45.478,41.56Z" transform="translate(-34.481 -20.811)"/><path class="b" d="M37.5,119.176l7.85-5.807c2.289,5.122,5.945,8.746,11.339,10.356a16.945,16.945,0,0,0,15.128-2.6l7.665,6.242C66.827,139.1,45.922,135.873,37.5,119.176Z" transform="translate(-34.454 -78.253)"/><path class="b" d="M136.589,82.425h9.7a28.683,28.683,0,0,1-.558,12.019,28.176,28.176,0,0,1-7.292,12.8l-7.581-6.172C136.282,95.934,138.123,89.738,136.589,82.425Z" transform="translate(-92.396 -59.049)"/><path class="c" d="M31.9,64.026c2.657,1.863,5.223,3.671,7.8,5.459.3.211.242.406.16.679a18.811,18.811,0,0,0-.087,10.81.705.705,0,0,1-.151.614c-2.539,1.909-5.1,3.794-7.726,5.74A29.24,29.24,0,0,1,31.9,64.026Z" transform="translate(-29.473 -47.63)"/><path class="d" d="M100.411,80.916a11.255,11.255,0,0,0-5.363,5.331,3.494,3.494,0,0,1-.458.6,2.729,2.729,0,0,1-.563-.53c-.279-.474-.5-.984-.741-1.479a.272.272,0,0,0-.036-.086l-.085-.275-.227-1.234-.017-.255a.879.879,0,0,0,.1-1.121l.042-.24.1-.361A5.524,5.524,0,0,1,95.9,77.743a30.314,30.314,0,0,1,3.817-1.567c1.25-.477,2.543-.851,3.766-1.385a11.81,11.81,0,0,0,1.867-1.3c.132.512.294.988.376,1.478a15.527,15.527,0,0,1-1.189,9.732,6.537,6.537,0,0,1-5.693,3.9,16.159,16.159,0,0,1-2.551-.244c-.278.537-.61,1.2-.956,1.847a9.431,9.431,0,0,1-3.182,3.882,18.162,18.162,0,0,1-1.646.809l-.116-.216c.148-.126.292-.258.446-.377a11.712,11.712,0,0,0,3.226-3.721c.758-1.414,1.484-2.853,2.1-4.335a11.459,11.459,0,0,1,3.961-4.893c.132-.1.258-.2.387-.3l.3-.089-.159-.169ZM97.494,79.43a.812.812,0,0,0-.83-.877,1.447,1.447,0,0,0-1.447,1.326.806.806,0,0,0,.829.873A1.445,1.445,0,0,0,97.494,79.43Z" transform="translate(-67.281 -53.505)"/><path class="e" d="M80.732,84.067a1.607,1.607,0,0,1,.082.525,2.025,2.025,0,0,1-.271.8,6.517,6.517,0,0,1-1.288,1.932,17.47,17.47,0,0,0-1.587-2.378,5.852,5.852,0,0,0-2.247-1.725,12.224,12.224,0,0,1,2.833,4.234A.709.709,0,0,1,77.61,88.5a5.234,5.234,0,0,1-3.793-.483c-3.6-1.99-3.716-7.5-2.748-10.966a9.269,9.269,0,0,0,4.34,2.114A7.692,7.692,0,0,1,79.6,81.5a7.98,7.98,0,0,1,1.075,2.4C80.7,83.952,80.715,84.009,80.732,84.067Zm-3.24-3.091c-.1.145-.379.374-.426.645-.088.5.46.992,1.021,1.014a.6.6,0,0,0,.7-.664C78.8,81.464,78.27,80.989,77.492,80.976Z" transform="translate(-54.966 -55.713)"/><path class="e" d="M97.1,99.194l.227,1.234Z" transform="translate(-71.442 -69.456)"/><path class="e" d="M97.531,93.983l-.1.361Z" transform="translate(-71.649 -66.222)"/><path class="e" d="M97.905,103.172a.27.27,0,0,1,.036.086C97.9,103.24,97.884,103.212,97.905,103.172Z" transform="translate(-71.936 -71.925)"/></g></svg>