<svg xmlns="http://www.w3.org/2000/svg" width="55.407" height="57.262" viewBox="0 0 55.407 57.262"><defs><style>.a{fill:#fefdfc;}.b{fill:#cd332c;}.c{fill:#ce332c;}.d{fill:#ce342d;}.e{fill:#ce342c;}.f{fill:#cf382f;}.g{fill:#d13f35;}</style></defs><g transform="translate(0)"><path class="a" d="M213.695,36.292l8.116,5.688c2.544-5.441,6.533-9.152,12.376-10.566s11.084.054,15.727,3.861l7.164-6.821C244.3,15.866,222.382,19.007,213.695,36.292Z" transform="translate(-210.585 -20.794)"/><path class="a" d="M213.681,119.291c8.776,17.406,30.464,20.11,42.832,8.342l-7.814-6.362a17.8,17.8,0,0,1-27.011-7.9Z" transform="translate(-210.577 -77.532)"/><path class="a" d="M314.731,107.745A28.72,28.72,0,0,0,322.2,94.607a29.134,29.134,0,0,0,.55-12.2H312.8a19.291,19.291,0,0,1-.23,10.326,18.747,18.747,0,0,1-5.609,8.678Z" transform="translate(-267.744 -58.556)"/><path class="a" d="M208.129,87.805c2.693-1.993,5.3-3.915,7.891-5.865a.8.8,0,0,0,.134-.686,19.206,19.206,0,0,1,.116-10.963.6.6,0,0,0-.311-.808c-1.476-1.012-2.934-2.051-4.4-3.078-1.115-.782-2.232-1.562-3.425-2.4A29.9,29.9,0,0,0,208.129,87.805Z" transform="translate(-205.663 -47.279)"/><path class="a" d="M261.055,82.845l-.138-.2c-.2-.025-.4-.06-.6-.072a9.774,9.774,0,0,0-5.886,1.56,17.012,17.012,0,0,0-4.959,4.809,1.081,1.081,0,0,1-1.115.54c-.543-.074-1.086-.157-1.631-.2a1.111,1.111,0,0,0-1.178,1.648,2.032,2.032,0,0,0,.737.914,6.572,6.572,0,0,0,3.183,1.086q9.869.013,19.737,0a1.084,1.084,0,0,0,.437-.012c.151-.074.371-.235.369-.356a9.59,9.59,0,0,0-1.958-5.368c-.8.846-1.515,1.725-2.353,2.467a3.335,3.335,0,0,1-2.843.762,4.12,4.12,0,0,1-3.231-3.048,3.763,3.763,0,0,1,.806-4.106A3.589,3.589,0,0,1,261.055,82.845Z" transform="translate(-230.022 -58.646)"/><path class="a" d="M269.3,112H242.378c.841,1.109,1.628,2.114,2.372,3.15a1.056,1.056,0,0,0,.98.5q10.08-.025,20.161,0a1.228,1.228,0,0,0,1.17-.614c.554-.818,1.19-1.581,1.787-2.371C268.994,112.468,269.121,112.261,269.3,112Z" transform="translate(-228.165 -76.69)"/><path class="a" d="M291.406,79.771l-.025-.005a3.083,3.083,0,0,0,0-.441c-.077-.518.153-1.173-.47-1.472a1.829,1.829,0,0,0-1.786.314c-.107.064-.194.163-.3.233-.7.468-1.383.951-2.095,1.394-.5.311-1.059.527-1.545.855a2.543,2.543,0,0,0-1.094,2.925A5.923,5.923,0,0,0,285,85.418a2.424,2.424,0,0,0,3.561.623,5.442,5.442,0,0,0,2.512-3.642C291.252,81.537,291.3,80.648,291.406,79.771Z" transform="translate(-253.658 -55.684)"/><path class="a" d="M302.9,70.539l-.439.73,1.16.94.556-.641.073.2a3.908,3.908,0,0,0,1.311-.388,1.022,1.022,0,0,0,.1-1.006,3.489,3.489,0,0,0-1.1-.688l-.134.2c-.107-.6-.364-1.125-1.029-1.065a1.287,1.287,0,0,0-.872.556A.854.854,0,0,0,302.9,70.539Z" transform="translate(-264.962 -50.225)"/><path class="a" d="M277.164,71.363c.03-.637.368-.889,1.045-.961.563-.06.594-.669.488-1.133a.783.783,0,0,0-.968-.6,3.7,3.7,0,0,0-.615.2.984.984,0,0,0-1.183-.692,1.142,1.142,0,0,0-.721.6.97.97,0,0,0,.713,1.238l-.188.819Z" transform="translate(-248.254 -49.812)"/><path class="a" d="M274.613,78.806l.142-.174c-.294-.21-.584-.591-.883-.6-.913-.023-1.381.675-1.957,1.451Z" transform="translate(-246.267 -55.875)"/><path class="b" d="M213.695,36.292c8.687-17.285,30.6-20.426,43.383-7.838l-7.164,6.821c-4.643-3.807-9.873-5.278-15.727-3.861s-9.832,5.125-12.376,10.566Z" transform="translate(-210.585 -20.794)"/><path class="b" d="M213.681,119.291l8.007-5.92a17.8,17.8,0,0,0,27.011,7.9l7.814,6.362C244.145,139.4,222.457,136.7,213.681,119.291Z" transform="translate(-210.577 -77.532)"/><path class="c" d="M314.731,107.745l-7.773-6.331a18.747,18.747,0,0,0,5.609-8.678,19.291,19.291,0,0,0,.23-10.326h9.954a29.134,29.134,0,0,1-.55,12.2A28.72,28.72,0,0,1,314.731,107.745Z" transform="translate(-267.744 -58.556)"/><path class="c" d="M208.129,87.805a29.9,29.9,0,0,1,.005-23.8c1.193.834,2.309,1.615,3.425,2.4,1.466,1.028,2.924,2.066,4.4,3.078a.6.6,0,0,1,.311.808,19.206,19.206,0,0,0-.116,10.963.8.8,0,0,1-.134.686C213.432,83.89,210.822,85.812,208.129,87.805Z" transform="translate(-205.663 -47.279)"/><path class="c" d="M261.055,82.845a3.589,3.589,0,0,0-.625.427,3.763,3.763,0,0,0-.806,4.106,4.12,4.12,0,0,0,3.231,3.048,3.335,3.335,0,0,0,2.843-.762c.838-.743,1.557-1.621,2.353-2.467a9.59,9.59,0,0,1,1.958,5.368c0,.121-.218.282-.369.356a1.084,1.084,0,0,1-.437.012q-9.869,0-19.737,0a6.572,6.572,0,0,1-3.183-1.086,2.032,2.032,0,0,1-.737-.914,1.111,1.111,0,0,1,1.178-1.648c.545.044,1.088.127,1.631.2a1.081,1.081,0,0,0,1.115-.54,17.012,17.012,0,0,1,4.959-4.809,9.774,9.774,0,0,1,5.886-1.56c.2.012.4.048.6.072Z" transform="translate(-230.022 -58.646)"/><path class="d" d="M269.3,112c-.179.264-.307.471-.453.664-.6.789-1.233,1.552-1.787,2.371a1.228,1.228,0,0,1-1.17.614q-10.081-.033-20.161,0a1.056,1.056,0,0,1-.98-.5c-.744-1.036-1.531-2.041-2.372-3.15Z" transform="translate(-228.165 -76.69)"/><path class="e" d="M291.406,79.771c-.105.877-.154,1.766-.329,2.629a5.442,5.442,0,0,1-2.512,3.642A2.424,2.424,0,0,1,285,85.418a5.923,5.923,0,0,1-.914-1.845,2.543,2.543,0,0,1,1.094-2.925c.486-.328,1.046-.544,1.545-.855.712-.443,1.4-.926,2.095-1.394.1-.07.191-.169.3-.233a1.829,1.829,0,0,1,1.786-.314c.623.3.393.954.47,1.472a3.083,3.083,0,0,1,0,.441Z" transform="translate(-253.658 -55.684)"/><path class="f" d="M302.9,70.539a.854.854,0,0,1-.377-1.163,1.287,1.287,0,0,1,.872-.556c.665-.059.922.461,1.029,1.065l.134-.2a3.489,3.489,0,0,1,1.1.688,1.022,1.022,0,0,1-.1,1.006,3.908,3.908,0,0,1-1.311.388l-.073-.2-.556.641-1.16-.94Z" transform="translate(-264.962 -50.225)"/><path class="f" d="M277.164,71.363l-1.428-.534.188-.819a.97.97,0,0,1-.713-1.238,1.142,1.142,0,0,1,.721-.6.984.984,0,0,1,1.183.692,3.7,3.7,0,0,1,.615-.2.783.783,0,0,1,.968.6c.106.465.075,1.073-.488,1.133C277.532,70.474,277.194,70.726,277.164,71.363Z" transform="translate(-248.254 -49.812)"/><path class="g" d="M274.613,78.806l-2.7.678c.576-.775,1.044-1.473,1.957-1.451.3.007.589.388.883.6Z" transform="translate(-246.267 -55.875)"/></g></svg>