<svg xmlns="http://www.w3.org/2000/svg" width="16.489" height="16.489" viewBox="0 0 16.489 16.489"><defs><style>.a{fill:#fff;}</style></defs><path class="a" d="M15.311,8.728h-5.3v-5.3A1.178,1.178,0,0,0,8.833,2.25H7.655A1.178,1.178,0,0,0,6.478,3.428v5.3h-5.3A1.178,1.178,0,0,0,0,9.905v1.178a1.178,1.178,0,0,0,1.178,1.178h5.3v5.3a1.178,1.178,0,0,0,1.178,1.178H8.833a1.178,1.178,0,0,0,1.178-1.178v-5.3h5.3a1.178,1.178,0,0,0,1.178-1.178V9.905A1.178,1.178,0,0,0,15.311,8.728Z" transform="translate(0 -2.25)"/></svg>